AmiriLatin-Bold.sfdir
StartChar: exclam
Encoding: 33 33 1
Width: 263
Flags: HW
LayerCount: 2
Fore
SplineSet
58 64 m 0
 58 84 65 101 79 115 c 128
 93 129 111 136 131 136 c 128
 151 136 169 129 183 114 c 128
 197 99 204 82 204 62 c 0
 204 42 197 25 183 11 c 128
 169 -3 152 -11 132 -11 c 0
 111 -11 93 -4 79 11 c 128
 65 26 58 43 58 64 c 0
135 627 m 0
 151 627 165 621 177 609 c 128
 189 597 195 581 195 561 c 0
 195 548 190 498 180 413 c 128
 170 328 161 262 154 216 c 1
 150 202 144 193 135 190 c 1
 132 190 129 192 124 195 c 128
 119 198 115 202 112 207 c 1
 105 247 97 310 86 397 c 128
 75 484 70 540 70 562 c 0
 70 582 77 597 89 609 c 128
 101 621 117 627 135 627 c 0
EndSplineSet
Substitution2: "'smcp' Lowercase to Small Capitals in Latin lookup 0 subtable" exclam.sc
EndChar
StartChar: quotedbl
Encoding: 34 34 2
Width: 323
Flags: W
HStem: 421 263<73 109 230 265>
VStem: 35 91<496 662> 191 91<496 662>
LayerCount: 2
Fore
SplineSet
252 684 m 0
 266 684 273 680 282 668 c 1
 282 635 273 504 266 443 c 1
 262 436 251 426 242 421 c 1
 238 421 234 424 232 429 c 1
 208 512 191 571 191 603 c 0
 191 635 215 684 252 684 c 0
96 684 m 0
 110 684 117 680 126 668 c 1
 126 635 116 504 109 443 c 1
 105 436 95 426 86 421 c 1
 82 421 78 424 76 429 c 1
 52 512 35 571 35 603 c 0
 35 635 59 684 96 684 c 0
EndSplineSet
EndChar
StartChar: numbersign
Encoding: 35 35 3
Width: 463
UnlinkRmOvrlpSave: 1
Flags: HW
LayerCount: 2
Fore
SplineSet
398 331 m 1
 77 331 l 1
 74 333 72 338 73 347 c 128
 74 356 77 367 81 378 c 128
 85 389 89 395 93 396 c 1
 411 396 l 1
 415 394 417 390 417 381 c 128
 417 372 414 362 410 351 c 128
 406 340 402 333 398 331 c 1
371 145 m 1
 50 145 l 1
 47 147 45 152 46 161 c 128
 47 170 50 180 54 191 c 128
 58 202 62 209 66 210 c 1
 385 210 l 1
 389 208 390 203 390 194 c 128
 390 185 387 175 383 164 c 128
 379 153 375 147 371 145 c 1
370 516 m 1
 293 35 l 2
 292 33 288 30 282 27 c 128
 276 24 270 22 263 22 c 0
 260 22 258 22 256 23 c 128
 254 24 252 24 252 25 c 2
 252 26 l 1
 329 506 l 1
 332 514 341 519 357 519 c 0
 363 519 367 518 370 516 c 1
213 516 m 1
 135 35 l 2
 134 33 131 30 125 27 c 128
 119 24 112 22 105 22 c 0
 102 22 100 22 98 23 c 128
 96 24 95 24 95 25 c 2
 95 26 l 1
 172 506 l 1
 175 514 184 519 200 519 c 0
 206 519 210 518 213 516 c 1
EndSplineSet
EndChar
StartChar: dollar
Encoding: 36 36 4
Width: 505
UnlinkRmOvrlpSave: 1
Flags: HW
LayerCount: 2
Fore
SplineSet
259 626 m 0
 272 626 285 625 299 623 c 128
 313 621 326 619 336 617 c 128
 346 615 359 612 376 608 c 128
 393 604 407 602 416 600 c 1
 419 575 422 522 426 444 c 1
 423 441 420 439 416 439 c 0
 398 439 389 441 388 445 c 1
 386 459 382 474 375 490 c 128
 368 506 360 521 350 536 c 128
 340 551 327 563 312 573 c 128
 297 583 281 587 264 587 c 0
 243 587 224 581 208 568 c 128
 192 555 184 534 184 506 c 0
 184 461 229 411 319 353 c 0
 325 349 333 344 343 338 c 128
 353 332 361 327 367 323 c 128
 373 319 381 315 390 308 c 128
 399 301 407 295 412 289 c 128
 417 283 423 276 430 267 c 128
 437 258 442 248 445 239 c 128
 448 230 451 218 453 205 c 128
 455 192 457 178 457 163 c 0
 457 130 447 100 427 73 c 128
 407 46 382 26 351 12 c 128
 320 -2 288 -10 253 -10 c 0
 206 -10 146 -1 75 15 c 1
 71 33 67 60 62 95 c 128
 57 130 54 157 53 174 c 1
 55 177 58 179 65 182 c 128
 72 185 77 187 80 187 c 0
 87 187 91 184 92 179 c 0
 94 166 100 151 108 134 c 128
 116 117 126 101 139 85 c 128
 152 69 167 56 186 45 c 128
 205 34 223 29 243 29 c 0
 253 29 263 30 272 33 c 128
 281 36 291 41 301 47 c 128
 311 53 319 62 325 75 c 128
 331 88 334 103 334 121 c 0
 334 133 331 144 326 156 c 128
 321 168 316 178 310 186 c 128
 304 194 294 204 282 214 c 128
 270 224 261 232 254 237 c 128
 247 242 236 249 222 258 c 128
 208 267 199 273 196 275 c 0
 158 300 134 318 124 326 c 0
 88 356 67 391 61 430 c 0
 60 439 60 448 60 457 c 0
 60 488 69 517 89 543 c 128
 109 569 135 590 165 604 c 128
 195 618 227 626 259 626 c 0
281 652 m 17
 306 652 319 650 319 645 c 1
 208 -39 l 1
 201 -39 193 -38 184 -37 c 128
 175 -36 170 -33 170 -30 c 1
 281 652 l 17
EndSplineSet
EndChar
StartChar: percent
Encoding: 37 37 5
Width: 1372
Flags: HW
LayerCount: 2
Fore
SplineSet
374 1222 m 3
 350.666666667 1222 331.5 1215.33333333 316.5 1202 c 128
 301.5 1188.66666667 290.666666667 1169.83333333 284 1145.5 c 128
 277.333333333 1121.16666667 273 1098.16666667 271 1076.5 c 128
 269 1054.83333333 268 1029.33333333 268 1000 c 0
 268 958 272.5 917.833333333 281.5 879.5 c 128
 290.5 841.166666667 305.833333333 807.666666667 327.5 779 c 128
 349.166666667 750.333333333 375.333333333 736 406 736 c 0
 429.333333333 736 448.666666667 742.5 464 755.5 c 128
 479.333333333 768.5 490.333333333 787 497 811 c 128
 503.666666667 835 508.166666667 857.666666667 510.5 879 c 128
 512.833333333 900.333333333 514 925.333333333 514 954 c 0
 514 996 509.333333333 1036.66666667 500 1076 c 128
 490.666666667 1115.33333333 475 1149.5 453 1178.5 c 128
 431 1207.5 404.666666667 1222 374 1222 c 3
390 1282 m 0
 481.333333333 1282 556.5 1253.66666667 615.5 1197 c 128
 674.5 1140.33333333 704 1069.33333333 704 984 c 0
 704 899.333333333 673.833333333 826.5 613.5 765.5 c 128
 553.166666667 704.5 479.333333333 674 392 674 c 0
 300 674 224.666666667 702.666666667 166 760 c 128
 107.333333333 817.333333333 78 888.666666667 78 974 c 0
 78 1058.66666667 108.166666667 1131.16666667 168.5 1191.5 c 128
 228.833333333 1251.83333333 302.666666667 1282 390 1282 c 0
968 548 m 3
 944.666666667 548 925.5 541.333333333 910.5 528 c 128
 895.5 514.666666667 884.666666667 495.833333333 878 471.5 c 128
 871.333333333 447.166666667 867 424.166666667 865 402.5 c 128
 863 380.833333333 862 355.333333333 862 326 c 0
 862 284 866.5 243.833333333 875.5 205.5 c 128
 884.5 167.166666667 899.833333333 133.666666667 921.5 105 c 128
 943.166666667 76.3333333333 969.333333333 62 1000 62 c 0
 1023.33333333 62 1042.66666667 68.5 1058 81.5 c 128
 1073.33333333 94.5 1084.33333333 113 1091 137 c 128
 1097.66666667 161 1102.16666667 183.666666667 1104.5 205 c 128
 1106.83333333 226.333333333 1108 251.333333333 1108 280 c 0
 1108 322 1103.33333333 362.666666667 1094 402 c 128
 1084.66666667 441.333333333 1069 475.5 1047 504.5 c 128
 1025 533.5 998.666666667 548 968 548 c 3
984 608 m 0
 1075.33333333 608 1150.5 579.666666667 1209.5 523 c 128
 1268.5 466.333333333 1298 395.333333333 1298 310 c 0
 1298 225.333333333 1267.83333333 152.5 1207.5 91.5 c 128
 1147.16666667 30.5 1073.33333333 0 986 0 c 0
 894 0 818.666666667 28.6666666667 760 86 c 128
 701.333333333 143.333333333 672 214.666666667 672 300 c 0
 672 384.666666667 702.166666667 457.166666667 762.5 517.5 c 128
 822.833333333 577.833333333 896.666666667 608 984 608 c 0
1246 1270 m 1
 214 -10 l 2
 209.333333333 -16.6666666667 198.5 -23.3333333333 181.5 -30 c 128
 164.5 -36.6666666667 148 -40 132 -40 c 0
 123.333333333 -40 116.5 -38 111.5 -34 c 128
 106.5 -30 103.666666667 -26 103 -22 c 2
 102 -16 l 1
 1134 1264 l 1
 1154 1281.33333333 1180.66666667 1290 1214 1290 c 0
 1222.66666667 1290 1230.16666667 1288 1236.5 1284 c 128
 1242.83333333 1280 1246 1275.33333333 1246 1270 c 1
EndSplineSet
EndChar
StartChar: ampersand
Encoding: 38 38 6
Width: 679
Flags: HW
LayerCount: 2
Fore
SplineSet
373 93 m 1
 324 159 273 230 219 306 c 1
 194 285 182 254 182 215 c 0
 182 198 184 182 189 165 c 128
 194 148 202 133 212 119 c 128
 222 105 236 93 253 84 c 128
 270 75 290 70 311 70 c 0
 335 70 355 78 373 93 c 1
305 595 m 0
 288 595 274 587 264 572 c 128
 254 557 249 538 249 514 c 0
 249 480 265 440 297 397 c 1
 339 419 360 454 360 501 c 0
 360 510 360 519 358 529 c 128
 356 539 353 549 349 559 c 128
 345 569 340 578 332 585 c 128
 324 592 315 595 305 595 c 0
288 630 m 0
 338 630 379 620 412 599 c 128
 445 578 461 551 461 517 c 0
 461 496 457 476 448 458 c 128
 439 440 427 425 413 413 c 128
 399 401 384 390 369 382 c 128
 354 374 339 367 322 361 c 1
 331 349 353 320 389 271 c 128
 425 222 449 191 459 177 c 1
 461 179 464 183 469 189 c 128
 474 195 478 200 481 203 c 128
 484 206 487 211 492 216 c 128
 497 221 501 226 503 229 c 128
 505 232 507 236 510 240 c 128
 513 244 516 247 517 250 c 128
 518 253 519 254 519 256 c 0
 519 263 516 267 509 270 c 128
 502 273 494 273 485 273 c 128
 471 273 471 273 471 273 c 0
 469 276 468 283 468 291 c 128
 468 299 470 304 472 305 c 1
 538 304 l 2
 562 303 604 304 663 307 c 1
 665 306 666 301 666 292 c 128
 666 283 664 277 661 274 c 0
 661 274 657 274 650 274 c 128
 643 274 637 273 631 272 c 128
 625 271 618 270 611 268 c 128
 604 266 598 263 594 260 c 128
 590 257 581 247 567 232 c 128
 553 217 538 199 521 180 c 128
 504 161 493 149 486 142 c 1
 492 135 l 2
 496 130 500 126 503 122 c 128
 506 118 511 113 517 107 c 128
 523 101 528 97 532 93 c 128
 536 89 541 86 546 83 c 128
 551 80 556 78 559 78 c 0
 563 78 567 79 572 81 c 128
 577 83 580 85 584 88 c 128
 588 91 592 94 596 99 c 128
 600 104 604 107 606 110 c 128
 608 113 611 116 615 121 c 128
 619 126 620 129 621 130 c 1
 625 130 630 128 635 125 c 128
 640 122 643 117 646 112 c 1
 645 108 639 101 630 89 c 128
 621 77 611 65 598 51 c 128
 585 37 570 24 553 13 c 128
 536 2 521 -3 507 -3 c 0
 490 -3 475 0 461 7 c 128
 447 14 435 21 428 28 c 128
 421 35 411 45 399 59 c 1
 355 17 299 -4 231 -4 c 0
 210 -4 191 0 170 7 c 128
 149 14 130 24 113 37 c 128
 96 50 82 66 71 86 c 128
 60 106 55 128 55 152 c 0
 55 173 57 192 63 210 c 128
 69 228 76 244 84 256 c 128
 92 268 102 279 115 291 c 128
 128 303 140 312 149 318 c 128
 158 324 170 332 183 340 c 0
 187 342 189 345 191 346 c 1
 190 348 185 354 178 364 c 128
 171 374 165 382 162 388 c 128
 159 394 155 401 150 411 c 128
 145 421 141 432 139 443 c 128
 137 454 136 467 136 479 c 0
 136 523 150 559 178 587 c 128
 206 615 242 630 288 630 c 0
EndSplineSet
EndChar
StartChar: quotesingle
Encoding: 39 39 7
Width: 176
Flags: W
HStem: 440 254<81 118>
VStem: 32 108<519 671>
LayerCount: 2
Fore
SplineSet
104 694 m 0
 120 694 134 688 141 673 c 1
 136 611 130 526 118 459 c 1
 114 453 104 444 93 440 c 1
 89 440 84 442 81 446 c 1
 60 503 32 566 32 612 c 0
 32 655 63 694 104 694 c 0
EndSplineSet
EndChar
StartChar: parenleft
Encoding: 40 40 8
Width: 582
Flags: HW
LayerCount: 2
Fore
SplineSet
288 610 m 128
 288 502 298.333333333 397.833333333 319 297.5 c 128
 339.666666667 197.166666667 365.5 112.833333333 396.5 44.5 c 128
 427.5 -23.8333333333 457.166666667 -80 485.5 -124 c 128
 513.833333333 -168 539.333333333 -200 562 -220 c 1
 563.333333333 -223.333333333 561.833333333 -232.5 557.5 -247.5 c 128
 553.166666667 -262.5 548.666666667 -271.333333333 544 -274 c 1
 520.666666667 -263.333333333 496 -249.333333333 470 -232 c 128
 444 -214.666666667 415.333333333 -191.666666667 384 -163 c 128
 352.666666667 -134.333333333 322.333333333 -102.5 293 -67.5 c 128
 263.666666667 -32.5 235 9.16666666667 207 57.5 c 128
 179 105.833333333 154.833333333 157 134.5 211 c 128
 114.166666667 265 97.6666666667 326.5 85 395.5 c 128
 72.3333333333 464.5 66 536 66 610 c 128
 66 684 72.3333333333 755.5 85 824.5 c 128
 97.6666666667 893.5 114.166666667 955 134.5 1009 c 128
 154.833333333 1063 179 1114.16666667 207 1162.5 c 128
 235 1210.83333333 263.666666667 1252.5 293 1287.5 c 128
 322.333333333 1322.5 352.666666667 1354.33333333 384 1383 c 128
 415.333333333 1411.66666667 444 1434.66666667 470 1452 c 128
 496 1469.33333333 520.666666667 1483.33333333 544 1494 c 1
 548.666666667 1491.33333333 553.166666667 1482.5 557.5 1467.5 c 128
 561.833333333 1452.5 563.333333333 1443.33333333 562 1440 c 1
 539.333333333 1420 513.833333333 1388 485.5 1344 c 128
 457.166666667 1300 427.5 1243.83333333 396.5 1175.5 c 128
 365.5 1107.16666667 339.666666667 1022.83333333 319 922.5 c 128
 298.333333333 822.166666667 288 718 288 610 c 128
EndSplineSet
Substitution2: "'smcp' Lowercase to Small Capitals in Latin lookup 0 subtable" parenleft.sc
EndChar
StartChar: parenright
Encoding: 41 41 9
Width: 582
Flags: W
LayerCount: 2
Fore
SplineSet
516 610 m 128,-1,1
 516 499 516 499 497 395.5 c 128,-1,2
 478 292 478 292 447.5 211 c 128,-1,3
 417 130 417 130 375 57.5 c 128,-1,4
 333 -15 333 -15 289 -67.5 c 128,-1,5
 245 -120 245 -120 198 -163 c 128,-1,6
 151 -206 151 -206 112 -232 c 128,-1,7
 73 -258 73 -258 38 -274 c 1,8,9
 31 -270 31 -270 24.5 -247.5 c 128,-1,10
 18 -225 18 -225 20 -220 c 1,11,12
 54 -190 54 -190 96.5 -124 c 128,-1,13
 139 -58 139 -58 185.5 44.5 c 128,-1,14
 232 147 232 147 263 297.5 c 128,-1,15
 294 448 294 448 294 610 c 128,-1,16
 294 772 294 772 263 922.5 c 128,-1,17
 232 1073 232 1073 185.5 1175.5 c 128,-1,18
 139 1278 139 1278 96.5 1344 c 128,-1,19
 54 1410 54 1410 20 1440 c 1,20,21
 18 1445 18 1445 24.5 1467.5 c 128,-1,22
 31 1490 31 1490 38 1494 c 1,23,24
 73 1478 73 1478 112 1452 c 128,-1,25
 151 1426 151 1426 198 1383 c 128,-1,26
 245 1340 245 1340 289 1287.5 c 128,-1,27
 333 1235 333 1235 375 1162.5 c 128,-1,28
 417 1090 417 1090 447.5 1009 c 128,-1,29
 478 928 478 928 497 824.5 c 128,-1,0
 516 721 516 721 516 610 c 128,-1,1
EndSplineSet
Substitution2: "'smcp' Lowercase to Small Capitals in Latin lookup 0 subtable" parenright.sc
EndChar
StartChar: asterisk
Encoding: 42 42 10
Width: 882
Flags: W
LayerCount: 2
Fore
SplineSet
575 1236 m 0,0,1
 605 1270 605 1270 648.5 1272.5 c 128,-1,2
 692 1275 692 1275 713 1252 c 1,3,4
 739 1226 739 1226 740 1189 c 128,-1,5
 741 1152 741 1152 711 1114 c 1,6,7
 684 1083 684 1083 647.5 1069 c 128,-1,8
 611 1055 611 1055 575.5 1044.5 c 128,-1,9
 540 1034 540 1034 517 1012 c 1,10,11
 503 996 503 996 503 986 c 128,-1,12
 503 976 503 976 519 970 c 1,13,14
 552 955 552 955 618.5 953.5 c 128,-1,15
 685 952 685 952 731 932 c 0,16,17
 772 915 772 915 788 875 c 128,-1,18
 804 835 804 835 789 804 c 0,19,20
 773 772 773 772 737 760 c 128,-1,21
 701 748 701 748 657 764 c 1,22,23
 627 777 627 777 604.5 799 c 128,-1,24
 582 821 582 821 570.5 841 c 128,-1,25
 559 861 559 861 540 882.5 c 128,-1,26
 521 904 521 904 499 916 c 0,27,28
 497 917 497 917 493.5 918.5 c 128,-1,29
 490 920 490 920 481.5 923 c 128,-1,30
 473 926 473 926 471 922 c 1,31,32
 465 919 465 919 463 906 c 0,33,34
 459 870 459 870 477.5 807 c 128,-1,35
 496 744 496 744 491 694 c 0,36,37
 487 650 487 650 454.5 623.5 c 128,-1,38
 422 597 422 597 389 600 c 1,39,40
 353 606 353 606 329 637 c 128,-1,41
 305 668 305 668 309 712 c 0,42,43
 314 764 314 764 356.5 820 c 128,-1,44
 399 876 399 876 405 910 c 1,45,46
 407 930 407 930 401 938 c 1,47,48
 399 943 399 943 383 940 c 0,49,50
 348 932 348 932 293 895.5 c 128,-1,51
 238 859 238 859 189 848 c 0,52,53
 145 838 145 838 110.5 860.5 c 128,-1,54
 76 883 76 883 69 916 c 1,55,56
 64 952 64 952 85.5 984 c 128,-1,57
 107 1016 107 1016 151 1026 c 0,58,59
 191 1035 191 1035 228.5 1025.5 c 128,-1,60
 266 1016 266 1016 302 1004 c 128,-1,61
 338 992 338 992 369 996 c 1,62,63
 393 998 393 998 395 1008 c 0,64,65
 397 1014 397 1014 387 1030 c 0,66,67
 369 1061 369 1061 317 1101.5 c 128,-1,68
 265 1142 265 1142 239 1186 c 1,69,70
 217 1228 217 1228 227.5 1267 c 128,-1,71
 238 1306 238 1306 267 1322 c 0,72,73
 296 1339 296 1339 335 1327.5 c 128,-1,74
 374 1316 374 1316 397 1278 c 0,75,76
 418 1242 418 1242 420.5 1203 c 128,-1,77
 423 1164 423 1164 422 1127 c 128,-1,78
 421 1090 421 1090 435 1062 c 0,79,80
 445 1042 445 1042 455 1040 c 1,81,82
 465 1040 465 1040 473 1048 c 0,83,84
 498 1075 498 1075 520 1137 c 128,-1,85
 542 1199 542 1199 575 1236 c 0,0,1
EndSplineSet
EndChar
StartChar: plus
Encoding: 43 43 11
Width: 529
Flags: HW
LayerCount: 2
Fore
SplineSet
235 463 m 1
 240 467 247 469 256 471 c 128
 265 473 271 474 276 474 c 0
 286 474 292 471 292 465 c 2
 291 269 l 1
 490 269 l 2
 493 269 495 267 497 264 c 128
 499 261 499 258 499 255 c 0
 499 238 494 223 485 212 c 1
 292 212 l 1
 292 19 l 1
 281 12 266 8 246 8 c 0
 243 8 241 8 239 10 c 128
 237 12 235 14 235 16 c 2
 235 212 l 1
 36 212 l 2
 32 212 30 218 30 228 c 0
 30 246 33 259 40 269 c 1
 234 269 l 1
 235 463 l 1
EndSplineSet
EndChar
StartChar: comma
Encoding: 44 44 12
Width: 218
Flags: W
HStem: -153 289
VStem: 88 85<-35 68>
LayerCount: 2
Fore
SplineSet
116 136 m 0
 133 136 148 128 159 120 c 1
 167 105 173 80 173 57 c 0
 173 -36 107 -119 39 -153 c 1
 28 -150 19 -136 19 -130 c 1
 38 -118 88 -74 88 -26 c 0
 88 6 41 3 41 66 c 0
 41 82 55 136 116 136 c 0
EndSplineSet
EndChar
StartChar: hyphen
Encoding: 45 45 13
Width: 750
Flags: HW
LayerCount: 2
Fore
SplineSet
142 534 m 1
 419.333333333 548.666666667 580 556.666666667 624 558 c 0
 633.333333333 558 638 552 638 540 c 0
 638 502.666666667 628 462.666666667 608 420 c 1
 580.666666667 418 420 410.666666667 126 398 c 0
 116.666666667 398 112 405.333333333 112 420 c 0
 112 453.333333333 122 491.333333333 142 534 c 1
EndSplineSet
EndChar
StartChar: period
Encoding: 46 46 14
Width: 468
Flags: W
LayerCount: 2
Fore
SplineSet
84 132 m 0,0,1
 84 192 84 192 128 235 c 128,-1,2
 172 278 172 278 234 278 c 128,-1,3
 296 278 296 278 340 232.5 c 128,-1,4
 384 187 384 187 384 126 c 0,5,6
 384 66 384 66 340.5 22 c 128,-1,7
 297 -22 297 -22 236 -22 c 0,8,9
 173 -22 173 -22 128.5 23 c 128,-1,10
 84 68 84 68 84 132 c 0,0,1
EndSplineSet
EndChar
StartChar: slash
Encoding: 47 47 15
Width: 844
Flags: HW
LayerCount: 2
Fore
SplineSet
748 1522 m 0
 770.666666667 1522 783.333333333 1516.66666667 786 1506 c 1
 194 -28 l 1
 191.333333333 -38 181.666666667 -47.5 165 -56.5 c 128
 148.333333333 -65.5 124.666666667 -70 94 -70 c 0
 85.3333333333 -70 78 -68.8333333333 72 -66.5 c 128
 66 -64.1666666667 62.1666666667 -61.8333333333 60.5 -59.5 c 2
 58 -56 l 1
 650 1478 l 1
 655.333333333 1488.66666667 666.333333333 1498.66666667 683 1508 c 128
 699.666666667 1517.33333333 721.333333333 1522 748 1522 c 0
EndSplineSet
Substitution2: "'smcp' Lowercase to Small Capitals in Latin lookup 0 subtable" slash.sc
EndChar
StartChar: zero
Encoding: 48 48 16
Width: 1090
Flags: HW
LayerCount: 2
Fore
SplineSet
552 1166 m 0
 510 1166 474.666666667 1140.5 446 1089.5 c 128
 417.333333333 1038.5 396.5 971.833333333 383.5 889.5 c 128
 370.5 807.166666667 364 712 364 604 c 0
 364 450 382.333333333 323.833333333 419 225.5 c 128
 455.666666667 127.166666667 500 78 552 78 c 0
 583.333333333 78 610.5 93.1666666667 633.5 123.5 c 128
 656.5 153.833333333 674.666666667 196.166666667 688 250.5 c 128
 701.333333333 304.833333333 711 365.5 717 432.5 c 128
 723 499.5 726 574 726 656 c 0
 726 814 710.666666667 938.5 680 1029.5 c 128
 649.333333333 1120.5 606.666666667 1166 552 1166 c 0
550 1250 m 0
 610 1250 666.5 1235.83333333 719.5 1207.5 c 128
 772.5 1179.16666667 818.666666667 1138.83333333 858 1086.5 c 128
 897.333333333 1034.16666667 928.5 968 951.5 888 c 128
 974.5 808 986 719.333333333 986 622 c 0
 986 508 966.5 402.833333333 927.5 306.5 c 128
 888.5 210.166666667 835.5 134 768.5 78 c 128
 701.5 22 628.666666667 -6 550 -6 c 0
 489.333333333 -6 432.166666667 8.16666666667 378.5 36.5 c 128
 324.833333333 64.8333333333 277.666666667 105.166666667 237 157.5 c 128
 196.333333333 209.833333333 164 276 140 356 c 128
 116 436 104 524.666666667 104 622 c 0
 104 735.333333333 124.333333333 840.5 165 937.5 c 128
 205.666666667 1034.5 260.333333333 1110.83333333 329 1166.5 c 128
 397.666666667 1222.16666667 471.333333333 1250 550 1250 c 0
EndSplineSet
EndChar
StartChar: one
Encoding: 49 49 17
Width: 532
Flags: W
HStem: -4 36<145 210 353 417> 608 20G<338 345>
VStem: 218 127<40 521>
LayerCount: 2
Fore
SplineSet
218 142 m 2
 218 471 l 2
 218 514 213 522 197 522 c 0
 188 522 148 512 127 500 c 1
 119 504 114 513 114 519 c 0
 114 521 113 529 116 530 c 0
 228 578 337 628 340 628 c 2
 342 628 l 2
 348 628 353 614 354 609 c 1
 354 609 345 581 345 518 c 2
 345 142 l 2
 345 100 345 70 353 50 c 0
 358 37 402 33 415 32 c 1
 420 25 419 2 415 -4 c 1
 377 0 322 3 281 3 c 0
 240 3 185 0 147 -4 c 1
 143 2 142 25 147 32 c 1
 160 33 205 37 210 50 c 0
 218 70 218 100 218 142 c 2
EndSplineSet
EndChar
StartChar: two
Encoding: 50 50 18
Width: 1090
Flags: HW
LayerCount: 2
Fore
SplineSet
978 384 m 1
 972.666666667 362.666666667 963.666666667 331 951 289 c 128
 938.333333333 247 926.166666667 207.833333333 914.5 171.5 c 128
 902.833333333 135.166666667 890.833333333 98.6666666667 878.5 62 c 128
 866.166666667 25.3333333333 859.333333333 4.66666666667 858 0 c 1
 130 0 l 1
 120.666666667 9.33333333333 114.666666667 21.3333333333 112 36 c 1
 124 49.3333333333 158.666666667 87 216 149 c 128
 273.333333333 211 311.833333333 253.5 331.5 276.5 c 128
 351.166666667 299.5 380.5 336.5 419.5 387.5 c 128
 458.5 438.5 494.666666667 490 528 542 c 0
 605.333333333 664.666666667 644 783.333333333 644 898 c 0
 644 962 622.333333333 1016.33333333 579 1061 c 128
 535.666666667 1105.66666667 486 1128 430 1128 c 0
 404 1128 379 1123.83333333 355 1115.5 c 128
 331 1107.16666667 310.166666667 1096 292.5 1082 c 128
 274.833333333 1068 260 1055 248 1043 c 128
 236 1031 225.166666667 1018.66666667 215.5 1006 c 128
 205.833333333 993.333333333 200.666666667 986.666666667 200 986 c 1
 193.333333333 986 184.666666667 990.666666667 174 1000 c 128
 163.333333333 1009.33333333 158 1020.66666667 158 1034 c 1
 168 1056 183.5 1080 204.5 1106 c 128
 225.5 1132 252.5 1159 285.5 1187 c 128
 318.5 1215 359 1238.16666667 407 1256.5 c 128
 455 1274.83333333 505.333333333 1284 558 1284 c 0
 658 1284 741 1254.16666667 807 1194.5 c 128
 873 1134.83333333 906 1052.66666667 906 948 c 0
 906 834.666666667 855.333333333 718.666666667 754 600 c 0
 614 436.666666667 488.666666667 304.666666667 378 204 c 1
 722 204 l 2
 734 204 745.333333333 205.166666667 756 207.5 c 128
 766.666666667 209.833333333 776.166666667 212.5 784.5 215.5 c 128
 792.833333333 218.5 801.166666667 223.166666667 809.5 229.5 c 128
 817.833333333 235.833333333 824.833333333 241.166666667 830.5 245.5 c 128
 836.166666667 249.833333333 842.333333333 256.833333333 849 266.5 c 128
 855.666666667 276.166666667 860.833333333 283.333333333 864.5 288 c 128
 868.166666667 292.666666667 872.833333333 300.666666667 878.5 312 c 128
 884.166666667 323.333333333 887.833333333 331.166666667 889.5 335.5 c 128
 891.166666667 339.833333333 894.666666667 348 900 360 c 128
 905.333333333 372 908.666666667 379.333333333 910 382 c 0
 914 391.333333333 923.333333333 396 938 396 c 0
 954.666666667 396 968 392 978 384 c 1
EndSplineSet
EndChar
StartChar: three
Encoding: 51 51 19
Width: 532
Flags: HW
LayerCount: 2
Fore
SplineSet
281 627 m 0
 291 627 303 626 315 624 c 128
 327 622 339 617 353 611 c 128
 367 605 379 597 390 588 c 128
 401 579 411 567 418 552 c 128
 425 537 429 521 429 502 c 0
 429 483 424 465 416 448 c 128
 408 431 397 416 384 405 c 128
 371 394 360 385 350 378 c 128
 340 371 330 366 322 363 c 1
 330 363 340 362 350 359 c 128
 360 356 373 351 387 344 c 128
 401 337 414 327 426 317 c 128
 438 307 448 293 456 275 c 128
 464 257 468 237 468 215 c 0
 468 182 460 151 445 123 c 128
 430 95 409 70 384 52 c 128
 359 34 332 20 301 10 c 128
 270 0 239 -6 207 -6 c 0
 178 -6 152 -2 129 5 c 128
 106 12 88 21 76 30 c 1
 73 34 70 41 68 50 c 128
 66 59 64 66 64 72 c 0
 64 85 69 97 78 108 c 128
 87 119 99 124 115 124 c 0
 118 124 121 123 124 123 c 128
 127 123 129 121 132 120 c 128
 135 119 137 117 139 116 c 128
 141 115 144 114 147 111 c 128
 150 108 152 106 154 105 c 128
 156 104 158 101 161 98 c 128
 164 95 166 93 167 92 c 128
 168 91 170 88 173 84 c 128
 176 80 178 78 178 78 c 0
 202 49 225 35 246 35 c 0
 276 35 298 47 314 71 c 128
 330 95 338 130 338 174 c 0
 338 212 328 245 309 273 c 128
 290 301 264 314 232 314 c 0
 217 314 200 312 178 306 c 1
 173 313 170 320 170 329 c 2
 170 338 l 1
 182 340 195 343 207 346 c 128
 219 349 232 355 245 361 c 128
 258 367 270 374 280 382 c 128
 290 390 298 399 305 410 c 128
 312 421 314 434 314 447 c 0
 314 478 306 504 290 524 c 128
 274 544 251 555 223 555 c 0
 201 555 179 549 158 536 c 128
 137 523 123 513 115 504 c 1
 112 505 109 509 107 515 c 128
 105 521 104 526 104 531 c 1
 125 558 150 581 181 599 c 128
 212 617 245 627 281 627 c 0
EndSplineSet
EndChar
StartChar: four
Encoding: 52 52 20
Width: 532
Flags: HW
LayerCount: 2
Fore
SplineSet
402 629 m 0
 406 629 411 626 418 619 c 128
 425 612 428 607 428 602 c 2
 428 236 l 1
 473 236 l 2
 477 236 479 232 482 224 c 128
 485 216 486 204 486 190 c 0
 486 186 486 182 484 179 c 128
 482 176 481 173 479 172 c 2
 477 170 l 1
 428 170 l 1
 428 4 l 1
 411 -2 388 -5 361 -5 c 0
 323 -5 305 0 305 8 c 2
 305 170 l 1
 57 170 l 1
 50 173 47 181 47 194 c 1
 89 246 148 321 224 416 c 128
 300 511 352 577 383 615 c 1
 391 624 397 629 402 629 c 0
305 455 m 17
 131 236 l 1
 305 236 l 1
 305 455 l 17
EndSplineSet
EndChar
StartChar: five
Encoding: 53 53 21
Width: 532
Flags: HW
LayerCount: 2
Fore
SplineSet
271 413 m 0
 303 413 333 405 363 388 c 128
 393 371 418 347 437 318 c 128
 456 289 466 258 466 225 c 128
 466 192 458 160 443 131 c 128
 428 102 409 77 385 57 c 128
 361 37 334 22 303 11 c 128
 272 0 241 -6 210 -6 c 0
 181 -6 155 -2 131 5 c 128
 107 12 89 21 78 30 c 1
 75 34 72 41 70 50 c 128
 68 59 66 66 66 72 c 0
 66 85 71 97 80 108 c 128
 89 119 101 124 117 124 c 0
 120 124 123 123 126 123 c 128
 129 123 131 121 134 120 c 128
 137 119 139 117 141 116 c 128
 143 115 146 114 149 111 c 128
 152 108 154 106 156 105 c 128
 158 104 160 101 163 98 c 128
 166 95 167 93 168 92 c 128
 169 91 172 88 175 84 c 128
 178 80 180 78 180 78 c 0
 204 49 227 35 249 35 c 0
 279 35 301 47 317 71 c 128
 333 95 341 130 341 174 c 0
 341 202 333 227 318 250 c 128
 303 273 285 291 265 303 c 128
 245 315 225 320 206 320 c 0
 169 320 139 316 116 307 c 1
 113 307 111 309 109 314 c 128
 107 319 106 322 106 326 c 1
 106 327 111 348 119 390 c 128
 127 432 135 476 144 525 c 128
 153 574 159 605 161 620 c 1
 335 620 l 2
 361 620 391 624 425 631 c 0
 425 631 426 630 427 630 c 128
 428 630 429 629 430 629 c 128
 431 629 432 628 433 627 c 128
 434 626 435 626 435 625 c 128
 435 624 437 623 437 622 c 128
 437 621 438 619 438 617 c 0
 438 610 432 595 423 572 c 128
 414 549 406 533 401 523 c 1
 361 519 312 517 255 516 c 0
 234 515 212 515 189 515 c 1
 167 400 l 1
 202 408 237 413 271 413 c 0
EndSplineSet
EndChar
StartChar: six
Encoding: 54 54 22
Width: 532
Flags: W
HStem: -6 41<232 308> 338 58<215 299> 604 25<407 432>
VStem: 63 128<130 323> 341 128<116 288>
LayerCount: 2
Fore
SplineSet
198 319 m 1
 193 285 191 243 191 216 c 0
 191 134 211 35 273 35 c 0
 311 35 341 90 341 178 c 0
 341 261 316 338 247 338 c 0
 235 338 212 333 198 319 c 1
290 396 m 0
 385 396 469 344 469 202 c 0
 469 88 367 -6 263 -6 c 0
 154 -6 63 109 63 236 c 3
 63 344 119 438 177 499 c 0
 261 588 361 621 427 630 c 1
 435 624 436 614 434 604 c 1
 311 553 241 470 210 371 c 1
 235 386 266 396 290 396 c 0
EndSplineSet
EndChar
StartChar: seven
Encoding: 55 55 23
Width: 1090
Flags: HW
LayerCount: 2
Fore
SplineSet
780 1274 m 2
 800.666666667 1274 825 1274.66666667 853 1276 c 128
 881 1277.33333333 905.333333333 1278.66666667 926 1280 c 128
 946.666666667 1281.33333333 958 1282 960 1282 c 0
 969.333333333 1282 974 1272 974 1252 c 0
 974 1248.66666667 973.166666667 1244.5 971.5 1239.5 c 128
 969.833333333 1234.5 967.166666667 1228 963.5 1220 c 128
 959.833333333 1212 956.333333333 1204.33333333 953 1197 c 128
 949.666666667 1189.66666667 944.5 1179.16666667 937.5 1165.5 c 128
 930.5 1151.83333333 924.666666667 1140 920 1130 c 2
 376 -16 l 1
 370.666666667 -20 359.333333333 -22 342 -22 c 0
 327.333333333 -22 309 -18 287 -10 c 128
 265 -2 254 10 254 26 c 1
 296.666666667 86.6666666667 377.166666667 228.666666667 495.5 452 c 128
 613.833333333 675.333333333 718 882 808 1072 c 1
 346 1072 l 2
 322 1072 301.166666667 1067.33333333 283.5 1058 c 128
 265.833333333 1048.66666667 250.833333333 1034.16666667 238.5 1014.5 c 128
 226.166666667 994.833333333 216.833333333 978 210.5 964 c 128
 204.166666667 950 196.666666667 930 188 904 c 0
 186 897.333333333 178 893.333333333 164 892 c 0
 144.666666667 890 128.666666667 895.333333333 116 908 c 1
 142 1006 171.333333333 1127.33333333 204 1272 c 1
 780 1274 l 2
EndSplineSet
EndChar
StartChar: eight
Encoding: 56 56 24
Width: 1090
Flags: HW
LayerCount: 2
Fore
SplineSet
552 72 m 3
 599.333333333 72 636.166666667 87.5 662.5 118.5 c 128
 688.833333333 149.5 702 188.666666667 702 236 c 0
 702 265.333333333 695.833333333 294.833333333 683.5 324.5 c 128
 671.166666667 354.166666667 657.5 379.166666667 642.5 399.5 c 128
 627.5 419.833333333 607.5 441.833333333 582.5 465.5 c 128
 557.5 489.166666667 539.166666667 505.5 527.5 514.5 c 128
 515.833333333 523.5 500 535.333333333 480 550 c 0
 472 556.666666667 466 560 462 560 c 0
 456 560 452.666666667 559.333333333 452 558 c 0
 409.333333333 505.333333333 388 423.333333333 388 312 c 0
 388 271.333333333 393.166666667 233.666666667 403.5 199 c 128
 413.833333333 164.333333333 431.833333333 134.5 457.5 109.5 c 128
 483.166666667 84.5 514.666666667 72 552 72 c 3
536 1184 m 3
 500 1184 470.666666667 1168.66666667 448 1138 c 128
 425.333333333 1107.33333333 414 1069.33333333 414 1024 c 0
 414 992 420.333333333 961 433 931 c 128
 445.666666667 901 462 875.666666667 482 855 c 128
 502 834.333333333 520.5 817.333333333 537.5 804 c 128
 554.5 790.666666667 570.666666667 780 586 772 c 1
 596 765.333333333 604 762 610 762 c 0
 614 762 618 764 622 768 c 1
 650 810 664 878 664 972 c 0
 664 1004.66666667 659.833333333 1036.5 651.5 1067.5 c 128
 643.166666667 1098.5 628.833333333 1125.66666667 608.5 1149 c 128
 588.166666667 1172.33333333 564 1184 536 1184 c 3
540 1266 m 155
 603.333333333 1266 662.833333333 1255.5 718.5 1234.5 c 128
 774.166666667 1213.5 820.666666667 1180.66666667 858 1136 c 128
 895.333333333 1091.33333333 914 1038.66666667 914 978 c 0
 914 918.666666667 892.666666667 865.5 850 818.5 c 128
 807.333333333 771.5 754.666666667 734.666666667 692 708 c 0
 690 706.666666667 689 705 689 703 c 128
 689 701 690 699.333333333 692 698 c 0
 710.666666667 687.333333333 729.833333333 674.833333333 749.5 660.5 c 128
 769.166666667 646.166666667 792.5 626.833333333 819.5 602.5 c 128
 846.5 578.166666667 870.166666667 553 890.5 527 c 128
 910.833333333 501 928.166666667 470.833333333 942.5 436.5 c 128
 956.833333333 402.166666667 964 368 964 334 c 0
 964 265.333333333 943 204.166666667 901 150.5 c 128
 859 96.8333333333 805.833333333 56.3333333333 741.5 29 c 128
 677.166666667 1.66666666667 608.666666667 -12 536 -12 c 0
 482.666666667 -12 432.666666667 -6.5 386 4.5 c 128
 339.333333333 15.5 296 32.8333333333 256 56.5 c 128
 216 80.1666666667 184.333333333 113.333333333 161 156 c 128
 137.666666667 198.666666667 126 248.666666667 126 306 c 0
 126 382.666666667 151.5 447.666666667 202.5 501 c 128
 253.5 554.333333333 313.333333333 591.333333333 382 612 c 1
 386 614 384.666666667 617.333333333 378 622 c 0
 373.333333333 626 363.666666667 634.166666667 349 646.5 c 128
 334.333333333 658.833333333 322.5 668.666666667 313.5 676 c 128
 304.5 683.333333333 292.5 694.333333333 277.5 709 c 128
 262.5 723.666666667 250.166666667 737 240.5 749 c 128
 230.833333333 761 220.166666667 776 208.5 794 c 128
 196.833333333 812 187.5 829.5 180.5 846.5 c 128
 173.5 863.5 167.666666667 883 163 905 c 128
 158.333333333 927 156 949.333333333 156 972 c 0
 156 1028.66666667 175 1079.83333333 213 1125.5 c 128
 251 1171.16666667 299.166666667 1206 357.5 1230 c 128
 415.833333333 1254 476.666666667 1266 540 1266 c 155
EndSplineSet
EndChar
StartChar: nine
Encoding: 57 57 25
Width: 1090
Flags: HW
LayerCount: 2
Fore
SplineSet
684 624 m 1
 693.333333333 669.333333333 698 740 698 836 c 0
 698 881.333333333 695.166666667 924.5 689.5 965.5 c 128
 683.833333333 1006.5 674.833333333 1045.66666667 662.5 1083 c 128
 650.166666667 1120.33333333 632.666666667 1150.16666667 610 1172.5 c 128
 587.333333333 1194.83333333 560.666666667 1206 530 1206 c 0
 490 1206 457 1179.33333333 431 1126 c 128
 405 1072.66666667 392 1002 392 914 c 0
 392 853.333333333 397.833333333 799.5 409.5 752.5 c 128
 421.166666667 705.5 441.833333333 666 471.5 634 c 128
 501.166666667 602 538.666666667 586 584 586 c 0
 598.666666667 586 615.833333333 589.166666667 635.5 595.5 c 128
 655.166666667 601.833333333 671.333333333 611.333333333 684 624 c 1
202 40 m 1
 437.333333333 137.333333333 590 296.666666667 660 518 c 1
 602 484.666666667 547.333333333 468 496 468 c 0
 445.333333333 468 398.833333333 475.166666667 356.5 489.5 c 128
 314.166666667 503.833333333 275.666666667 526.166666667 241 556.5 c 128
 206.333333333 586.833333333 179.166666667 628.166666667 159.5 680.5 c 128
 139.833333333 732.833333333 130 794 130 864 c 0
 130 940 150.333333333 1011 191 1077 c 128
 231.666666667 1143 284.5 1195 349.5 1233 c 128
 414.5 1271 482 1290 552 1290 c 0
 624.666666667 1290 692.666666667 1266.83333333 756 1220.5 c 128
 819.333333333 1174.16666667 869.166666667 1112.83333333 905.5 1036.5 c 128
 941.833333333 960.166666667 960 879.333333333 960 794 c 0
 960 691.333333333 938 593.5 894 500.5 c 128
 850 407.5 794.666666667 326 728 256 c 0
 674 199.333333333 614.166666667 150.833333333 548.5 110.5 c 128
 482.833333333 70.1666666667 423.833333333 41.3333333333 371.5 24 c 128
 319.166666667 6.66666666667 267.333333333 -5.33333333333 216 -12 c 1
 202 -1.33333333333 197.333333333 16 202 40 c 1
EndSplineSet
EndChar
StartChar: colon
Encoding: 58 58 26
Width: 524
Flags: HW
LayerCount: 2
Fore
SplineSet
112 716 m 0
 112 756 126.666666667 790.333333333 156 819 c 128
 185.333333333 847.666666667 220.666666667 862 262 862 c 128
 303.333333333 862 338.666666667 846.833333333 368 816.5 c 128
 397.333333333 786.166666667 412 750.666666667 412 710 c 0
 412 670 397.5 635.333333333 368.5 606 c 128
 339.5 576.666666667 304.666666667 562 264 562 c 0
 222 562 186.166666667 577 156.5 607 c 128
 126.833333333 637 112 673.333333333 112 716 c 0
112 132 m 0
 112 172 126.666666667 206.333333333 156 235 c 128
 185.333333333 263.666666667 220.666666667 278 262 278 c 128
 303.333333333 278 338.666666667 262.833333333 368 232.5 c 128
 397.333333333 202.166666667 412 166.666666667 412 126 c 0
 412 86 397.5 51.3333333333 368.5 22 c 128
 339.5 -7.33333333333 304.666666667 -22 264 -22 c 0
 222 -22 186.166666667 -7 156.5 23 c 128
 126.833333333 53 112 89.3333333333 112 132 c 0
EndSplineSet
Substitution2: "'smcp' Lowercase to Small Capitals in Latin lookup 0 subtable" colon.sc
EndChar
StartChar: semicolon
Encoding: 59 59 27
Width: 248
Flags: W
HStem: 274 147<72 169>
VStem: 48 144<298 400> 107 85<-35 68>
LayerCount: 2
Fore
SplineSet
136 136 m 0xa0
 153 136 168 128 179 120 c 1
 187 105 192 80 192 57 c 0
 192 -36 127 -119 59 -153 c 1
 48 -150 38 -136 38 -130 c 1
 57 -118 107 -74 107 -26 c 0
 107 6 61 3 61 66 c 0
 61 82 75 136 136 136 c 0xa0
48 351 m 0xc0
 48 390 82 422 122 422 c 27
 161 422 191 390 191 351 c 0
 191 312 162 274 122 274 c 27
 81 274 48 312 48 351 c 0xc0
EndSplineSet
Substitution2: "'smcp' Lowercase to Small Capitals in Latin lookup 0 subtable" semicolon.sc
EndChar
StartChar: less
Encoding: 60 60 28
Width: 483
Flags: HW
LayerCount: 2
Fore
SplineSet
434 44 m 0
 434 37 424 -15 418 -15 c 0
 417 -15 415 -14 413 -13 c 2
 47 173 l 2
 32 181 29 195 29 212 c 0
 29 223 37 230 47 235 c 2
 411 418 l 2
 413 419 415 420 416 420 c 0
 419 420 426 400 433 364 c 0
 434 358 430 355 430 355 c 1
 119 204 l 1
 431 50 l 1
 431 50 434 49 434 44 c 0
EndSplineSet
Substitution2: "'smcp' Lowercase to Small Capitals in Latin lookup 0 subtable" less.sc
EndChar
StartChar: equal
Encoding: 61 61 29
Width: 545
Flags: HW
LayerCount: 2
Fore
SplineSet
465 131 m 1
 69 131 l 1
 66 132 65 137 65 145 c 128
 65 153 68 161 72 171 c 128
 76 181 80 186 84 188 c 1
 478 188 l 1
 482 187 484 183 484 175 c 128
 484 167 482 159 478 149 c 128
 474 139 469 133 465 131 c 1
465 271 m 1
 69 271 l 1
 66 272 65 277 65 285 c 128
 65 293 68 302 72 312 c 128
 76 322 80 327 84 329 c 1
 478 329 l 1
 482 328 484 324 484 316 c 128
 484 308 482 300 478 290 c 128
 474 280 469 273 465 271 c 1
EndSplineSet
Substitution2: "'smcp' Lowercase to Small Capitals in Latin lookup 0 subtable" equal.sc
EndChar
StartChar: greater
Encoding: 62 62 30
Width: 990
Flags: HW
LayerCount: 2
Fore
SplineSet
102 90 m 0
 102 92.6666666667 102.5 95 103.5 97 c 128
 104.5 99 105.5 100.333333333 106.5 101 c 2
 108 102 l 1
 746 418 l 1
 110 728 l 2
 109 729 109 729 108 730 c 128
 107.333333333 730.666666667 106.333333333 732.666666667 105 736 c 128
 103.666666667 739.333333333 103.333333333 742.666666667 104 746 c 0
 118.666666667 822 130 860 138 860 c 0
 139.333333333 860 142.666666667 858.666666667 148 856 c 2
 894 482 l 2
 918 470 930 454 930 434 c 0
 930 393.333333333 918 366.666666667 894 354 c 2
 144 -26 l 2
 138.666666667 -28.6666666667 135.333333333 -30 134 -30 c 0
 128.666666667 -30 122 -12.5 114 22.5 c 128
 106 57.5 102 80 102 90 c 0
EndSplineSet
Substitution2: "'smcp' Lowercase to Small Capitals in Latin lookup 0 subtable" greater.sc
EndChar
StartChar: question
Encoding: 63 63 31
Width: 389
Flags: HW
LayerCount: 2
Fore
SplineSet
65 64 m 0
 65 84 72 101 86 115 c 128
 100 129 117 136 136 136 c 0
 157 136 174 129 188 115 c 128
 202 101 209 84 209 64 c 0
 209 44 203 27 189 12 c 128
 175 -3 159 -11 140 -11 c 0
 121 -11 103 -3 88 11 c 128
 73 25 65 43 65 64 c 0
113 506 m 0
 95 506 81 512 70 525 c 128
 59 538 53 553 53 570 c 0
 53 578 54 588 57 597 c 128
 60 606 63 612 67 615 c 1
 87 626 116 632 155 632 c 0
 165 632 178 630 193 627 c 128
 208 624 226 618 245 610 c 128
 264 602 282 591 298 579 c 128
 314 567 329 551 340 530 c 128
 351 509 356 486 356 460 c 0
 356 450 355 440 353 430 c 128
 351 420 348 412 345 405 c 128
 342 398 337 391 331 383 c 128
 325 375 319 369 315 364 c 128
 311 359 304 355 295 348 c 128
 286 341 279 337 275 334 c 128
 271 331 263 327 253 321 c 128
 243 315 236 311 233 309 c 0
 229 307 223 302 213 296 c 128
 203 290 195 286 189 282 c 128
 183 278 177 273 170 267 c 128
 163 261 157 256 153 250 c 0
 152 248 151 246 150 243 c 128
 149 240 149 237 149 234 c 128
 149 231 148 228 148 225 c 128
 148 222 148 220 148 216 c 128
 148 212 148 210 148 209 c 0
 147 206 145 202 142 198 c 128
 139 194 136 191 134 191 c 0
 127 191 119 195 111 203 c 1
 106 213 102 227 98 246 c 128
 94 265 92 283 92 301 c 0
 92 314 94 326 98 338 c 128
 102 350 109 360 118 369 c 128
 127 378 135 386 142 392 c 128
 149 398 159 405 170 412 c 0
 239 458 273 494 273 520 c 0
 273 532 268 542 259 552 c 128
 250 562 237 566 221 566 c 0
 213 566 204 563 195 557 c 128
 186 551 177 543 169 536 c 128
 161 529 152 521 142 515 c 128
 132 509 122 506 113 506 c 0
EndSplineSet
Substitution2: "'smcp' Lowercase to Small Capitals in Latin lookup 0 subtable" question.sc
EndChar
StartChar: at
Encoding: 64 64 32
Width: 749
Flags: W
HStem: -121 20<259 285> -7 61<475 575> -5 97<244 354> 380 53<386 491> 525 39<332 539>
VStem: 45 47<54 278> 174 120<97 213> 403 119<54 158> 672 43<167 392>
LayerCount: 2
Fore
SplineSet
436 564 m 0xdf80
 627 564 715 435 715 283 c 0
 715 134 613 -7 499 -7 c 0xdf80
 451 -7 403 17 403 77 c 0
 403 85 404 97 407 105 c 1
 388 69 329 -5 269 -5 c 3xbf80
 219 -5 174 15 174 117 c 3
 174 260 335 433 474 433 c 0
 508 433 561 427 580 420 c 9
 525 124 l 2
 524 120 522 105 522 100 c 0
 522 86 519 54 545 54 c 0
 594 54 672 154 672 276 c 0
 672 408 606 525 436 525 c 0
 237 525 92 336 92 166 c 0
 92 52 154 -34 224 -75 c 0
 259 -96 280 -99 299 -102 c 1
 299 -110 276 -121 260 -121 c 0
 243 -121 229 -117 216 -112 c 0
 126 -79 45 23 45 161 c 0
 45 352 209 564 436 564 c 0xdf80
433 380 m 3
 352 380 294 257 294 145 c 0
 294 109 311 92 333 92 c 3xbf80
 374 92 417 161 438 268 c 2
 458 367 l 17
 449 377 446 380 433 380 c 3
EndSplineSet
Substitution2: "'smcp' Lowercase to Small Capitals in Latin lookup 0 subtable" at.sc
EndChar
StartChar: A
Encoding: 65 65 33
Width: 659
Flags: HW
LayerCount: 2
Fore
SplineSet
92 131 m 2
 300 609 l 2
 303 616 309 624 317 633 c 128
 325 642 331 646 336 646 c 0
 340 646 345 645 349 644 c 128
 353 643 355 642 356 640 c 2
 557 145 l 2
 562 134 566 121 572 106 c 128
 578 91 581 81 584 74 c 0
 588 65 594 57 602 51 c 128
 610 45 617 40 626 38 c 128
 635 36 642 34 647 33 c 128
 652 32 657 32 661 32 c 1
 663 28 665 21 665 12 c 128
 665 3 665 -2 663 -4 c 1
 657 -4 638 -2 606 0 c 128
 574 2 549 4 532 4 c 0
 519 4 503 3 485 2 c 128
 467 1 447 0 426 -1 c 128
 405 -2 391 -4 385 -4 c 1
 382 -1 381 5 381 16 c 128
 381 27 382 32 385 32 c 0
 394 32 405 34 416 37 c 128
 427 40 435 44 442 50 c 0
 448 55 451 60 451 66 c 0
 451 69 447 82 437 107 c 128
 427 132 417 157 407 180 c 2
 393 215 l 1
 390 218 388 219 386 219 c 0
 374 220 342 220 292 220 c 0
 247 220 213 220 190 219 c 0
 187 219 186 217 184 214 c 0
 168 178 155 150 148 132 c 0
 134 96 127 73 127 65 c 0
 127 59 130 55 137 50 c 128
 144 45 153 41 162 39 c 128
 171 37 180 35 187 34 c 128
 194 33 199 32 202 32 c 1
 205 28 206 22 206 13 c 128
 206 4 205 -2 203 -4 c 1
 157 1 123 4 98 4 c 0
 73 4 37 1 -9 -4 c 1
 -11 -2 -12 3 -13 11 c 128
 -14 19 -13 25 -11 31 c 1
 -4 31 8 35 25 42 c 128
 42 49 53 55 58 62 c 0
 69 80 80 104 92 131 c 2
288 465 m 1
 205 273 l 1
 205 270 206 270 207 270 c 0
 227 268 253 267 288 267 c 0
 320 267 346 268 366 269 c 0
 367 269 368 269 368 270 c 128
 368 271 369 271 369 272 c 2
 369 273 l 1
 288 465 l 1
EndSplineSet
Substitution2: "'c2sc' Capitals to Small Capitals in Latin lookup 0 subtable" a.sc
EndChar
StartChar: B
Encoding: 66 66 34
Width: 604
Flags: W
HStem: -3 41<36 103 253 372> 324 38<245 344> 605 39<36 102 247 347>
VStem: 108 137<50 324 362 602> 379 145<424 566> 417 153<110 262>
LayerCount: 2
Fore
SplineSet
245 324 m 1xf4
 245 106 l 2
 245 100 244 62 252 50 c 0
 260 39 289 38 314 38 c 0
 359 38 417 71 417 172 c 0
 417 245 388 324 295 324 c 2
 245 324 l 1xf4
245 362 m 1
 295 362 l 2
 344 362 379 403 379 476 c 0xf8
 379 569 348 605 298 605 c 0
 276 605 254 605 249 594 c 0
 244 582 245 562 245 534 c 2
 245 362 l 1
327 645 m 0
 418 645 524 603 524 490 c 0xf8
 524 412 444 367 418 357 c 0
 410 354 412 352 413 352 c 0
 462 346 571 290 571 188 c 0xf4
 571 124 529 65 468 29 c 0
 410 -5 337 -4 265 -3 c 0
 224 -3 75 -2 37 -3 c 1
 33 3 32 26 37 33 c 1
 50 34 95 37 100 50 c 0
 108 70 108 100 108 142 c 2
 108 501 l 2
 108 543 108 573 100 593 c 0
 95 606 50 607 37 608 c 1
 32 615 33 639 37 645 c 1
 81 642 136 642 177 642 c 0
 218 642 270 645 327 645 c 0
EndSplineSet
Substitution2: "'c2sc' Capitals to Small Capitals in Latin lookup 0 subtable" b.sc
EndChar
StartChar: C
Encoding: 67 67 35
Width: 1348
Flags: HW
LayerCount: 2
Fore
SplineSet
772 1334 m 0
 924.666666667 1334 1063.33333333 1321.33333333 1188 1296 c 0
 1188 1295.33333333 1199.33333333 1247.16666667 1222 1151.5 c 128
 1244.66666667 1055.83333333 1256 1003.33333333 1256 994 c 0
 1256 988 1250.33333333 981.5 1239 974.5 c 128
 1227.66666667 967.5 1216 964 1204 964 c 0
 1190.66666667 964 1181.33333333 966.666666667 1176 972 c 1
 1171.33333333 991.333333333 1164.66666667 1011 1156 1031 c 128
 1147.33333333 1051 1132.83333333 1074.66666667 1112.5 1102 c 128
 1092.16666667 1129.33333333 1068.66666667 1153.16666667 1042 1173.5 c 128
 1015.33333333 1193.83333333 980 1211.33333333 936 1226 c 128
 892 1240.66666667 843.333333333 1248 790 1248 c 0
 722 1248 662.166666667 1233 610.5 1203 c 128
 558.833333333 1173 518.166666667 1132 488.5 1080 c 128
 458.833333333 1028 436.666666667 970.5 422 907.5 c 128
 407.333333333 844.5 400 776.666666667 400 704 c 0
 400 623.333333333 408.5 546.5 425.5 473.5 c 128
 442.5 400.5 467.666666667 333.666666667 501 273 c 128
 534.333333333 212.333333333 579.333333333 164 636 128 c 128
 692.666666667 92 757.333333333 74 830 74 c 0
 933.333333333 74 1016 102.666666667 1078 160 c 0
 1103.33333333 182.666666667 1127.5 214.166666667 1150.5 254.5 c 128
 1173.5 294.833333333 1189.83333333 327.666666667 1199.5 353 c 128
 1209.16666667 378.333333333 1215.33333333 396.666666667 1218 408 c 1
 1246.66666667 408 1270 400 1288 384 c 1
 1288 365.333333333 1277.5 311.333333333 1256.5 222 c 128
 1235.5 132.666666667 1218.66666667 85.3333333333 1206 80 c 0
 1148 58.6666666667 1103.5 43 1072.5 33 c 128
 1041.5 23 997.333333333 12.6666666667 940 2 c 128
 882.666666667 -8.66666666667 825.333333333 -14 768 -14 c 0
 644 -14 529.5 14.1666666667 424.5 70.5 c 128
 319.5 126.833333333 235.833333333 205.666666667 173.5 307 c 128
 111.166666667 408.333333333 80 520.666666667 80 644 c 0
 80 738.666666667 98.3333333333 828.666666667 135 914 c 128
 171.666666667 999.333333333 221 1072.66666667 283 1134 c 128
 345 1195.33333333 418.666666667 1244 504 1280 c 128
 589.333333333 1316 678.666666667 1334 772 1334 c 0
EndSplineSet
Substitution2: "'c2sc' Capitals to Small Capitals in Latin lookup 0 subtable" c.sc
EndChar
StartChar: D
Encoding: 68 68 36
Width: 1522
Flags: HW
LayerCount: 2
Fore
SplineSet
501 1094 m 2
 501 282 l 2
 501 203.333333333 506.333333333 150.666666667 517 124 c 0
 523 110.666666667 538.666666667 99.6666666667 564 91 c 128
 589.333333333 82.3333333333 615.666666667 78 643 78 c 0
 805.666666667 78 925.666666667 124.5 1003 217.5 c 128
 1080.33333333 310.5 1119 454.666666667 1119 650 c 0
 1119 840 1072.66666667 985.833333333 980 1087.5 c 128
 887.333333333 1189.16666667 764.333333333 1240 611 1240 c 0
 551.666666667 1240 518.333333333 1232 511 1216 c 0
 504.333333333 1200 501 1159.33333333 501 1094 c 2
669 1320 m 1
 823 1320 957.5 1294.66666667 1072.5 1244 c 128
 1187.5 1193.33333333 1277 1119 1341 1021 c 128
 1405 923 1437 806.666666667 1437 672 c 0
 1437 580.666666667 1423.66666667 497.333333333 1397 422 c 128
 1370.33333333 346.666666667 1333.33333333 282.833333333 1286 230.5 c 128
 1238.66666667 178.166666667 1182.16666667 134 1116.5 98 c 128
 1050.83333333 62 979.5 35.6666666667 902.5 19 c 128
 825.5 2.33333333333 743 -6 655 -6 c 2
 77 -6 l 1
 73 0 70.8333333333 12 70.5 30 c 128
 70.1666666667 48 72.3333333333 60.6666666667 77 68 c 1
 155.666666667 74 198.333333333 85.3333333333 205 102 c 0
 215.666666667 128.666666667 221 191.333333333 221 290 c 2
 221 1026 l 2
 221 1124.66666667 215.666666667 1187.33333333 205 1214 c 0
 199 1229.33333333 156.333333333 1240 77 1246 c 1
 72.3333333333 1253.33333333 70.1666666667 1266 70.5 1284 c 128
 70.8333333333 1302 73 1314 77 1320 c 1
 137 1316 232.333333333 1314 363 1314 c 0
 395 1314 447.5 1314.83333333 520.5 1316.5 c 128
 593.5 1318.16666667 643 1319.33333333 669 1320 c 1
EndSplineSet
Substitution2: "'c2sc' Capitals to Small Capitals in Latin lookup 0 subtable" d.sc
EndChar
StartChar: E
Encoding: 69 69 37
Width: 1204
Flags: HW
LayerCount: 2
Fore
SplineSet
363 1314 m 0
 395 1314 505.166666667 1316.16666667 693.5 1320.5 c 128
 881.833333333 1324.83333333 988.333333333 1327.33333333 1013 1328 c 1
 1017 1298 1022.33333333 1266.33333333 1029 1233 c 128
 1035.66666667 1199.66666667 1043.5 1162.16666667 1052.5 1120.5 c 128
 1061.5 1078.83333333 1067.66666667 1049.33333333 1071 1032 c 1
 1064.33333333 1025.33333333 1049 1022 1025 1022 c 0
 1007.66666667 1022 997 1027.33333333 993 1038 c 0
 981 1069.33333333 969.333333333 1095.66666667 958 1117 c 128
 946.666666667 1138.33333333 932.5 1159.16666667 915.5 1179.5 c 128
 898.5 1199.83333333 878.5 1215 855.5 1225 c 128
 832.5 1235 806.333333333 1240 777 1240 c 2
 611 1240 l 2
 551.666666667 1240 518.333333333 1232 511 1216 c 0
 504.333333333 1200 501 1159.33333333 501 1094 c 2
 501 736 l 2
 501 730 509.833333333 724.833333333 527.5 720.5 c 128
 545.166666667 716.166666667 565 714 587 714 c 2
 693 714 l 2
 751.666666667 714 791.666666667 722.666666667 813 740 c 128
 834.333333333 757.333333333 853 795.333333333 869 854 c 1
 871 864.666666667 879 870 893 870 c 0
 911.666666667 870 924.333333333 866.666666667 931 860 c 1
 931 476 l 1
 925.666666667 470.666666667 913.666666667 468 895 468 c 0
 878.333333333 468 869 473.333333333 867 484 c 1
 849.666666667 552 826.333333333 592.666666667 797 606 c 1
 774.333333333 615.333333333 723.666666667 620 645 620 c 0
 549 620 501 610.666666667 501 592 c 2
 501 282 l 2
 501 203.333333333 506.333333333 150.666666667 517 124 c 0
 522.333333333 111.333333333 538 101.5 564 94.5 c 128
 590 87.5 617.666666667 84 647 84 c 2
 779 84 l 2
 859 84 921 106 965 150 c 0
 1003.66666667 188.666666667 1039.66666667 252 1073 340 c 1
 1075 348 1084.33333333 352 1101 352 c 0
 1111.66666667 352 1123.66666667 350.666666667 1137 348 c 128
 1150.33333333 345.333333333 1158.33333333 342.666666667 1161 340 c 1
 1158.33333333 332 1150.5 310 1137.5 274 c 128
 1124.5 238 1115.16666667 211.666666667 1109.5 195 c 128
 1103.83333333 178.333333333 1096.33333333 155.666666667 1087 127 c 128
 1077.66666667 98.3333333333 1070.33333333 73.5 1065 52.5 c 128
 1059.66666667 31.5 1055.66666667 12.6666666667 1053 -4 c 1
 454.333333333 -4 129 -4.66666666667 77 -6 c 1
 73 0 70.8333333333 12 70.5 30 c 128
 70.1666666667 48 72.3333333333 60.6666666667 77 68 c 1
 155.666666667 74 198.333333333 85.3333333333 205 102 c 0
 215.666666667 128.666666667 221 191.333333333 221 290 c 2
 221 1026 l 2
 221 1124.66666667 215.666666667 1187.33333333 205 1214 c 0
 199 1229.33333333 156.333333333 1240 77 1246 c 1
 72.3333333333 1253.33333333 70.1666666667 1266 70.5 1284 c 128
 70.8333333333 1302 73 1314 77 1320 c 1
 137 1316 232.333333333 1314 363 1314 c 0
EndSplineSet
Substitution2: "'c2sc' Capitals to Small Capitals in Latin lookup 0 subtable" e.sc
EndChar
StartChar: F
Encoding: 70 70 38
Width: 1098
Flags: HW
LayerCount: 2
Fore
SplineSet
363 1314 m 0
 395 1314 505.166666667 1316.16666667 693.5 1320.5 c 128
 881.833333333 1324.83333333 988.333333333 1327.33333333 1013 1328 c 1
 1017 1298 1022.33333333 1266.33333333 1029 1233 c 128
 1035.66666667 1199.66666667 1043.5 1162.16666667 1052.5 1120.5 c 128
 1061.5 1078.83333333 1067.66666667 1049.33333333 1071 1032 c 1
 1064.33333333 1025.33333333 1049 1022 1025 1022 c 0
 1007.66666667 1022 997 1027.33333333 993 1038 c 0
 981 1069.33333333 969.333333333 1095.66666667 958 1117 c 128
 946.666666667 1138.33333333 932.5 1159.16666667 915.5 1179.5 c 128
 898.5 1199.83333333 878.5 1215 855.5 1225 c 128
 832.5 1235 806.333333333 1240 777 1240 c 2
 611 1240 l 2
 551.666666667 1240 518.333333333 1232 511 1216 c 0
 504.333333333 1200 501 1159.33333333 501 1094 c 2
 501 728 l 2
 501 722 509.833333333 716.833333333 527.5 712.5 c 128
 545.166666667 708.166666667 565 706 587 706 c 2
 693 706 l 2
 751.666666667 706 791.666666667 714.666666667 813 732 c 128
 834.333333333 749.333333333 853 787.333333333 869 846 c 1
 871 856.666666667 879 862 893 862 c 0
 911.666666667 862 924.333333333 858.666666667 931 852 c 1
 931 468 l 1
 925.666666667 462.666666667 913.666666667 460 895 460 c 0
 878.333333333 460 869 465.333333333 867 476 c 1
 849.666666667 544 826.333333333 584.666666667 797 598 c 1
 774.333333333 607.333333333 723.666666667 612 645 612 c 0
 549 612 501 602.666666667 501 584 c 2
 501 290 l 2
 501 191.333333333 506.333333333 128.666666667 517 102 c 0
 523.666666667 84.6666666667 572.333333333 72.6666666667 663 66 c 1
 667.666666667 58.6666666667 669.833333333 46 669.5 28 c 128
 669.166666667 10 667 -2 663 -8 c 1
 571.666666667 1.33333333333 470.333333333 6 359 6 c 0
 262.333333333 6 168.333333333 1.33333333333 77 -8 c 1
 73 -2 70.8333333333 10 70.5 28 c 128
 70.1666666667 46 72.3333333333 58.6666666667 77 66 c 1
 155.666666667 72 198.333333333 84 205 102 c 0
 215.666666667 128.666666667 221 191.333333333 221 290 c 2
 221 1026 l 2
 221 1124.66666667 215.666666667 1187.33333333 205 1214 c 0
 199 1229.33333333 156.333333333 1240 77 1246 c 1
 72.3333333333 1253.33333333 70.1666666667 1266 70.5 1284 c 128
 70.8333333333 1302 73 1314 77 1320 c 1
 137 1316 232.333333333 1314 363 1314 c 0
EndSplineSet
Substitution2: "'c2sc' Capitals to Small Capitals in Latin lookup 0 subtable" f.sc
EndChar
StartChar: G
Encoding: 71 71 39
Width: 705
Flags: W
HStem: -7 42<323 483> 255 36<415 477 634 688> 609 42<301 483>
VStem: 39 156<201 428> 487 135<46 242>
LayerCount: 2
Fore
SplineSet
487 179 m 0
 487 199 488 208 482 229 c 0
 475 253 430 255 418 255 c 0
 413 255 412 286 417 291 c 1
 467 289 516 285 566 285 c 0
 607 285 648 289 687 291 c 1
 691 278 689 255 686 255 c 1
 678 255 645 249 634 242 c 0
 628 238 622 219 622 200 c 0
 622 164 622 129 622 96 c 0
 622 87 628 72 628 67 c 0
 628 56 607 47 594 42 c 0
 532 19 465 -7 375 -7 c 0
 190 -7 39 129 39 314 c 0
 39 497 191 651 377 651 c 0
 441 651 522 645 580 633 c 1
 582 622 613 497 613 485 c 0
 613 479 600 471 588 471 c 3
 583 471 578 471 574 475 c 1
 564 513 526 609 388 609 c 0
 243 609 195 476 195 339 c 0
 195 187 264 35 402 35 c 0
 439 35 461 43 479 51 c 0
 483 53 487 56 487 65 c 0
 487 80 487 132 487 179 c 0
EndSplineSet
Substitution2: "'c2sc' Capitals to Small Capitals in Latin lookup 0 subtable" g.sc
EndChar
StartChar: H
Encoding: 72 72 40
Width: 723
Flags: HW
LayerCount: 2
Fore
SplineSet
177 640 m 0
 224 640 270 641 315 646 c 1
 317 643 318 638 318 629 c 128
 318 620 317 614 315 610 c 1
 277 607 255 602 252 593 c 0
 247 580 245 549 245 501 c 2
 245 362 l 1
 247 359 l 1
 323 357 362 356 365 356 c 0
 371 356 409 357 479 359 c 1
 480 360 481 362 481 363 c 2
 480 501 l 1
 480 549 477 580 472 593 c 0
 469 602 448 607 410 610 c 1
 408 614 406 620 406 629 c 128
 406 638 408 643 410 646 c 1
 455 641 500 640 549 640 c 0
 596 640 642 641 687 646 c 1
 689 643 690 638 690 629 c 128
 690 620 689 614 687 610 c 1
 649 607 628 602 625 593 c 0
 620 580 617 549 617 501 c 2
 617 142 l 2
 617 94 620 63 625 50 c 0
 628 41 649 35 687 32 c 1
 689 28 690 23 690 14 c 128
 690 5 689 -1 687 -4 c 1
 642 1 596 3 547 3 c 0
 500 3 455 1 410 -4 c 1
 408 -1 406 5 406 14 c 128
 406 23 408 28 410 32 c 1
 448 35 469 41 472 50 c 0
 477 63 480 94 480 142 c 2
 480 303 l 1
 478 308 l 1
 430 309 392 310 365 310 c 0
 289 310 250 309 246 306 c 1
 245 302 l 1
 245 142 l 2
 245 94 247 63 252 50 c 0
 255 41 277 35 315 32 c 1
 317 28 318 23 318 14 c 128
 318 5 317 -1 315 -4 c 1
 270 1 224 3 175 3 c 0
 128 3 83 1 38 -4 c 1
 36 -1 34 5 34 14 c 128
 34 23 36 28 38 32 c 1
 76 35 97 41 100 50 c 0
 105 63 108 94 108 142 c 2
 108 501 l 2
 108 549 105 580 100 593 c 0
 97 602 76 607 38 610 c 1
 36 614 34 620 34 629 c 128
 34 638 36 643 38 646 c 1
 83 641 128 640 177 640 c 0
EndSplineSet
Substitution2: "'c2sc' Capitals to Small Capitals in Latin lookup 0 subtable" h.sc
EndChar
StartChar: I
Encoding: 73 73 41
Width: 351
Flags: W
HStem: -4 36<35 100 252 317> 610 36<35 100 252 317>
VStem: 108 137<40 602>
LayerCount: 2
Fore
SplineSet
177 640 m 0
 218 640 277 642 315 646 c 1
 319 640 320 617 315 610 c 1
 302 609 257 606 252 593 c 0
 244 573 245 543 245 501 c 2
 245 142 l 2
 245 100 244 70 252 50 c 0
 257 37 302 33 315 32 c 1
 320 25 319 2 315 -4 c 1
 277 0 216 3 175 3 c 0
 134 3 75 0 37 -4 c 1
 33 2 32 25 37 32 c 1
 50 33 95 37 100 50 c 0
 108 70 108 100 108 142 c 2
 108 501 l 2
 108 543 108 573 100 593 c 0
 95 606 50 609 37 610 c 1
 32 617 33 640 37 646 c 1
 75 642 136 640 177 640 c 0
EndSplineSet
Substitution2: "'c2sc' Capitals to Small Capitals in Latin lookup 0 subtable" i.sc
EndChar
StartChar: J
Encoding: 74 74 42
Width: 336
Flags: HW
LayerCount: 2
Fore
SplineSet
171 640 m 0
 219 640 265 641 309 646 c 1
 311 643 312 638 312 629 c 128
 312 620 311 614 309 610 c 1
 271 607 249 602 246 593 c 0
 241 580 238 549 238 501 c 2
 238 140 l 2
 238 29 213 -58 161 -120 c 128
 109 -182 39 -213 -51 -213 c 0
 -60 -213 -70 -211 -82 -207 c 128
 -94 -203 -101 -199 -106 -195 c 0
 -106 -194 -107 -193 -109 -191 c 128
 -111 -189 -113 -187 -113 -186 c 128
 -113 -185 -114 -183 -115 -181 c 128
 -116 -179 -117 -177 -118 -175 c 128
 -119 -173 -119 -171 -120 -169 c 128
 -121 -167 -122 -163 -122 -161 c 128
 -122 -159 -122 -156 -122 -153 c 0
 -122 -136 -116 -121 -104 -108 c 128
 -92 -95 -78 -88 -63 -88 c 0
 -47 -88 -29 -99 -8 -120 c 0
 -7 -121 -5 -122 -3 -125 c 128
 -1 -128 1 -129 2 -130 c 128
 3 -131 3 -132 6 -135 c 128
 8 -137 10 -138 11 -139 c 128
 12 -140 14 -141 16 -143 c 128
 18 -145 19 -145 20 -146 c 128
 21 -147 23 -148 25 -149 c 128
 27 -150 28 -152 29 -152 c 128
 30 -152 32 -153 33 -153 c 128
 34 -153 36 -153 38 -153 c 0
 45 -153 52 -151 58 -148 c 128
 64 -145 70 -139 74 -131 c 128
 78 -123 82 -115 85 -106 c 128
 88 -97 91 -86 93 -71 c 128
 95 -56 97 -43 98 -30 c 128
 99 -17 100 -1 100 19 c 128
 100 39 101 58 101 73 c 128
 101 88 102 108 102 132 c 2
 102 501 l 2
 102 549 99 580 94 593 c 0
 91 602 69 607 31 610 c 1
 29 614 28 620 28 629 c 128
 28 638 29 643 31 646 c 1
 75 641 122 640 171 640 c 0
EndSplineSet
Substitution2: "'c2sc' Capitals to Small Capitals in Latin lookup 0 subtable" j.sc
EndChar
StartChar: K
Encoding: 75 75 43
Width: 702
Flags: HW
LayerCount: 2
Fore
SplineSet
177 640 m 0
 224 640 270 641 315 646 c 1
 317 643 318 638 318 629 c 128
 318 620 317 614 315 610 c 1
 277 607 255 602 252 593 c 0
 247 580 245 549 245 501 c 2
 245 329 l 1
 291 365 324 395 346 418 c 0
 357 429 357 429 377 449 c 128
 391 463 400 472 405 478 c 128
 410 484 418 490 427 500 c 128
 436 510 444 520 451 528 c 128
 458 536 465 546 473 557 c 0
 480 565 483 576 483 589 c 0
 483 598 477 604 465 607 c 128
 453 610 440 611 428 611 c 1
 426 615 424 620 424 628 c 128
 424 636 424 642 426 646 c 1
 433 646 447 645 465 644 c 128
 483 643 500 642 515 641 c 128
 530 640 542 640 553 640 c 0
 592 640 632 641 674 646 c 1
 676 643 676 637 676 629 c 128
 676 621 674 615 672 612 c 1
 622 606 585 592 562 569 c 0
 488 494 427 431 378 380 c 0
 373 374 372 369 375 364 c 1
 551 127 l 1
 565 110 579 95 595 82 c 128
 611 69 625 60 637 54 c 128
 649 48 662 42 674 39 c 128
 686 36 695 34 700 33 c 128
 705 32 709 32 713 32 c 1
 715 28 716 21 716 12 c 128
 716 3 714 -2 713 -4 c 1
 675 -7 633 -8 585 -8 c 0
 551 -8 521 0 496 14 c 128
 471 28 451 45 436 65 c 0
 429 75 414 96 392 125 c 128
 370 154 347 186 320 221 c 128
 293 256 274 281 264 295 c 1
 261 298 258 299 254 299 c 0
 249 299 247 297 245 293 c 1
 245 142 l 2
 245 94 247 63 252 50 c 0
 255 41 277 35 315 32 c 1
 317 28 318 23 318 14 c 128
 318 5 317 -1 315 -4 c 1
 270 1 224 3 175 3 c 0
 128 3 83 1 38 -4 c 1
 36 -1 34 5 34 14 c 128
 34 23 36 28 38 32 c 1
 76 35 97 41 100 50 c 0
 105 63 108 94 108 142 c 2
 108 501 l 2
 108 549 105 580 100 593 c 0
 97 602 76 607 38 610 c 1
 36 614 34 620 34 629 c 128
 34 638 36 643 38 646 c 1
 83 641 128 640 177 640 c 0
EndSplineSet
Substitution2: "'c2sc' Capitals to Small Capitals in Latin lookup 0 subtable" k.sc
EndChar
StartChar: L
Encoding: 76 76 44
Width: 1158
Flags: W
LayerCount: 2
Fore
SplineSet
501 282 m 2,0,1
 501 164 501 164 517 124 c 0,2,3
 525 105 525 105 564 94.5 c 128,-1,4
 603 84 603 84 647 84 c 2,5,-1
 779 84 l 2,6,7
 899 84 899 84 965 150 c 0,8,9
 1023 208 1023 208 1073 340 c 1,10,11
 1076 352 1076 352 1101 352 c 0,12,13
 1117 352 1117 352 1137 348 c 128,-1,14
 1157 344 1157 344 1161 340 c 1,15,16
 1157 328 1157 328 1137.5 274 c 128,-1,17
 1118 220 1118 220 1109.5 195 c 128,-1,18
 1101 170 1101 170 1087 127 c 128,-1,19
 1073 84 1073 84 1065 52.5 c 128,-1,20
 1057 21 1057 21 1053 -4 c 1,21,22
 631 -4 631 -4 362 -5 c 0,23,24
 104 -5 104 -5 77 -6 c 1,25,26
 71 3 71 3 70.5 30 c 128,-1,27
 70 57 70 57 77 68 c 1,28,29
 195 77 195 77 205 102 c 0,30,31
 221 142 221 142 221 290 c 2,32,-1
 221 1026 l 2,33,34
 221 1174 221 1174 205 1214 c 0,35,36
 195 1241 195 1241 77 1250 c 1,37,38
 70 1261 70 1261 70.5 1288 c 128,-1,39
 71 1315 71 1315 77 1324 c 1,40,41
 214 1310 214 1310 363 1310 c 0,42,43
 508 1310 508 1310 645 1324 c 1,44,45
 651 1315 651 1315 651.5 1288 c 128,-1,46
 652 1261 652 1261 645 1250 c 1,47,48
 527 1241 527 1241 517 1214 c 0,49,50
 499 1170 499 1170 501 1026 c 1,51,-1
 501 282 l 2,0,1
EndSplineSet
Substitution2: "'c2sc' Capitals to Small Capitals in Latin lookup 0 subtable" l.sc
EndChar
StartChar: M
Encoding: 77 77 45
Width: 885
Flags: W
HStem: -4 36<18 84 191 263 571 637 797 860> 610 36<60 122 783 832>
LayerCount: 2
Fore
SplineSet
167 641 m 0
 200 641 231 644 270 646 c 1
 298 584 381 398 454 232 c 1
 454 232 457 230 458 230 c 0
 459 230 462 235 462 236 c 2
 462 236 535 416 577 533 c 24
 592 575 610 643 610 643 c 1
 619 642 696 640 715 640 c 0
 748 640 790 644 829 646 c 1
 833 642 838 617 833 609 c 1
 825 609 792 606 782 599 c 0
 772 592 768 585 769 559 c 0
 772 491 777 273 783 148 c 0
 785 110 786 75 796 50 c 0
 802 36 850 32 858 32 c 1
 862 23 863 6 860 -4 c 1
 821 -2 770 4 727 4 c 0
 682 4 618 -2 573 -4 c 1
 569 0 568 24 571 32 c 1
 583 32 631 37 640 51 c 0
 645 59 648 75 648 85 c 0
 648 95 648 127 647 145 c 2
 637 485 l 2
 637 488 637 511 630 511 c 0
 628 511 627 509 625 504 c 2
 453 39 l 2
 450 30 429 -2 411 -2 c 0
 408 -2 405 -1 402 0 c 1
 185 511 l 1
 178 308 178 284 172 131 c 0
 171 110 174 70 176 63 c 0
 182 42 253 32 261 32 c 1
 264 25 266 6 263 -4 c 1
 224 -2 185 4 142 4 c 0
 97 4 65 -2 20 -4 c 1
 16 3 16 21 19 31 c 1
 31 31 91 41 102 66 c 0
 106 76 112 136 113 152 c 0
 119 266 128 521 130 567 c 0
 130 574 130 582 125 589 c 0
 117 600 79 610 62 610 c 1
 56 618 60 644 62 646 c 1
 107 644 122 641 167 641 c 0
EndSplineSet
Substitution2: "'c2sc' Capitals to Small Capitals in Latin lookup 0 subtable" m.sc
EndChar
StartChar: N
Encoding: 78 78 46
Width: 742
Flags: W
HStem: -4 36<29 101 200 274> 610 37<35 101 478 556 642 722> 610 29<38 96>
VStem: 121 60<49 506> 569 60<243 598>
LayerCount: 2
Fore
SplineSet
147 640 m 0xb8
 181 640 223 642 254 646 c 1
 291 570 447 391 567 242 c 1
 569 249 569 268 569 282 c 2
 569 465 l 0
 569 502 565 575 558 590 c 0
 550 608 491 611 479 611 c 1
 477 611 474 638 479 647 c 1xd8
 524 645 553 640 598 640 c 0xb8
 641 640 682 645 721 647 c 1
 723 641 725 620 719 610 c 1
 711 610 646 609 638 588 c 0
 633 574 629 503 629 468 c 2
 629 136 l 2
 629 79 631 50 633 -1 c 1
 630 -4 611 -5 608 -5 c 0
 599 -5 588 5 578 18 c 2
 180 507 l 1
 180 153 l 2
 180 118 186 73 191 59 c 0
 198 40 263 33 271 33 c 1
 277 23 275 2 273 -4 c 1
 234 -2 193 4 150 4 c 0
 105 4 76 -2 31 -4 c 1
 26 5 29 32 31 32 c 1
 43 32 101 40 109 58 c 0
 116 73 121 119 121 156 c 0
 121 284 121 374 121 502 c 0
 121 529 116 571 103 590 c 0
 94 603 51 610 39 610 c 0xd8
 34 610 32 641 37 646 c 1
 67 644 102 640 147 640 c 0xb8
EndSplineSet
Substitution2: "'c2sc' Capitals to Small Capitals in Latin lookup 0 subtable" n.sc
EndChar
StartChar: O
Encoding: 79 79 47
Width: 742
Flags: HW
LayerCount: 2
Fore
SplineSet
348 609 m 3
 326 609 306 604 288 594 c 128
 270 584 255 571 244 554 c 128
 233 537 223 517 216 495 c 128
 209 473 203 450 200 427 c 128
 197 404 195 379 195 354 c 0
 195 328 197 304 200 279 c 128
 203 254 208 229 214 205 c 128
 220 181 228 158 239 137 c 128
 250 116 262 99 276 83 c 128
 290 67 307 55 327 46 c 128
 347 37 369 32 392 32 c 0
 414 32 434 37 452 47 c 128
 470 57 485 71 497 87 c 128
 509 103 518 123 526 145 c 128
 534 167 539 190 542 213 c 128
 545 236 547 260 547 285 c 0
 547 316 544 346 540 376 c 128
 536 406 529 436 519 464 c 128
 509 492 496 517 481 538 c 128
 466 559 447 577 424 590 c 128
 401 603 376 609 348 609 c 3
371 651 m 128
 413 651 454 643 495 625 c 128
 536 607 572 584 602 555 c 128
 632 526 656 490 675 449 c 128
 694 408 703 365 703 320 c 128
 703 275 694 233 675 192 c 128
 656 151 632 115 602 86 c 128
 572 57 536 33 495 16 c 128
 454 -1 413 -10 371 -10 c 128
 329 -10 288 -1 247 16 c 128
 206 33 170 57 140 86 c 128
 110 115 86 151 67 192 c 128
 48 233 39 275 39 320 c 128
 39 365 48 408 67 449 c 128
 86 490 110 526 140 555 c 128
 170 584 206 607 247 625 c 128
 288 643 329 651 371 651 c 128
EndSplineSet
Substitution2: "'c2sc' Capitals to Small Capitals in Latin lookup 0 subtable" o.sc
EndChar
StartChar: P
Encoding: 80 80 48
Width: 1170
Flags: HW
LayerCount: 2
Fore
SplineSet
1131 964 m 0
 1131 887.333333333 1111.33333333 818.666666667 1072 758 c 128
 1032.66666667 697.333333333 982.833333333 651.5 922.5 620.5 c 128
 862.166666667 589.5 797.666666667 574 729 574 c 0
 697 574 668.5 579.166666667 643.5 589.5 c 128
 618.5 599.833333333 601 610 591 620 c 128
 581 630 576 646.666666667 576 670 c 0
 576 679.333333333 578.333333333 684 583 684 c 1
 601 678.666666667 628.333333333 676 665 676 c 0
 714.333333333 676 754.666666667 700.166666667 786 748.5 c 128
 817.333333333 796.833333333 833 859.333333333 833 936 c 0
 833 1018 812.166666667 1089.16666667 770.5 1149.5 c 128
 728.833333333 1209.83333333 675.666666667 1240 611 1240 c 0
 551.666666667 1240 518.333333333 1232 511 1216 c 0
 504.333333333 1200 501 1159.33333333 501 1094 c 2
 501 290 l 2
 501 191.333333333 506.333333333 128.666666667 517 102 c 0
 523.666666667 84 566.333333333 72 645 66 c 1
 649.666666667 58.6666666667 651.833333333 46 651.5 28 c 128
 651.166666667 10 649 -2 645 -8 c 1
 553.666666667 1.33333333333 458.333333333 6 359 6 c 0
 262.333333333 6 168.333333333 1.33333333333 77 -8 c 1
 73 -2 70.8333333333 10 70.5 28 c 128
 70.1666666667 46 72.3333333333 58.6666666667 77 66 c 1
 155.666666667 72 198.333333333 84 205 102 c 0
 215.666666667 128.666666667 221 191.333333333 221 290 c 2
 221 1026 l 2
 221 1124.66666667 215.666666667 1187.33333333 205 1214 c 0
 199 1229.33333333 156.333333333 1240 77 1246 c 1
 72.3333333333 1253.33333333 70.1666666667 1266 70.5 1284 c 128
 70.8333333333 1302 73 1314 77 1320 c 1
 137 1316 232.333333333 1314 363 1314 c 0
 388.333333333 1314 435.5 1315 504.5 1317 c 128
 573.5 1319 629 1320 671 1320 c 0
 755.666666667 1320 832.333333333 1306.5 901 1279.5 c 128
 969.666666667 1252.5 1025.16666667 1211.5 1067.5 1156.5 c 128
 1109.83333333 1101.5 1131 1037.33333333 1131 964 c 0
EndSplineSet
Substitution2: "'c2sc' Capitals to Small Capitals in Latin lookup 0 subtable" p.sc
EndChar
StartChar: Q
Encoding: 81 81 49
Width: 742
Flags: W
HStem: -140 67<527 695> 609 42<282 426>
VStem: 39 156<209 434> 547 156<208 434>
LayerCount: 2
Fore
SplineSet
371 651 m 0
 543 651 703 503 703 320 c 0
 703 174 600 50 471 7 c 1
 561 -37 588 -72 688 -72 c 0
 727 -72 751 -64 758 -64 c 1
 764 -64 775 -69 780 -77 c 0
 782 -80 782 -82 782 -82 c 1
 728 -110 642 -140 582 -140 c 0
 475 -140 399 -32 294 0 c 0
 153 37 39 166 39 320 c 0
 39 503 199 651 371 651 c 0
348 609 m 0
 233 609 195 472 195 354 c 0
 195 205 246 32 392 32 c 0
 508 32 547 167 547 285 c 0
 547 434 494 609 348 609 c 0
EndSplineSet
Substitution2: "'c2sc' Capitals to Small Capitals in Latin lookup 0 subtable" q.sc
EndChar
StartChar: R
Encoding: 82 82 50
Width: 676
Flags: W
HStem: -4 36<36 98 253 316 647 713> 292 38<245 279> 605 39<36 102 247 356>
VStem: 108 137<40 292 330 602> 396 146<397 554>
LayerCount: 2
Fore
SplineSet
328 645 m 0
 450 645 541 584 541 467 c 0
 541 387 456 321 409 309 c 1
 480 213 550 127 550 127 c 1
 622 35 704 32 712 32 c 1
 717 25 713 -2 712 -4 c 1
 684 -6 624 -8 584 -8 c 0
 509 -8 459 32 435 65 c 0
 277 277 l 0
 277 277 267 292 259 292 c 0
 245 292 l 9
 245 142 l 2
 245 100 244 70 252 50 c 0
 257 37 302 33 315 32 c 1
 320 25 319 2 315 -4 c 1
 277 0 216 3 175 3 c 0
 134 3 75 0 37 -4 c 1
 33 2 32 25 37 32 c 1
 50 33 95 37 100 50 c 0
 108 70 108 100 108 142 c 2
 108 501 l 2
 108 543 108 573 100 593 c 0
 95 606 50 607 37 608 c 1
 32 615 33 639 37 645 c 1
 81 642 136 642 177 642 c 0
 218 642 270 645 328 645 c 0
396 457 m 0
 396 534 378 605 298 605 c 0
 276 605 254 605 249 594 c 0
 244 582 245 562 245 534 c 2
 245 330 l 17
 289 330 l 0
 345 330 396 382 396 457 c 0
EndSplineSet
Substitution2: "'c2sc' Capitals to Small Capitals in Latin lookup 0 subtable" r.sc
EndChar
StartChar: S
Encoding: 83 83 51
Width: 508
Flags: HW
LayerCount: 2
Fore
SplineSet
261 654 m 0
 275 654 289 653 304 651 c 128
 319 649 331 648 341 646 c 128
 351 644 365 640 384 636 c 128
 403 632 417 629 425 627 c 1
 429 586 433 532 436 465 c 1
 433 461 429 459 425 459 c 0
 407 459 397 461 396 466 c 1
 394 481 389 496 382 512 c 128
 375 528 367 545 356 560 c 128
 345 575 332 588 316 598 c 128
 300 608 284 613 266 613 c 0
 244 613 223 606 207 593 c 128
 191 580 183 558 183 528 c 0
 183 516 185 504 192 492 c 128
 199 480 207 469 215 459 c 128
 223 449 235 439 250 427 c 128
 265 415 277 405 286 398 c 128
 295 391 308 383 324 372 c 0
 327 370 334 366 344 359 c 128
 354 352 361 348 364 346 c 128
 367 344 374 339 383 332 c 128
 392 325 399 320 403 316 c 128
 409 310 409 310 420 299 c 128
 427 292 433 286 436 280 c 128
 439 274 443 267 448 258 c 128
 453 249 457 240 459 232 c 128
 461 224 463 215 465 204 c 128
 467 193 468 182 468 171 c 0
 468 136 458 105 437 77 c 128
 416 49 389 27 357 12 c 128
 325 -3 291 -10 255 -10 c 0
 204 -10 142 -1 69 16 c 1
 64 36 60 64 55 101 c 128
 50 138 47 165 46 182 c 1
 48 185 52 187 59 190 c 128
 66 193 71 195 74 195 c 0
 81 195 86 193 87 188 c 0
 89 174 94 158 103 141 c 128
 112 124 123 107 136 90 c 128
 149 73 166 59 185 48 c 128
 204 37 224 31 245 31 c 0
 272 31 295 39 313 54 c 128
 331 69 340 93 340 126 c 0
 340 134 338 143 335 152 c 128
 332 161 329 168 325 175 c 128
 321 182 315 190 307 198 c 128
 299 206 291 214 286 219 c 128
 281 224 273 231 262 239 c 128
 251 247 244 253 239 256 c 128
 234 259 226 265 215 272 c 128
 198 283 198 283 195 285 c 0
 155 312 129 332 115 344 c 0
 76 379 56 419 53 466 c 0
 53 470 53 474 53 478 c 0
 53 510 63 539 84 567 c 128
 105 595 131 617 163 632 c 128
 195 647 227 654 261 654 c 0
EndSplineSet
Substitution2: "'c2sc' Capitals to Small Capitals in Latin lookup 0 subtable" s.sc
EndChar
StartChar: T
Encoding: 84 84 52
Width: 619
Flags: W
HStem: -4 36<169 233 386 450> 599 43<100 241 378 519>
VStem: 8 38<472 525> 241 137<40 599> 573 38<472 525>
LayerCount: 2
Fore
SplineSet
472 642 m 0
 542 642 555 660 573 660 c 0
 581 660 581 659 585 657 c 1
 611 478 l 1
 608 475 592 471 583 471 c 0
 578 471 574 472 573 476 c 0
 563 539 519 599 469 599 c 2
 378 599 l 1
 378 142 l 2
 378 100 378 70 386 50 c 0
 391 37 435 33 448 32 c 1
 453 25 452 2 448 -4 c 1
 410 0 350 3 309 3 c 0
 268 3 209 0 171 -4 c 1
 167 2 166 25 171 32 c 1
 184 33 228 37 233 50 c 0
 241 70 241 100 241 142 c 2
 241 599 l 1
 150 599 l 2
 100 599 56 539 46 476 c 0
 45 472 41 471 36 471 c 0
 27 471 11 475 8 478 c 1
 34 657 l 1
 38 659 38 660 46 660 c 0
 64 660 77 642 147 642 c 0
 234 642 385 642 472 642 c 0
EndSplineSet
Substitution2: "'c2sc' Capitals to Small Capitals in Latin lookup 0 subtable" t.sc
EndChar
StartChar: U
Encoding: 85 85 53
Width: 1460
Flags: W
LayerCount: 2
Fore
SplineSet
331 1310 m 0,0,1
 476 1310 476 1310 613 1324 c 1,2,3
 619 1315 619 1315 619.5 1288 c 128,-1,4
 620 1261 620 1261 613 1250 c 1,5,6
 495 1241 495 1241 485 1214 c 0,7,8
 469 1174 469 1174 469 1026 c 2,9,-1
 469 660 l 2,10,11
 469 541 469 541 478 466 c 128,-1,12
 487 391 487 391 519 318 c 0,13,14
 602 126 602 126 823 126 c 0,15,16
 885 126 885 126 941.5 154.5 c 128,-1,17
 998 183 998 183 1045 240 c 128,-1,18
 1092 297 1092 297 1119.5 394.5 c 128,-1,19
 1147 492 1147 492 1147 618 c 2,20,-1
 1147 958 l 2,21,22
 1147 1025 1147 1025 1139 1099 c 128,-1,23
 1131 1173 1131 1173 1119 1202 c 0,24,25
 1103 1240 1103 1240 969 1250 c 1,26,27
 962 1261 962 1261 962.5 1288 c 128,-1,28
 963 1315 963 1315 969 1324 c 1,29,30
 1134 1310 1134 1310 1219 1310 c 0,31,32
 1270 1310 1270 1310 1350 1316.5 c 128,-1,33
 1430 1323 1430 1323 1453 1324 c 1,34,35
 1459 1315 1459 1315 1459.5 1288 c 128,-1,36
 1460 1261 1460 1261 1453 1250 c 0,37,38
 1452 1250 1452 1250 1441.5 1249.5 c 128,-1,39
 1431 1249 1431 1249 1424.5 1248 c 128,-1,40
 1418 1247 1418 1247 1405 1246 c 128,-1,41
 1392 1245 1392 1245 1383 1243 c 128,-1,42
 1374 1241 1374 1241 1361.5 1238.5 c 128,-1,43
 1349 1236 1349 1236 1340 1232.5 c 128,-1,44
 1331 1229 1331 1229 1322 1224.5 c 128,-1,45
 1313 1220 1313 1220 1307.5 1214.5 c 128,-1,46
 1302 1209 1302 1209 1299 1202 c 0,47,48
 1287 1173 1287 1173 1279 1100 c 128,-1,49
 1271 1027 1271 1027 1271 960 c 2,50,-1
 1271 572 l 2,51,52
 1271 453 1271 453 1241.5 354.5 c 128,-1,53
 1212 256 1212 256 1161 188 c 128,-1,54
 1110 120 1110 120 1040 73 c 128,-1,55
 970 26 970 26 890.5 4 c 128,-1,56
 811 -18 811 -18 723 -18 c 0,57,58
 592 -18 592 -18 481.5 26.5 c 128,-1,59
 371 71 371 71 301 158 c 0,60,61
 189 299 189 299 189 602 c 2,62,-1
 189 1026 l 2,63,64
 189 1174 189 1174 173 1214 c 0,65,66
 163 1241 163 1241 45 1250 c 1,67,68
 38 1261 38 1261 38.5 1288 c 128,-1,69
 39 1315 39 1315 45 1324 c 1,70,71
 182 1310 182 1310 331 1310 c 0,0,1
EndSplineSet
Substitution2: "'c2sc' Capitals to Small Capitals in Latin lookup 0 subtable" u.sc
EndChar
StartChar: V
Encoding: 86 86 54
Width: 667
Flags: W
HStem: -11 21G<320 330> 610 36<-5 51 218 277 454 532 614 684>
LayerCount: 2
Fore
SplineSet
137 640 m 0
 178 640 237 642 275 646 c 1
 279 640 280 617 275 610 c 1
 262 609 215 608 215 584 c 0
 215 568 227 538 239 511 c 0
 296 381 384 182 384 182 c 1
 384 182 503 482 513 509 c 0
 522 534 535 566 535 587 c 0
 535 605 469 609 456 610 c 1
 451 617 452 640 456 646 c 1
 502 642 528 640 573 640 c 0
 616 640 642 644 682 646 c 1
 686 640 687 617 682 610 c 1
 669 609 626 609 614 593 c 0
 599 573 588 544 574 512 c 0
 494 316 446 210 371 29 c 0
 363 11 337 -11 325 -11 c 0
 316 -11 316 -4 311 3 c 1
 98 498 l 2
 86 526 73 558 64 578 c 0
 52 603 10 609 -3 610 c 1
 -8 617 -7 640 -3 646 c 1
 35 642 96 640 137 640 c 0
EndSplineSet
Substitution2: "'c2sc' Capitals to Small Capitals in Latin lookup 0 subtable" v.sc
EndChar
StartChar: W
Encoding: 87 87 55
Width: 928
Flags: W
HStem: -11 21G<288 299 626 637> 610 36<-5 52 218 277 710 786 870 940>
LayerCount: 2
Fore
SplineSet
137 640 m 0
 178 640 237 642 275 646 c 1
 279 640 280 617 275 610 c 1
 262 609 216 608 216 584 c 0
 216 568 228 539 239 511 c 0
 282 392 335 245 335 245 c 1
 335 245 442 547 465 610 c 0
 472 629 484 646 495 646 c 0
 499 646 503 642 507 631 c 0
 571 467 674 209 674 209 c 1
 674 209 759 478 769 509 c 0
 777 534 789 566 789 587 c 0
 789 605 726 609 713 610 c 1
 708 617 709 640 713 646 c 1
 759 642 784 640 829 640 c 0
 872 640 898 644 938 646 c 1
 942 640 943 617 938 610 c 1
 925 609 882 609 870 593 c 0
 855 573 841 546 830 512 c 0
 769 327 732 220 670 39 c 0
 661 15 643 -11 631 -11 c 0
 622 -11 617 -4 612 3 c 1
 451 408 l 1
 451 408 375 184 327 43 c 0
 323 32 305 -11 293 -11 c 0
 284 -11 279 -4 274 3 c 1
 98 498 l 2
 88 527 73 558 64 578 c 0
 52 603 11 609 -2 610 c 1
 -8 617 -6 640 -2 646 c 1
 36 642 96 640 137 640 c 0
EndSplineSet
Substitution2: "'c2sc' Capitals to Small Capitals in Latin lookup 0 subtable" w.sc
EndChar
StartChar: X
Encoding: 88 88 56
Width: 693
Flags: W
HStem: -4 36<-8 69 173 249 382 435 628 696> 610 36<17 85 259 313 429 497 611 680>
LayerCount: 2
Fore
SplineSet
172 641 m 0
 220 641 273 644 312 646 c 1
 314 640 315 610 310 610 c 1
 296 610 260 605 259 590 c 0
 259 584 262 574 266 568 c 2
 375 404 l 1
 418 460 487 538 502 570 c 0
 504 574 505 578 505 580 c 0
 505 597 465 610 432 610 c 1
 427 610 426 641 431 646 c 1
 465 642 525 640 561 640 c 0
 612 640 650 642 678 646 c 1
 681 640 682 610 677 610 c 1
 669 610 610 609 568 559 c 2
 401 360 l 1
 483 236 582 91 597 74 c 0
 625 40 680 32 694 32 c 1
 698 23 699 4 694 -4 c 1
 655 -2 578 2 538 2 c 0
 483 2 439 -2 384 -4 c 1
 379 1 380 32 385 32 c 0
 396 32 440 42 440 60 c 0
 440 63 439 67 437 70 c 2
 307 267 l 1
 292 247 201 127 173 81 c 0
 168 73 165 67 165 64 c 0
 165 41 217 32 246 32 c 1
 251 25 252 7 249 -4 c 1
 217 -2 156 2 120 2 c 0
 69 2 34 -2 -5 -4 c 1
 -10 2 -10 25 -5 32 c 1
 3 32 70 34 101 77 c 2
 275 314 l 1
 138 524 l 2
 120 550 100 586 86 596 c 0
 72 606 31 610 19 610 c 1
 14 610 14 641 19 646 c 1
 67 644 124 641 172 641 c 0
EndSplineSet
Substitution2: "'c2sc' Capitals to Small Capitals in Latin lookup 0 subtable" x.sc
EndChar
StartChar: Y
Encoding: 89 89 57
Width: 1248
Flags: HW
LayerCount: 2
Fore
SplineSet
467 290 m 2
 467 568 l 2
 467 576.666666667 463 590 455 608 c 0
 440.333333333 640 412.166666667 694.833333333 370.5 772.5 c 128
 328.833333333 850.166666667 290.833333333 919.833333333 256.5 981.5 c 2
 205 1074 l 1
 183 1115.33333333 162.333333333 1152 143 1184 c 0
 130.333333333 1205.33333333 110 1221.16666667 82 1231.5 c 128
 54 1241.83333333 29 1248 7 1250 c 1
 2.33333333333 1257.33333333 0.166666666667 1270 0.5 1288 c 128
 0.833333333333 1306 3 1318 7 1324 c 1
 98.3333333333 1314.66666667 193.666666667 1310 293 1310 c 0
 389.666666667 1310 483.666666667 1314.66666667 575 1324 c 1
 579 1318 581.166666667 1306 581.5 1288 c 128
 581.833333333 1270 579.666666667 1257.33333333 575 1250 c 0
 574.333333333 1250 570.666666667 1249.83333333 564 1249.5 c 128
 557.333333333 1249.16666667 552.333333333 1248.83333333 549 1248.5 c 128
 545.666666667 1248.16666667 540 1247.5 532 1246.5 c 128
 524 1245.5 517.666666667 1244.33333333 513 1243 c 128
 508.333333333 1241.66666667 502.5 1240.16666667 495.5 1238.5 c 128
 488.5 1236.83333333 482.833333333 1234.66666667 478.5 1232 c 128
 474.166666667 1229.33333333 469.833333333 1226.33333333 465.5 1223 c 128
 461.166666667 1219.66666667 458 1215.66666667 456 1211 c 128
 454 1206.33333333 453 1201.33333333 453 1196 c 128
 453 1190.66666667 457.666666667 1180 467 1164 c 2
 707 722 l 1
 711.666666667 717.333333333 740.166666667 761.166666667 792.5 853.5 c 128
 844.833333333 945.833333333 900.333333333 1046.66666667 959 1156 c 0
 965.666666667 1169.33333333 969 1184.66666667 969 1202 c 0
 969 1226.66666667 919.666666667 1242.66666667 821 1250 c 1
 816.333333333 1257.33333333 814.166666667 1270 814.5 1288 c 128
 814.833333333 1306 817 1318 821 1324 c 1
 931 1314.66666667 1006.33333333 1310 1047 1310 c 0
 1081 1310 1122.5 1312.16666667 1171.5 1316.5 c 128
 1220.5 1320.83333333 1253.66666667 1323.33333333 1271 1324 c 1
 1275 1318 1277.16666667 1306 1277.5 1288 c 128
 1277.83333333 1270 1275.66666667 1257.33333333 1271 1250 c 1
 1258.5 1249 l 2
 1250.16666667 1248.33333333 1244.16666667 1247.83333333 1240.5 1247.5 c 128
 1236.83333333 1247.16666667 1230.33333333 1246.5 1221 1245.5 c 128
 1211.66666667 1244.5 1204 1243.16666667 1198 1241.5 c 128
 1192 1239.83333333 1184.83333333 1237.83333333 1176.5 1235.5 c 128
 1168.16666667 1233.16666667 1161 1230.33333333 1155 1227 c 128
 1149 1223.66666667 1143 1219.66666667 1137 1215 c 128
 1131 1210.33333333 1126.33333333 1205.33333333 1123 1200 c 0
 1087 1145.33333333 1023.16666667 1043.66666667 931.5 895 c 128
 839.833333333 746.333333333 781.666666667 646.666666667 757 596 c 0
 750.333333333 582.666666667 747 570 747 558 c 2
 747 290 l 1
 745.666666667 194 751 131.333333333 763 102 c 0
 769.666666667 84 812.333333333 72 891 66 c 1
 895.666666667 58.6666666667 897.833333333 46 897.5 28 c 128
 897.166666667 10 895 -2 891 -8 c 1
 799.666666667 1.33333333333 704.333333333 6 605 6 c 0
 508.333333333 6 414.333333333 1.33333333333 323 -8 c 1
 319 -2 316.833333333 10 316.5 28 c 128
 316.166666667 46 318.333333333 58.6666666667 323 66 c 1
 401.666666667 72 444.333333333 84 451 102 c 0
 453 106.666666667 454.666666667 111.333333333 456 116 c 128
 457.333333333 120.666666667 458.5 126.166666667 459.5 132.5 c 128
 460.5 138.833333333 461.333333333 144.333333333 462 149 c 128
 462.666666667 153.666666667 463.333333333 160.333333333 464 169 c 128
 464.666666667 177.666666667 465.166666667 184.333333333 465.5 189 c 128
 465.833333333 193.666666667 466 201.5 466 212.5 c 128
 466 223.5 466.166666667 231.333333333 466.5 236 c 128
 466.833333333 240.666666667 467 249.666666667 467 263 c 128
 467 283 467 283 467 290 c 2
EndSplineSet
Substitution2: "'c2sc' Capitals to Small Capitals in Latin lookup 0 subtable" y.sc
EndChar
StartChar: Z
Encoding: 90 90 58
Width: 625
Flags: W
HStem: 0 46<202 490> 596 44<151 404> 627 20G<76 88 531 574>
LayerCount: 2
Fore
SplineSet
228 596 m 2xc0
 124 596 108 524 86 463 c 0
 85 460 84 457 74 457 c 0
 63 457 48 459 45 462 c 1
 56 519 70 584 80 646 c 1xa0
 96 642 194 640 208 640 c 2
 345 641 l 2
 427 642 490 644 572 650 c 1
 576 649 581 628 581 618 c 1
 579 610 202 46 202 46 c 17
 412 46 l 2
 449 46 483 58 505 80 c 0
 526 101 540 122 557 166 c 0
 558 170 564 172 571 172 c 0
 581 172 597 169 600 166 c 1
 584 114 556 43 547 1 c 1
 506 1 45 0 45 0 c 1
 32 0 17 17 20 21 c 2
 407 596 l 1
 228 596 l 2xc0
EndSplineSet
Substitution2: "'c2sc' Capitals to Small Capitals in Latin lookup 0 subtable" z.sc
EndChar
StartChar: bracketleft
Encoding: 91 91 59
Width: 301
Flags: W
VStem: 73 104<-78 711>
LayerCount: 2
Fore
SplineSet
92 752 m 0
 193 752 257 761 292 768 c 1
 294 768 298 765 298 759 c 0
 298 746 290 734 288 733 c 0
 259 718 204 713 178 707 c 9
 178 -74 l 1
 204 -80 259 -86 288 -101 c 0
 290 -102 298 -113 298 -126 c 0
 298 -132 294 -135 292 -135 c 1
 257 -128 193 -119 92 -119 c 0
 79 -118 73 -108 73 -97 c 0
 73 729 l 0
 73 740 79 751 92 752 c 0
EndSplineSet
Substitution2: "'smcp' Lowercase to Small Capitals in Latin lookup 0 subtable" bracketleft.sc
EndChar
StartChar: backslash
Encoding: 92 92 60
Width: 409
Flags: HW
LayerCount: 2
Fore
SplineSet
26 737 m 1
 29 741 36 743 45 743 c 0
 66 743 78 738 82 728 c 0
 281 230 381 -21 381 -25 c 1
 380 -27 378 -30 372 -32 c 128
 366 -34 361 -35 354 -35 c 0
 349 -35 343 -34 337 -31 c 128
 331 -28 327 -24 324 -18 c 0
 286 79 233 211 168 377 c 128
 103 543 55 663 26 737 c 1
EndSplineSet
Substitution2: "'smcp' Lowercase to Small Capitals in Latin lookup 0 subtable" backslash.sc
EndChar
StartChar: bracketright
Encoding: 93 93 61
Width: 301
Flags: W
VStem: 124 104<-78 711>
LayerCount: 2
Fore
SplineSet
210 752 m 0
 223 751 229 740 229 729 c 0
 229 -97 l 0
 229 -108 223 -118 210 -119 c 0
 109 -119 45 -128 10 -135 c 1
 8 -135 4 -132 4 -126 c 0
 4 -113 12 -102 14 -101 c 0
 43 -86 98 -80 124 -74 c 1
 124 707 l 17
 98 713 43 718 14 733 c 0
 12 734 4 746 4 759 c 0
 4 765 8 768 10 768 c 1
 45 761 109 752 210 752 c 0
EndSplineSet
Substitution2: "'smcp' Lowercase to Small Capitals in Latin lookup 0 subtable" bracketright.sc
EndChar
StartChar: asciicircum
Encoding: 94 94 62
Width: 782
Flags: HW
LayerCount: 2
Fore
SplineSet
372 1338 m 0
 388 1338 401.333333333 1328.66666667 412 1310 c 0
 432 1274.66666667 459 1226.5 493 1165.5 c 128
 527 1104.5 556.166666667 1053.33333333 580.5 1012 c 128
 604.833333333 970.666666667 633.333333333 924.666666667 666 874 c 1
 666 864 661.833333333 855.5 653.5 848.5 c 128
 645.166666667 841.5 636.666666667 838 628 838 c 1
 593.333333333 870 554.666666667 908.833333333 512 954.5 c 128
 469.333333333 1000.16666667 435.333333333 1037.83333333 410 1067.5 c 2
 372 1112 l 1
 278.666666667 1001.33333333 193.333333333 910 116 838 c 1
 106.666666667 838 97.6666666667 841.5 89 848.5 c 128
 80.3333333333 855.5 76 864 76 874 c 1
 102 914 127 953.833333333 151 993.5 c 128
 175 1033.16666667 192.666666667 1062.83333333 204 1082.5 c 128
 215.333333333 1102.16666667 237 1140 269 1196 c 128
 301 1252 322.666666667 1290 334 1310 c 0
 344.666666667 1328.66666667 357.333333333 1338 372 1338 c 0
EndSplineSet
Substitution2: "'smcp' Lowercase to Small Capitals in Latin lookup 0 subtable" asciicircum.sc
EndChar
StartChar: underscore
Encoding: 95 95 63
Width: 481
Flags: HW
LayerCount: 2
Fore
SplineSet
8 -32 m 1
 11 -2 15 13 22 13 c 2
 461 13 l 2
 464 13 465 11 465 8 c 0
 465 2 462 -12 455 -36 c 0
 454 -38 454 -39 453 -40 c 128
 452 -41 451 -42 450 -42 c 2
 449 -42 l 1
 15 -42 l 2
 10 -42 8 -39 8 -32 c 1
EndSplineSet
EndChar
StartChar: a
Encoding: 97 97 65
Width: 944
Flags: HW
LayerCount: 2
Fore
SplineSet
454 124 m 0
 476.666666667 124 496 129.166666667 512 139.5 c 128
 528 149.833333333 536 158.666666667 536 166 c 2
 536 446 l 1
 532 444 513 435.333333333 479 420 c 128
 445 404.666666667 420 392 404 382 c 0
 353.333333333 349.333333333 329.333333333 304.666666667 332 248 c 1
 332.666666667 208.666666667 345.666666667 178.166666667 371 156.5 c 128
 396.333333333 134.833333333 424 124 454 124 c 0
496 898 m 0
 580 898 651 869.166666667 709 811.5 c 128
 767 753.833333333 796 680.666666667 796 592 c 2
 796 218 l 2
 796 192 800.5 171.833333333 809.5 157.5 c 128
 818.5 143.166666667 830 136 844 136 c 0
 850.666666667 136 857.333333333 137 864 139 c 128
 870.666666667 141 876 142.833333333 880 144.5 c 128
 884 146.166666667 888.666666667 148.5 894 151.5 c 2
 902 156 l 1
 911.333333333 151.333333333 916 140 916 122 c 0
 916 110.666666667 913.333333333 100.666666667 908 92 c 1
 894 79.3333333333 878.166666667 66.1666666667 860.5 52.5 c 128
 842.833333333 38.8333333333 818.333333333 24.6666666667 787 10 c 128
 755.666666667 -4.66666666667 727.333333333 -12 702 -12 c 0
 670 -12 639 -1.66666666667 609 19 c 128
 579 39.6666666667 559.333333333 62.6666666667 550 88 c 1
 533.333333333 73.3333333333 499.333333333 52.3333333333 448 25 c 128
 396.666666667 -2.33333333333 355.333333333 -16 324 -16 c 0
 250.666666667 -16 188.666666667 9.16666666667 138 59.5 c 128
 87.3333333333 109.833333333 62 166 62 228 c 0
 62 265.333333333 72.5 299.166666667 93.5 329.5 c 128
 114.5 359.833333333 138.666666667 379.333333333 166 388 c 0
 188 395.333333333 221.666666667 407.5 267 424.5 c 128
 312.333333333 441.5 362.5 460.666666667 417.5 482 c 128
 472.5 503.333333333 512 518.666666667 536 528 c 1
 536 570 l 1
 536 622 l 2
 536 674 524.833333333 720.333333333 502.5 761 c 128
 480.166666667 801.666666667 452 822 418 822 c 0
 403.333333333 822 390.166666667 818.833333333 378.5 812.5 c 128
 366.833333333 806.166666667 357.333333333 798.5 350 789.5 c 128
 342.666666667 780.5 335.833333333 767.666666667 329.5 751 c 128
 323.166666667 734.333333333 318.166666667 719.5 314.5 706.5 c 128
 310.833333333 693.5 306.666666667 676 302 654 c 0
 289.333333333 595.333333333 252 566 190 566 c 0
 162 566 137.666666667 575.166666667 117 593.5 c 128
 96.3333333333 611.833333333 86 634.666666667 86 662 c 0
 86 684 95.3333333333 711.333333333 114 744 c 1
 139.333333333 769.333333333 190.5 801.333333333 267.5 840 c 128
 344.5 878.666666667 420.666666667 898 496 898 c 0
EndSplineSet
Substitution2: "'smcp' Lowercase to Small Capitals in Latin lookup 0 subtable" a.sc
EndChar
StartChar: b
Encoding: 98 98 66
Width: 1084
Flags: HW
LayerCount: 2
Fore
SplineSet
487 -16 m 0
 447.666666667 -16 399 -8.33333333333 341 7 c 128
 283 22.3333333333 247.666666667 30 235 30 c 0
 207.666666667 30 183 25.3333333333 161 16 c 1
 157 16 148 22.8333333333 134 36.5 c 128
 120 50.1666666667 113 60 113 66 c 1
 129 107.333333333 137 186.666666667 137 304 c 2
 137 1116 l 2
 137 1157.33333333 132.333333333 1189.33333333 123 1212 c 0
 118.333333333 1222.66666667 101.666666667 1231.33333333 73 1238 c 128
 44.3333333333 1244.66666667 21 1248 3 1248 c 0
 0.333333333333 1248 -1.66666666667 1252.83333333 -3 1262.5 c 128
 -4.33333333333 1272.16666667 -4.5 1282.16666667 -3.5 1292.5 c 128
 -2.5 1302.83333333 -0.333333333333 1309.33333333 3 1312 c 1
 45 1316 86.6666666667 1321.33333333 128 1328 c 128
 169.333333333 1334.66666667 204.833333333 1341.5 234.5 1348.5 c 128
 264.166666667 1355.5 290.666666667 1362.16666667 314 1368.5 c 128
 337.333333333 1374.83333333 355.5 1380 368.5 1384 c 128
 381.5 1388 388.333333333 1390 389 1390 c 0
 394.333333333 1389.33333333 400.333333333 1384.83333333 407 1376.5 c 128
 413.666666667 1368.16666667 417.666666667 1361.33333333 419 1356 c 1
 404.333333333 1296 397 1228.66666667 397 1154 c 2
 397 830 l 2
 397 824 397 824 397 820.5 c 128
 397 818.166666667 397.5 814.5 398.5 809.5 c 128
 399.5 804.5 400.666666667 802 402 802 c 128
 403.333333333 802 405.666666667 802.666666667 409 804 c 1
 433.666666667 824 465.5 844.666666667 504.5 866 c 128
 543.5 887.333333333 577.666666667 898 607 898 c 0
 723.666666667 898 822.166666667 857.5 902.5 776.5 c 128
 982.833333333 695.5 1023 594 1023 472 c 0
 1023 410 1012.66666667 352.333333333 992 299 c 128
 971.333333333 245.666666667 943.666666667 200 909 162 c 128
 874.333333333 124 834 91.3333333333 788 64 c 128
 742 36.6666666667 693.5 16.5 642.5 3.5 c 128
 591.5 -9.5 539.666666667 -16 487 -16 c 0
507 750 m 0
 464.333333333 750 429.666666667 735.333333333 403 706 c 0
 399 702 397 696 397 688 c 2
 397 196 l 2
 397 160.666666667 408.833333333 131.166666667 432.5 107.5 c 128
 456.166666667 83.8333333333 488.333333333 72 529 72 c 128
 569.666666667 72 606.166666667 88.5 638.5 121.5 c 128
 670.833333333 154.5 695 195.166666667 711 243.5 c 128
 727 291.833333333 735 341.333333333 735 392 c 0
 735 520 714.166666667 611.666666667 672.5 667 c 128
 630.833333333 722.333333333 575.666666667 750 507 750 c 0
EndSplineSet
Substitution2: "'smcp' Lowercase to Small Capitals in Latin lookup 0 subtable" b.sc
EndChar
StartChar: c
Encoding: 99 99 67
Width: 894
Flags: HW
LayerCount: 2
Fore
SplineSet
826 764 m 0
 826 732.666666667 815.166666667 704.166666667 793.5 678.5 c 128
 771.833333333 652.833333333 744 640 710 640 c 0
 700 640 690.333333333 641.666666667 681 645 c 128
 671.666666667 648.333333333 662.333333333 654 653 662 c 128
 643.666666667 670 636.333333333 676.666666667 631 682 c 128
 625.666666667 687.333333333 618.333333333 695.833333333 609 707.5 c 128
 599.666666667 719.166666667 593.333333333 726.666666667 590 730 c 0
 553.333333333 771.333333333 508 792 454 792 c 0
 426 792 401 777.333333333 379 748 c 128
 357 718.666666667 340.666666667 683.166666667 330 641.5 c 128
 319.333333333 599.833333333 314 558 314 516 c 0
 314 449.333333333 322.833333333 391.166666667 340.5 341.5 c 128
 358.166666667 291.833333333 381.5 253.666666667 410.5 227 c 128
 439.5 200.333333333 470 180.833333333 502 168.5 c 128
 534 156.166666667 567.333333333 150 602 150 c 0
 690.666666667 150 765.333333333 183.333333333 826 250 c 1
 832.666666667 248 838.333333333 243.166666667 843 235.5 c 128
 847.666666667 227.833333333 850 220.666666667 850 214 c 0
 850 194.666666667 848 182 844 176 c 0
 833.333333333 159.333333333 818 141.166666667 798 121.5 c 128
 778 101.833333333 752.666666667 81 722 59 c 128
 691.333333333 37 654.833333333 18.6666666667 612.5 4 c 128
 570.166666667 -10.6666666667 526.666666667 -18 482 -18 c 0
 406.666666667 -18 337.333333333 -1.66666666667 274 31 c 128
 210.666666667 63.6666666667 159.5 112.166666667 120.5 176.5 c 128
 81.5 240.833333333 62 315.333333333 62 400 c 0
 62 460 76.3333333333 520 105 580 c 128
 133.666666667 640 171.666666667 693.166666667 219 739.5 c 128
 266.333333333 785.833333333 322.166666667 823.5 386.5 852.5 c 128
 450.833333333 881.5 516.666666667 896 584 896 c 0
 633.333333333 896 675.833333333 892.166666667 711.5 884.5 c 128
 747.166666667 876.833333333 772 868.666666667 786 860 c 1
 812.666666667 830.666666667 826 798.666666667 826 764 c 0
EndSplineSet
Substitution2: "'smcp' Lowercase to Small Capitals in Latin lookup 0 subtable" c.sc
EndChar
StartChar: d
Encoding: 100 100 68
Width: 534
Flags: HW
LayerCount: 2
Fore
SplineSet
287 436 m 0
 303 436 316 435 326 434 c 1
 329 434 331 441 331 456 c 2
 331 545 l 2
 331 565 329 581 324 592 c 0
 322 597 314 601 300 604 c 128
 286 607 275 609 266 609 c 0
 265 609 264 611 263 616 c 128
 262 621 262 626 262 631 c 128
 262 636 264 640 266 641 c 1
 287 643 307 645 327 648 c 128
 347 651 365 655 379 658 c 128
 393 661 406 665 417 668 c 128
 428 671 438 674 444 676 c 128
 450 678 454 679 454 679 c 0
 457 679 460 676 463 672 c 128
 466 668 468 665 469 662 c 1
 462 633 458 599 458 563 c 2
 458 105 l 2
 458 87 461 75 467 68 c 128
 473 61 488 59 511 59 c 1
 513 57 514 53 514 46 c 128
 514 39 512 33 508 27 c 1
 491 25 469 22 443 16 c 128
 417 10 394 5 374 0 c 128
 354 -5 343 -7 340 -7 c 0
 338 -7 336 -4 334 -0 c 128
 332 4 331 10 331 17 c 2
 331 32 l 2
 331 37 330 38 328 37 c 0
 284 7 244 -8 208 -8 c 0
 160 -8 119 12 84 51 c 128
 49 90 31 138 31 195 c 0
 31 227 37 257 49 284 c 128
 61 311 77 334 96 352 c 128
 115 370 136 385 159 398 c 128
 182 411 204 421 226 427 c 128
 248 433 268 436 287 436 c 0
255 386 m 0
 235 386 218 378 205 364 c 128
 192 350 183 332 178 311 c 128
 173 290 170 265 170 237 c 0
 170 183 179 139 197 105 c 128
 215 71 239 55 269 55 c 0
 282 55 296 59 310 68 c 128
 324 77 331 84 331 91 c 2
 331 342 l 2
 331 351 324 361 308 371 c 128
 292 381 275 386 255 386 c 0
EndSplineSet
Substitution2: "'smcp' Lowercase to Small Capitals in Latin lookup 0 subtable" d.sc
EndChar
StartChar: e
Encoding: 101 101 69
Width: 449
Flags: W
HStem: -9 82<225 326> 236 39<159 284> 396 40<196 276>
VStem: 31 127<144 236 275 290> 298 121<283 362>
LayerCount: 2
Fore
SplineSet
159 275 m 1
 168 274 262 280 285 283 c 0
 297 284 298 293 298 299 c 11
 298 344 282 396 238 396 c 3
 180 396 159 308 159 275 c 1
158 236 m 1
 158 99 251 73 295 73 c 0
 352 73 383 100 404 122 c 1
 411 120 416 110 416 104 c 3
 416 97 415 89 413 86 c 0
 395 59 329 -9 236 -9 c 0
 127 -9 31 67 31 195 c 0
 31 318 136 437 248 437 c 0
 376 437 419 346 419 289 c 0
 419 268 408 249 393 248 c 0
 327 242 230 238 158 236 c 1
EndSplineSet
Substitution2: "'smcp' Lowercase to Small Capitals in Latin lookup 0 subtable" e.sc
EndChar
StartChar: f
Encoding: 102 102 70
Width: 710
Flags: HW
LayerCount: 2
Back
SplineSet
612 1396 m 0
 650.666666667 1396 693.333333333 1389.33333333 740 1376 c 1
 792 1348.66666667 818 1318 818 1284 c 0
 818 1248 808.833333333 1216 790.5 1188 c 128
 772.166666667 1160 747.333333333 1146 716 1146 c 0
 702 1146 688.166666667 1148.83333333 674.5 1154.5 c 128
 660.833333333 1160.16666667 650.166666667 1166 642.5 1172 c 128
 634.833333333 1178 624.5 1186.83333333 611.5 1198.5 c 128
 598.5 1210.16666667 589.333333333 1218 584 1222 c 0
 559.333333333 1242 532.666666667 1252 504 1252 c 0
 488 1252 474 1232.83333333 462 1194.5 c 128
 450 1156.16666667 444 1114 444 1068 c 0
 444 989.333333333 446.666666667 908.666666667 452 826 c 1
 686 826 l 2
 694 826 698 817.333333333 698 800 c 0
 698 791.333333333 693 779.666666667 683 765 c 128
 673 750.333333333 662.666666667 739.333333333 652 732 c 1
 458 732 l 1
 458 290 l 2
 458 193.466796875 463.333333333 130.800130208 474 102 c 0
 480.666666667 84 523.333333333 72 602 66 c 1
 606.666666667 58.6666666667 608.833333333 46 608.5 28 c 128
 608.166666667 10 606 -2 602 -8 c 1
 511.333333333 1.33333333333 420 6 328 6 c 128
 236 6 144.666666667 1.33333333333 54 -8 c 1
 50 -2 47.8333333333 10 47.5 28 c 128
 47.1666666667 46 49.3333333333 58.6666666667 54 66 c 1
 132.666666667 72 175.333333333 84 182 102 c 0
 192.666666667 128.666666667 198 191.333333333 198 290 c 2
 198 732 l 1
 56 732 l 1
 49.3333333333 734.666666667 46 743.333333333 46 758 c 1
 63.3333333333 782 84.6666666667 804.666666667 110 826 c 1
 198 826 l 1
 198 886 l 2
 198 951.333333333 212.5 1016.16666667 241.5 1080.5 c 128
 270.5 1144.83333333 306.166666667 1199.5 348.5 1244.5 c 128
 390.833333333 1289.5 435.833333333 1326 483.5 1354 c 128
 531.166666667 1382 574 1396 612 1396 c 0
EndSplineSet
Fore
SplineSet
612 1396 m 0
 742.666666667 1396 811.333333333 1358.66666667 818 1284 c 0
 821.249255122 1252.96249873 812.082588455 1220.96249873 790.5 1188 c 0
 772.166666667 1160 745.666666667 1146 711 1146 c 128
 676.333333333 1146 643.166666667 1163.5 611.5 1198.5 c 0
 603.833333333 1206.16666667 594.666666667 1214 584 1222 c 0
 559.333333333 1242 532.666666667 1252 504 1252 c 0
 488 1252 474 1232.83333333 462 1194.5 c 128
 450 1156.16666667 444 1114 444 1068 c 0
 444 989.333333333 446.666666667 908.666666667 452 826 c 1
 686 826 l 2
 694 826 698 817.333333333 698 800 c 0
 698 791.333333333 693 779.666666667 683 765 c 128
 673 750.333333333 662.666666667 739.333333333 652 732 c 1
 458 732 l 1
 458 290 l 2
 458 193.466796875 463.333333333 130.800130208 474 102 c 0
 480.666666667 84 523.333333333 72 602 66 c 1
 606.666666667 58.6666666667 608.833333333 46 608.5 28 c 128
 608.166666667 10 606 -2 602 -8 c 1
 511.333333333 1.33333333333 420 6 328 6 c 128
 236 6 144.666666667 1.33333333333 54 -8 c 1
 50 -2 47.8333333333 10 47.5 28 c 128
 47.1666666667 46 49.3333333333 58.6666666667 54 66 c 1
 132.666666667 72 175.333333333 84 182 102 c 0
 192.666666667 128.666666667 198 191.333333333 198 290 c 2
 198 732 l 1
 56 732 l 1
 49.3333333333 734.666666667 46 743.333333333 46 758 c 1
 63.3333333333 782 84.6666666667 804.666666667 110 826 c 1
 198 826 l 1
 198 886 l 2
 198 951.333333333 212.5 1016.16666667 241.5 1080.5 c 128
 270.5 1144.83333333 306.166666667 1199.5 348.5 1244.5 c 128
 390.833333333 1289.5 435.833333333 1326 483.5 1354 c 128
 531.166666667 1382 574 1396 612 1396 c 0
EndSplineSet
Substitution2: "'smcp' Lowercase to Small Capitals in Latin lookup 0 subtable" f.sc
EndChar
StartChar: g
Encoding: 103 103 71
Width: 956
Flags: HW
LayerCount: 2
Fore
SplineSet
430 812 m 0
 405.333333333 812 385.166666667 806.333333333 369.5 795 c 128
 353.833333333 783.666666667 342.666666667 767 336 745 c 128
 329.333333333 723 325 702.666666667 323 684 c 128
 321 665.333333333 320 642 320 614 c 0
 320 573.333333333 324.333333333 535.5 333 500.5 c 128
 341.666666667 465.5 357.166666667 435 379.5 409 c 128
 401.833333333 383 429.333333333 370 462 370 c 0
 476.666666667 370 489.5 372.333333333 500.5 377 c 128
 511.5 381.666666667 520.5 387.166666667 527.5 393.5 c 128
 534.5 399.833333333 540.5 409.333333333 545.5 422 c 128
 550.5 434.666666667 554.166666667 445.166666667 556.5 453.5 c 128
 558.833333333 461.833333333 560.666666667 474.833333333 562 492.5 c 128
 563.333333333 510.166666667 564 522.833333333 564 530.5 c 128
 564 542 564 542 564 570 c 0
 564 610.666666667 560.333333333 648.166666667 553 682.5 c 128
 545.666666667 716.833333333 531.5 747 510.5 773 c 128
 489.5 799 462.666666667 812 430 812 c 0
520 -28 m 2
 300 -28 l 1
 278.666666667 -52.6666666667 268 -82 268 -116 c 0
 268 -180.666666667 290.166666667 -231.5 334.5 -268.5 c 128
 378.833333333 -305.5 436.666666667 -324 508 -324 c 0
 553.333333333 -324 592.333333333 -318.666666667 625 -308 c 128
 657.666666667 -297.333333333 682.166666667 -283.166666667 698.5 -265.5 c 128
 714.833333333 -247.833333333 726.5 -230.166666667 733.5 -212.5 c 128
 740.5 -194.833333333 744 -176.666666667 744 -158 c 0
 744 -117.333333333 723.166666667 -85.5 681.5 -62.5 c 128
 639.833333333 -39.5 586 -28 520 -28 c 2
652 192 m 0
 695.333333333 189.333333333 734.833333333 179.666666667 770.5 163 c 128
 806.166666667 146.333333333 834.166666667 126.5 854.5 103.5 c 128
 874.833333333 80.5 890.5 57.3333333333 901.5 34 c 128
 912.5 10.6666666667 918 -10 918 -28 c 0
 918 -106 892.166666667 -176.666666667 840.5 -240 c 128
 788.833333333 -303.333333333 722.333333333 -351.833333333 641 -385.5 c 128
 559.666666667 -419.166666667 473.333333333 -436 382 -436 c 0
 284 -436 203.833333333 -414.666666667 141.5 -372 c 128
 79.1666666667 -329.333333333 48 -274 48 -206 c 0
 48 -169.333333333 65.5 -133.166666667 100.5 -97.5 c 128
 135.5 -61.8333333333 174.666666667 -33.3333333333 218 -12 c 1
 184.666666667 -3.33333333333 156.333333333 20.6666666667 133 60 c 128
 109.666666667 99.3333333333 98 140.666666667 98 184 c 0
 98 200.666666667 115.166666667 223.333333333 149.5 252 c 128
 183.833333333 280.666666667 222 306.666666667 264 330 c 1
 206.666666667 353.333333333 161.333333333 388 128 434 c 128
 94.6666666667 480 78 531.333333333 78 588 c 0
 78 671.333333333 112.833333333 741.833333333 182.5 799.5 c 128
 252.166666667 857.166666667 338 886 440 886 c 0
 533.333333333 886 604.666666667 869.333333333 654 836 c 1
 658 832 662 830 666 830 c 2
 916 854 l 1
 930.666666667 849.333333333 938 842 938 832 c 0
 938 824 932 807 920 781 c 128
 908 755 897.333333333 738.666666667 888 732 c 1
 862.666666667 734 825.333333333 738 776 744 c 1
 768 744 764 742 764 738 c 1
 792 699.333333333 806 652.666666667 806 598 c 0
 806 514 771.166666667 442.666666667 701.5 384 c 128
 631.833333333 325.333333333 546 296 444 296 c 0
 410 296 375.333333333 299.333333333 340 306 c 1
 308 280 292 259.333333333 292 244 c 0
 292 229.333333333 301.666666667 217.333333333 321 208 c 128
 340.333333333 198.666666667 362.666666667 194 388 194 c 0
 540.666666667 194 628.666666667 193.333333333 652 192 c 0
EndSplineSet
Substitution2: "'smcp' Lowercase to Small Capitals in Latin lookup 0 subtable" g.sc
EndChar
StartChar: h
Encoding: 104 104 72
Width: 1166
Flags: HW
LayerCount: 2
Fore
SplineSet
735 892 m 0
 780.333333333 892 819 885.5 851 872.5 c 128
 883 859.5 909.166666667 841.166666667 929.5 817.5 c 128
 949.833333333 793.833333333 965.666666667 762 977 722 c 128
 988.333333333 682 996.166666667 638.5 1000.5 591.5 c 128
 1004.83333333 544.5 1007 487.333333333 1007 420 c 2
 1007 290 l 2
 1007 191.333333333 1012.33333333 128.666666667 1023 102 c 0
 1029.66666667 84 1072.33333333 72 1151 66 c 1
 1155.66666667 58.6666666667 1157.83333333 46 1157.5 28 c 128
 1157.16666667 10 1155 -2 1151 -8 c 1
 1059.66666667 1.33333333333 968.333333333 6 877 6 c 0
 801.666666667 6 718.333333333 1.33333333333 627 -8 c 1
 623 -2 620.833333333 10 620.5 28 c 128
 620.166666667 46 622.333333333 58.6666666667 627 66 c 1
 689 70.6666666667 723.666666667 82.6666666667 731 102 c 0
 741.666666667 128.666666667 747 191.333333333 747 290 c 2
 747 448 l 2
 747 636 702.333333333 730 613 730 c 0
 575 730 536.166666667 716.666666667 496.5 690 c 128
 456.833333333 663.333333333 437 639.333333333 437 618 c 2
 437 290 l 2
 437 191.333333333 442.333333333 128.666666667 453 102 c 0
 460.333333333 83.3333333333 498.333333333 71.3333333333 567 66 c 1
 571.666666667 58.6666666667 573.833333333 46 573.5 28 c 128
 573.166666667 10 571 -2 567 -8 c 1
 475.666666667 1.33333333333 389 6 307 6 c 0
 215.666666667 6 124.333333333 1.33333333333 33 -8 c 1
 29 -2 26.8333333333 10 26.5 28 c 128
 26.1666666667 46 28.3333333333 58.6666666667 33 66 c 1
 111.666666667 72 154.333333333 84 161 102 c 0
 171.666666667 128.666666667 177 191.333333333 177 290 c 2
 177 1116 l 2
 177 1157.33333333 172.333333333 1189.33333333 163 1212 c 0
 158.333333333 1222.66666667 141.666666667 1231.33333333 113 1238 c 128
 84.3333333333 1244.66666667 61 1248 43 1248 c 0
 40.3333333333 1248 38.3333333333 1252.83333333 37 1262.5 c 128
 35.6666666667 1272.16666667 35.5 1282.16666667 36.5 1292.5 c 128
 37.5 1302.83333333 39.6666666667 1309.33333333 43 1312 c 1
 85 1316 126.666666667 1321.33333333 168 1328 c 128
 209.333333333 1334.66666667 244.833333333 1341.5 274.5 1348.5 c 128
 304.166666667 1355.5 330.666666667 1362.16666667 354 1368.5 c 128
 377.333333333 1374.83333333 395.5 1380 408.5 1384 c 128
 421.5 1388 428.333333333 1390 429 1390 c 0
 434.333333333 1389.33333333 440.333333333 1384.83333333 447 1376.5 c 128
 453.666666667 1368.16666667 457.666666667 1361.33333333 459 1356 c 1
 444.333333333 1273.33333333 437 1205.33333333 437 1152 c 2
 437 744 l 2
 437 737.333333333 437.666666667 733.333333333 439 732 c 1
 441.666666667 732 446.333333333 735.333333333 453 742 c 0
 483.666666667 777.333333333 527.5 811.166666667 584.5 843.5 c 128
 641.5 875.833333333 691.666666667 892 735 892 c 0
EndSplineSet
Substitution2: "'smcp' Lowercase to Small Capitals in Latin lookup 0 subtable" h.sc
EndChar
StartChar: i
Encoding: 105 105 73
Width: 307
Flags: HW
LayerCount: 2
Fore
SplineSet
226 302 m 2
 226 142 l 2
 226 94 229 63 234 50 c 0
 238 41 256 35 290 32 c 1
 292 28 293 23 293 14 c 128
 293 5 292 -1 290 -4 c 1
 245 1 203 3 163 3 c 0
 118 3 74 1 29 -4 c 1
 27 -1 26 5 26 14 c 128
 26 23 27 28 29 32 c 1
 67 35 88 41 91 50 c 0
 96 63 99 94 99 142 c 2
 99 254 l 2
 99 296 96 323 90 334 c 0
 87 340 78 345 63 348 c 128
 48 351 36 354 29 354 c 1
 27 355 26 359 26 369 c 128
 26 379 28 384 30 384 c 0
 64 387 98 393 134 403 c 128
 170 413 198 425 220 436 c 1
 223 435 227 432 231 428 c 128
 235 424 237 421 237 419 c 1
 236 415 233 406 231 393 c 128
 229 380 228 370 227 363 c 1
 226 349 226 329 226 302 c 2
83 602 m 128
 83 622 89 637 103 651 c 128
 117 665 133 672 153 672 c 128
 173 672 189 665 203 651 c 128
 217 637 224 622 224 602 c 128
 224 582 217 566 203 552 c 128
 189 538 173 531 153 531 c 128
 133 531 117 538 103 552 c 128
 89 566 83 582 83 602 c 128
EndSplineSet
Substitution2: "'ccmp' Turkish i-1" i.TRK
Substitution2: "'smcp' Lowercase to Small Capitals in Latin lookup 0 subtable" i.sc
EndChar
StartChar: j
Encoding: 106 106 74
Width: 279
Flags: W
HStem: -213 23<-10 4> 354 30<15 73> 416 20G<189 211> 529 145<91 194>
VStem: 70 145<550 653> 87 127<-42 344>
LayerCount: 2
Fore
SplineSet
87 62 m 2xf4
 87 254 l 2xf4
 87 264 86 319 78 334 c 0
 70 349 24 354 17 354 c 1
 14 356 13 384 18 384 c 1
 92 390 171 417 208 436 c 1
 215 434 225 422 225 419 c 1
 222 411 216 377 215 363 c 0xf8
 214 342 214 308 214 302 c 2
 214 117 l 2
 214 35 203 -47 167 -100 c 0
 121 -166 35 -213 2 -213 c 1
 -5 -209 -12 -202 -12 -196 c 0
 -12 -194 -12 -190 -11 -189 c 0
 -7 -187 87 -139 87 62 c 2xf4
70 602 m 0xf8
 70 642 103 674 143 674 c 0
 183 674 215 642 215 602 c 0
 215 562 183 529 143 529 c 0
 103 529 70 562 70 602 c 0xf8
EndSplineSet
Substitution2: "'smcp' Lowercase to Small Capitals in Latin lookup 0 subtable" j.sc
EndChar
StartChar: k
Encoding: 107 107 75
Width: 576
Flags: W
HStem: -4 36<14 77 222 285 511 573> 396 34<308 369 474 549> 609 31<18 74> 659 20G<208 212>
VStem: 86 127<40 196 230 601>
LayerCount: 2
Fore
SplineSet
213 142 m 2
 213 100 213 70 221 50 c 0
 226 37 271 33 284 32 c 1
 289 25 288 2 284 -4 c 1
 246 0 191 3 150 3 c 0
 109 3 54 0 16 -4 c 1
 12 2 11 25 16 32 c 1
 29 33 74 37 79 50 c 0
 87 70 86 100 86 142 c 2
 86 545 l 2
 86 562 86 575 79 592 c 0
 74 604 33 609 21 609 c 1
 17 609 16 637 21 641 c 1
 130 651 206 679 209 679 c 1
 215 678 223 667 224 662 c 1
 224 662 213 601 213 562 c 0
 212 230 l 1
 229 236 252 251 286 280 c 0
 354 339 371 359 371 374 c 0
 371 386 327 395 309 396 c 1
 306 405 306 427 311 429 c 1
 311 429 398 425 439 425 c 0
 474 425 503 428 547 430 c 1
 553 420 550 399 544 396 c 1
 514 393 473 383 448 365 c 0
 427 350 379 303 319 250 c 1
 388 169 402 158 457 96 c 0
 511 36 543 35 574 35 c 1
 580 24 575 8 574 6 c 1
 558 0 512 -6 475 -6 c 0
 418 -6 370 18 341 52 c 2
 341 52 274 124 226 184 c 0
 222 190 213 196 213 196 c 1
 213 142 l 2
EndSplineSet
Substitution2: "'smcp' Lowercase to Small Capitals in Latin lookup 0 subtable" k.sc
EndChar
StartChar: l
Encoding: 108 108 76
Width: 298
Flags: W
HStem: -4 36<14 79 221 286> 609 31<18 74> 659 20G<208 212>
VStem: 86 127<40 601>
LayerCount: 2
Fore
SplineSet
86 545 m 2
 86 562 86 575 79 592 c 0
 74 604 33 609 21 609 c 1
 17 609 16 637 21 641 c 1
 130 651 206 679 209 679 c 1
 215 678 223 667 224 662 c 1
 224 662 213 601 213 562 c 0
 213 142 l 18
 213 100 213 70 221 50 c 0
 226 37 271 33 284 32 c 1
 289 25 288 2 284 -4 c 1
 246 0 191 3 150 3 c 0
 109 3 54 0 16 -4 c 1
 12 2 11 25 16 32 c 1
 29 33 74 37 79 50 c 0
 87 70 86 100 86 142 c 2
 86 545 l 2
EndSplineSet
Substitution2: "'smcp' Lowercase to Small Capitals in Latin lookup 0 subtable" l.sc
EndChar
StartChar: m
Encoding: 109 109 77
Width: 862
Flags: W
HStem: -4 36<26 91 234 292 315 370 512 575 597 650 792 857> 354 30<27 86> 356 79<303 393 579 698>
VStem: 99 127<40 331> 377 127<40 331> 658 127<40 327>
LayerCount: 2
Fore
SplineSet
371 436 m 0xbc
 433 436 469 414 492 352 c 1
 535 394 607 436 652 436 c 0
 763 436 785 359 785 205 c 2
 785 142 l 2
 785 100 784 70 792 50 c 0
 797 37 842 33 855 32 c 1
 860 25 859 2 855 -4 c 1
 817 0 762 3 721 3 c 0
 680 3 637 0 599 -4 c 1
 595 2 594 25 599 32 c 1
 612 33 645 37 650 50 c 0
 658 70 658 100 658 142 c 2
 658 219 l 2
 658 289 644 356 592 356 c 0
 553 356 500 323 500 303 c 8
 500 301 500 299 500 297 c 0
 502 270 504 239 504 205 c 2
 504 142 l 2
 504 100 504 70 512 50 c 0
 517 37 560 33 573 32 c 1
 578 25 577 2 573 -4 c 1
 535 0 482 3 441 3 c 0
 400 3 355 0 317 -4 c 1
 313 2 312 25 317 32 c 1
 330 33 365 37 370 50 c 0
 378 70 377 100 377 142 c 2
 377 219 l 2
 377 289 364 356 312 356 c 0xbc
 273 356 226 322 226 302 c 2
 226 142 l 2
 226 106 226 70 234 50 c 0
 239 37 276 33 289 32 c 1
 294 25 293 2 289 -4 c 1
 251 0 203 3 162 3 c 0
 121 3 67 0 29 -4 c 1
 25 2 24 25 29 32 c 1
 42 33 86 37 91 50 c 0
 99 70 99 100 99 142 c 2
 99 254 l 2
 99 264 98 319 90 334 c 0
 82 349 36 354 29 354 c 1
 26 356 25 384 30 384 c 1xdc
 104 390 183 417 220 436 c 1
 227 434 237 422 237 419 c 1
 234 411 226 364 227 363 c 0
 227 360 227 358 228 357 c 1
 230 357 233 360 235 362 c 0
 262 393 326 436 371 436 c 0xbc
EndSplineSet
Substitution2: "'smcp' Lowercase to Small Capitals in Latin lookup 0 subtable" m.sc
EndChar
StartChar: n
Encoding: 110 110 78
Width: 582
Flags: W
HStem: -4 36<26 91 234 292 317 370 512 577> 354 30<27 86> 356 1<228 312> 416 20G<202 223>
VStem: 99 127<40 331> 377 127<40 327>
LayerCount: 2
Fore
SplineSet
371 436 m 0xbc
 482 436 504 359 504 205 c 2
 504 142 l 2
 504 100 504 70 512 50 c 0
 517 37 562 33 575 32 c 1
 580 25 579 2 575 -4 c 1
 537 0 482 3 441 3 c 0
 400 3 357 0 319 -4 c 1
 315 2 314 25 319 32 c 1
 332 33 365 37 370 50 c 0
 378 70 377 100 377 142 c 2
 377 219 l 2
 377 289 364 356 312 356 c 0xbc
 273 356 226 322 226 302 c 2
 226 142 l 2
 226 106 226 70 234 50 c 0
 239 37 276 33 289 32 c 1
 294 25 293 2 289 -4 c 1
 251 0 203 3 162 3 c 0
 121 3 67 0 29 -4 c 1
 25 2 24 25 29 32 c 1
 42 33 86 37 91 50 c 0
 99 70 99 100 99 142 c 2
 99 254 l 2
 99 264 98 319 90 334 c 0
 82 349 36 354 29 354 c 1
 26 356 25 384 30 384 c 1xdc
 104 390 183 417 220 436 c 1
 226 436 237 424 237 419 c 1
 235 411 227 364 227 363 c 0
 227 360 227 358 228 357 c 1
 230 357 233 360 235 362 c 0
 262 393 326 436 371 436 c 0xbc
EndSplineSet
Substitution2: "'smcp' Lowercase to Small Capitals in Latin lookup 0 subtable" n.sc
EndChar
StartChar: o
Encoding: 111 111 79
Width: 519
Flags: W
HStem: -7 41<224 315> 396 40<204 292>
VStem: 31 139<116 306> 350 139<124 315>
LayerCount: 2
Fore
SplineSet
248 396 m 3
 177 396 170 302 170 231 c 27
 170 145 200 34 271 34 c 3
 342 34 350 127 350 197 c 27
 350 284 319 396 248 396 c 3
259 437 m 0
 394 437 488 344 488 220 c 0
 488 97 390 -7 261 -7 c 0
 125 -7 31 89 31 212 c 0
 31 335 131 437 259 437 c 0
EndSplineSet
Substitution2: "'smcp' Lowercase to Small Capitals in Latin lookup 0 subtable" o.sc
EndChar
StartChar: p
Encoding: 112 112 80
Width: 540
Flags: W
HStem: -213 36<11 76 218 283> -8 43<224 318> 354 30<11 70> 366 71<259 324>
VStem: 83 127<-169 1 49 344> 369 141<132 316>
LayerCount: 2
Fore
SplineSet
318 438 m 0xdc
 436 438 509 337 509 229 c 0
 509 80 377 -8 270 -8 c 0
 243 -8 217 1 213 1 c 1
 210 1 210 -3 210 -15 c 2
 210 -67 l 2
 210 -109 210 -139 218 -159 c 0
 223 -172 268 -176 281 -177 c 1
 286 -184 285 -207 281 -213 c 1
 243 -209 188 -206 147 -206 c 0
 106 -206 51 -209 13 -213 c 1
 9 -207 8 -184 13 -177 c 1
 26 -176 71 -172 76 -159 c 0
 84 -139 83 -109 83 -67 c 2
 83 254 l 2
 83 264 83 319 75 334 c 0
 67 349 20 354 13 354 c 1
 10 356 9 384 14 384 c 1xec
 88 390 167 417 204 436 c 1
 211 434 221 422 221 419 c 1
 219 413 212 402 212 386 c 0
 212 380 214 378 216 380 c 0
 245 411 288 438 318 438 c 0xdc
264 366 m 0xdc
 228 366 210 344 210 339 c 2
 210 94 l 2
 210 55 243 35 277 35 c 0
 309 35 369 81 369 194 c 0
 369 295 343 366 264 366 c 0xdc
EndSplineSet
Substitution2: "'smcp' Lowercase to Small Capitals in Latin lookup 0 subtable" p.sc
EndChar
StartChar: q
Encoding: 113 113 81
Width: 521
Flags: HW
LayerCount: 2
Fore
SplineSet
256 385 m 0
 240 385 226 381 214 372 c 128
 202 363 193 352 187 337 c 128
 181 322 177 306 174 290 c 128
 171 274 170 256 170 237 c 0
 170 215 172 194 175 174 c 128
 178 154 184 134 191 116 c 128
 198 98 208 83 222 72 c 128
 236 61 252 55 270 55 c 0
 281 55 290 57 300 60 c 128
 310 63 316 66 321 70 c 128
 326 74 328 76 328 78 c 2
 328 336 l 2
 328 339 327 343 324 348 c 128
 321 353 316 358 311 364 c 128
 306 370 298 375 288 379 c 128
 278 383 268 385 256 385 c 0
293 436 m 0
 306 436 327 431 354 424 c 128
 381 417 399 413 408 413 c 0
 418 413 429 415 443 420 c 1
 446 419 452 415 458 409 c 128
 464 403 467 399 467 396 c 1
 459 377 455 339 455 284 c 2
 455 -67 l 2
 455 -115 458 -146 463 -159 c 0
 466 -168 487 -174 525 -177 c 1
 527 -181 529 -186 529 -195 c 128
 529 -204 527 -210 525 -213 c 1
 481 -208 437 -206 392 -206 c 128
 347 -206 302 -208 258 -213 c 1
 256 -210 255 -204 255 -195 c 128
 255 -186 256 -181 258 -177 c 1
 296 -174 317 -168 320 -159 c 0
 325 -146 328 -115 328 -67 c 2
 328 17 l 2
 328 20 328 20 328 22 c 128
 328 23 327 25 327 27 c 128
 327 29 326 30 325 30 c 128
 324 30 323 30 322 29 c 0
 312 21 296 13 274 5 c 128
 252 -3 231 -8 211 -8 c 0
 162 -8 119 11 84 50 c 128
 49 89 31 135 31 188 c 0
 31 225 39 259 55 291 c 128
 71 323 91 348 116 369 c 128
 141 390 169 406 200 418 c 128
 231 430 262 436 293 436 c 0
EndSplineSet
Substitution2: "'smcp' Lowercase to Small Capitals in Latin lookup 0 subtable" q.sc
EndChar
StartChar: r
Encoding: 114 114 82
Width: 898
Flags: W
LayerCount: 2
Fore
SplineSet
727 894 m 11,0,1
 816 894 816 894 853 860 c 1,2,3
 860 849 860 849 867.5 820 c 128,-1,4
 875 791 875 791 875 762 c 0,5,6
 875 707 875 707 839 655.5 c 128,-1,7
 803 604 803 604 755 604 c 0,8,9
 742 604 742 604 728.5 610 c 128,-1,10
 715 616 715 616 708.5 620.5 c 128,-1,11
 702 625 702 625 686 639 c 128,-1,12
 670 653 670 653 669 654 c 0,13,14
 666 657 666 657 657 665.5 c 128,-1,15
 648 674 648 674 643.5 677.5 c 128,-1,16
 639 681 639 681 631 686.5 c 128,-1,17
 623 692 623 692 615 694 c 128,-1,18
 607 696 607 696 597 696 c 0,19,20
 542 696 542 696 502.5 636 c 128,-1,21
 463 576 463 576 463 534 c 2,22,-1
 463 290 l 2,23,24
 463 142 463 142 479 102 c 0,25,26
 489 77 489 77 626 66 c 1,27,28
 633 55 633 55 632.5 28 c 128,-1,29
 632 1 632 1 626 -8 c 1,30,31
 490 6 490 6 333 6 c 0,32,33
 196 6 196 6 59 -8 c 1,34,35
 53 1 53 1 52.5 28 c 128,-1,36
 52 55 52 55 59 66 c 1,37,38
 177 75 177 75 187 102 c 0,39,40
 203 142 203 142 203 290 c 2,41,-1
 203 520 l 2,42,43
 203 650 203 650 185 684 c 0,44,45
 175 703 175 703 128.5 713.5 c 128,-1,46
 82 724 82 724 59 724 c 1,47,48
 54 727 54 727 54 756.5 c 128,-1,49
 54 786 54 786 61 786 c 0,50,51
 165 794 165 794 274.5 826 c 128,-1,52
 384 858 384 858 451 892 c 1,53,54
 461 889 461 889 473 876 c 128,-1,55
 485 863 485 863 485 858 c 1,56,57
 481 846 481 846 473 784 c 128,-1,58
 465 722 465 722 465 700 c 0,59,60
 465 695 465 695 467.5 693 c 128,-1,61
 470 691 470 691 473 691.5 c 128,-1,62
 476 692 476 692 477 694 c 0,63,64
 499 733 499 733 519.5 762.5 c 128,-1,65
 540 792 540 792 571.5 825 c 128,-1,66
 603 858 603 858 642.5 876 c 128,-1,67
 682 894 682 894 727 894 c 11,0,1
EndSplineSet
Substitution2: "'smcp' Lowercase to Small Capitals in Latin lookup 0 subtable" r.sc
EndChar
StartChar: s
Encoding: 115 115 83
Width: 808
Flags: W
LayerCount: 2
Fore
SplineSet
448 896 m 0,0,1
 490 896 490 896 526.5 890.5 c 128,-1,2
 563 885 563 885 612 872.5 c 128,-1,3
 661 860 661 860 672 858 c 1,4,5
 685 803 685 803 699.5 719.5 c 128,-1,6
 714 636 714 636 714 612 c 0,7,8
 714 606 714 606 702 602 c 128,-1,9
 690 598 690 598 678 598 c 0,10,11
 664 598 664 598 640 614 c 1,12,13
 595 816 595 816 428 816 c 0,14,15
 377 816 377 816 345.5 788 c 128,-1,16
 314 760 314 760 314 708 c 0,17,18
 314 683 314 683 323.5 661.5 c 128,-1,19
 333 640 333 640 346.5 625.5 c 128,-1,20
 360 611 360 611 383.5 596 c 128,-1,21
 407 581 407 581 425 572.5 c 128,-1,22
 443 564 443 564 473 551 c 128,-1,23
 503 538 503 538 518 530 c 0,24,25
 613.611065361 482.19446732 613.611065361 482.19446732 646.958195397 455.200738912 c 0,26,27
 734 384.74241668 734 384.74241668 734 260 c 0,28,29
 734 188 734 188 702 133 c 128,-1,30
 670 78 670 78 614.5 46.5 c 128,-1,31
 559 15 559 15 490 -0.5 c 128,-1,32
 421 -16 421 -16 340 -16 c 0,33,34
 309 -16 309 -16 271 -10.5 c 128,-1,35
 233 -5 233 -5 210.5 0 c 128,-1,36
 188 5 188 5 149 15 c 128,-1,37
 110 25 110 25 106 26 c 1,38,39
 101 56 101 56 95.5 157.5 c 128,-1,40
 90 259 90 259 90 286 c 0,41,42
 90 300 90 300 120 300 c 0,43,44
 132 300 132 300 146 294 c 128,-1,45
 160 288 160 288 164 280 c 1,46,47
 174 218 174 218 197.5 173.5 c 128,-1,48
 221 129 221 129 253 106.5 c 128,-1,49
 285 84 285 84 316 74 c 128,-1,50
 347 64 347 64 380 64 c 0,51,52
 431 64 431 64 462.5 96 c 128,-1,53
 494 128 494 128 494 172 c 0,54,55
 494 201 494 201 482.5 223.5 c 128,-1,56
 471 246 471 246 447.5 263.5 c 128,-1,57
 424 281 424 281 402.5 293 c 128,-1,58
 381 305 381 305 344.5 322 c 128,-1,59
 308 339 308 339 288 350 c 0,60,61
 238 377 238 377 204.5 401 c 128,-1,62
 171 425 171 425 139.5 457.5 c 128,-1,63
 108 490 108 490 92 530.5 c 128,-1,64
 76 571 76 571 76 620 c 0,65,66
 76 691 76 691 111.5 746.5 c 128,-1,67
 147 802 147 802 203.5 833.5 c 128,-1,68
 260 865 260 865 322.5 880.5 c 128,-1,69
 385 896 385 896 448 896 c 0,0,1
EndSplineSet
Substitution2: "'smcp' Lowercase to Small Capitals in Latin lookup 0 subtable" s.sc
EndChar
StartChar: t
Encoding: 116 116 84
Width: 684
Flags: HW
LayerCount: 2
Fore
SplineSet
424 856 m 1
 652 856 l 2
 660 856 664 847.333333333 664 830 c 0
 664 821.333333333 659 809.666666667 649 795 c 128
 639 780.333333333 628.666666667 769.333333333 618 762 c 1
 424 762 l 1
 424 266 l 2
 424 213.333333333 432.666666667 174.833333333 450 150.5 c 128
 467.333333333 126.166666667 494.666666667 114 532 114 c 0
 552.666666667 114 573.5 120 594.5 132 c 128
 615.5 144 630 154 638 162 c 1
 647.333333333 152.666666667 652 143.333333333 652 134 c 0
 652 129.333333333 650 122.5 646 113.5 c 128
 642 104.5 638.666666667 98.6666666667 636 96 c 0
 625.333333333 84 612 71.1666666667 596 57.5 c 128
 580 43.8333333333 555.166666667 28.5 521.5 11.5 c 128
 487.833333333 -5.5 455.333333333 -14 424 -14 c 0
 398 -14 373.166666667 -11.1666666667 349.5 -5.5 c 128
 325.833333333 0.166666666667 302.5 10.1666666667 279.5 24.5 c 128
 256.5 38.8333333333 236.666666667 56.8333333333 220 78.5 c 128
 203.333333333 100.166666667 189.833333333 128 179.5 162 c 128
 169.166666667 196 164 234.666666667 164 278 c 2
 164 762 l 1
 22 762 l 1
 15.3333333333 764.666666667 12 773.333333333 12 788 c 1
 29.3333333333 812 50.6666666667 834.666666667 76 856 c 1
 164 856 l 1
 164 962 l 1
 194 987.333333333 236 1028.5 290 1085.5 c 128
 344 1142.5 372 1172 374 1174 c 1
 385.333333333 1180.66666667 396.166666667 1183.83333333 406.5 1183.5 c 128
 416.833333333 1183.16666667 422.666666667 1180 424 1174 c 1
 424 856 l 1
EndSplineSet
Substitution2: "'smcp' Lowercase to Small Capitals in Latin lookup 0 subtable" t.sc
EndChar
StartChar: u
Encoding: 117 117 85
Width: 552
Flags: HW
LayerCount: 2
Fore
SplineSet
347 254 m 2
 347 296 344 323 338 334 c 0
 335 340 326 345 311 348 c 128
 296 351 284 354 277 354 c 1
 275 355 274 359 274 369 c 128
 274 379 276 384 278 384 c 0
 312 387 346 393 382 403 c 128
 418 413 446 425 468 436 c 1
 471 435 475 432 479 428 c 128
 483 424 485 421 485 419 c 1
 484 415 481 406 479 393 c 128
 477 380 476 370 475 363 c 1
 474 349 474 329 474 302 c 2
 474 105 l 2
 474 87 477 75 483 68 c 128
 489 61 504 59 527 59 c 1
 529 57 530 53 530 46 c 128
 530 39 528 33 524 27 c 1
 507 25 485 22 459 16 c 128
 433 10 410 5 390 0 c 128
 370 -5 359 -7 356 -7 c 0
 354 -7 352 -4 350 -0 c 128
 348 4 347 10 347 17 c 2
 347 32 l 2
 347 37 346 38 344 37 c 0
 336 32 328 27 317 21 c 128
 306 15 290 10 269 4 c 128
 248 -2 228 -5 207 -5 c 0
 184 -5 164 0 147 9 c 128
 130 18 117 32 108 49 c 128
 99 66 92 84 88 104 c 128
 84 124 82 146 82 170 c 2
 82 254 l 2
 82 296 79 323 73 334 c 0
 70 340 60 345 45 348 c 128
 30 351 18 354 11 354 c 1
 9 355 9 359 9 369 c 128
 9 379 10 384 12 384 c 0
 46 387 80 393 116 403 c 128
 152 413 181 425 203 436 c 1
 206 435 209 432 213 428 c 128
 217 424 219 421 219 419 c 1
 218 415 216 406 214 393 c 128
 212 380 210 370 209 363 c 1
 208 349 208 329 208 302 c 2
 208 214 l 2
 208 159 214 119 225 93 c 128
 236 67 256 55 285 55 c 0
 298 55 312 59 326 67 c 128
 340 75 347 84 347 91 c 2
 347 254 l 2
EndSplineSet
Substitution2: "'smcp' Lowercase to Small Capitals in Latin lookup 0 subtable" u.sc
EndChar
StartChar: v
Encoding: 118 118 86
Width: 1066
Flags: HW
LayerCount: 2
Fore
SplineSet
270 872 m 0
 360 872 444 876.666666667 522 886 c 1
 527.333333333 880.666666667 530 868.5 530 849.5 c 128
 530 830.5 527.333333333 818 522 812 c 1
 504 812 479.833333333 806.666666667 449.5 796 c 128
 419.166666667 785.333333333 404 772.666666667 404 758 c 0
 404 744.666666667 405.333333333 734.666666667 408 728 c 1
 614 334 l 1
 675.333333333 468.666666667 728 585.333333333 772 684 c 1
 786.666666667 713.333333333 794 738 794 758 c 0
 794 769.333333333 787.666666667 779 775 787 c 128
 762.333333333 795 746.666666667 800.666666667 728 804 c 128
 709.333333333 807.333333333 694 809.5 682 810.5 c 128
 670 811.5 660 812 652 812 c 1
 647.333333333 816.666666667 644.833333333 828.5 644.5 847.5 c 128
 644.166666667 866.5 646 879.333333333 650 886 c 1
 720 876.666666667 790 872 860 872 c 0
 928.666666667 872 998 876.666666667 1068 886 c 1
 1072 880.666666667 1074.16666667 868.833333333 1074.5 850.5 c 128
 1074.83333333 832.166666667 1072.66666667 819.333333333 1068 812 c 1
 1054.66666667 812 1038.83333333 810.833333333 1020.5 808.5 c 128
 1002.16666667 806.166666667 980.666666667 799.5 956 788.5 c 128
 931.333333333 777.5 914.666666667 763.333333333 906 746 c 2
 598 90 l 1
 560 15.3333333333 530 -22 508 -22 c 0
 502.666666667 -22 494.666666667 -16.6666666667 484 -6 c 1
 459.333333333 45.3333333333 406.333333333 155.5 325 324.5 c 128
 243.666666667 493.5 177.333333333 630.666666667 126 736 c 1
 114.666666667 762 94.8333333333 781.166666667 66.5 793.5 c 128
 38.1666666667 805.833333333 16 812 0 812 c 1
 -5.33333333333 820.666666667 -7.83333333333 833.5 -7.5 850.5 c 128
 -7.16666666667 867.5 -4.66666666667 879.333333333 0 886 c 1
 80.6666666667 876.666666667 170.666666667 872 270 872 c 0
EndSplineSet
Substitution2: "'smcp' Lowercase to Small Capitals in Latin lookup 0 subtable" v.sc
EndChar
StartChar: w
Encoding: 119 119 87
Width: 1578
Flags: W
LayerCount: 2
Fore
SplineSet
256 872 m 0,0,1
 405 872 405 872 522 886 c 1,2,3
 530 878 530 878 530 849.5 c 128,-1,4
 530 821 530 821 522 812 c 1,5,6
 495 812 495 812 449.5 796 c 128,-1,7
 404 780 404 780 404 758 c 0,8,9
 404 738 404 738 408 728 c 2,10,-1
 602 344 l 1,11,12
 734 640 734 640 734 670 c 128,-1,13
 734 700 734 700 716 736 c 0,14,15
 697 773 697 773 654.5 792.5 c 128,-1,16
 612 812 612 812 590 812 c 1,17,18
 580 825 580 825 580.5 850.5 c 128,-1,19
 581 876 581 876 588 886 c 1,20,21
 659 877 659 877 858 872 c 1,22,23
 993 872 993 872 1110 886 c 1,24,25
 1118 878 1118 878 1118 849.5 c 128,-1,26
 1118 821 1118 821 1110 812 c 1,27,28
 1083 812 1083 812 1037.5 796 c 128,-1,29
 992 780 992 780 992 758 c 0,30,31
 992 738 992 738 996 728 c 2,32,-1
 1164 360 l 1,33,34
 1236 538 1236 538 1300 684 c 1,35,36
 1322 739 1322 739 1322 758 c 0,37,38
 1322 775 1322 775 1303 787 c 128,-1,39
 1284 799 1284 799 1256 804 c 128,-1,40
 1228 809 1228 809 1210 810.5 c 128,-1,41
 1192 812 1192 812 1180 812 c 1,42,43
 1173 819 1173 819 1172.5 847.5 c 128,-1,44
 1172 876 1172 876 1178 886 c 1,45,46
 1283 872 1283 872 1388 872 c 0,47,48
 1473 872 1473 872 1578 886 c 1,49,50
 1584 878 1584 878 1584.5 850.5 c 128,-1,51
 1585 823 1585 823 1578 812 c 1,52,53
 1469 812 1469 812 1442 750 c 0,54,55
 1283 381 1283 381 1148 88 c 0,56,57
 1124 35 1124 35 1094.5 6.5 c 128,-1,58
 1065 -22 1065 -22 1048 -22 c 0,59,60
 1040 -22 1040 -22 1024 -6 c 1,61,62
 868 396 868 396 802 552 c 1,63,64
 774 483 774 483 724.5 367 c 128,-1,65
 675 251 675 251 639.5 169.5 c 2,66,-1
 604 88 l 2,67,68
 581 36 581 36 551 7 c 128,-1,69
 521 -22 521 -22 504 -22 c 0,70,71
 496 -22 496 -22 480 -6 c 1,72,73
 227 532 227 532 126 736 c 1,74,75
 108 775 108 775 65.5 793.5 c 128,-1,76
 23 812 23 812 0 812 c 1,77,78
 -8 825 -8 825 -7.5 850.5 c 128,-1,79
 -7 876 -7 876 0 886 c 1,80,81
 121 872 121 872 256 872 c 0,0,1
EndSplineSet
Substitution2: "'smcp' Lowercase to Small Capitals in Latin lookup 0 subtable" w.sc
EndChar
StartChar: x
Encoding: 120 120 88
Width: 1116
Flags: W
LayerCount: 2
Fore
SplineSet
311 872 m 1,0,1
 446 872 446 872 563 886 c 1,2,3
 570 878 570 878 570 849.5 c 128,-1,4
 570 821 570 821 563 812 c 1,5,6
 535 812 535 812 501 801 c 128,-1,7
 467 790 467 790 467 768 c 0,8,9
 467 765 467 765 487 740 c 2,10,-1
 615 576 l 1,11,12
 769 741 769 741 769 758 c 128,-1,13
 769 775 769 775 750 787 c 128,-1,14
 731 799 731 799 703 804 c 128,-1,15
 675 809 675 809 657 810.5 c 128,-1,16
 639 812 639 812 627 812 c 1,17,18
 620 819 620 819 619.5 847.5 c 128,-1,19
 619 876 619 876 625 886 c 1,20,21
 730 872 730 872 835 872 c 0,22,23
 972 872 972 872 1077 886 c 1,24,25
 1083 878 1083 878 1083.5 850.5 c 128,-1,26
 1084 823 1084 823 1077 812 c 1,27,28
 973 812 973 812 911 748 c 0,29,30
 832 665 832 665 681 492 c 1,31,32
 729 430 729 430 818 318.5 c 128,-1,33
 907 207 907 207 965 132 c 0,34,35
 991 98 991 98 1034 82 c 128,-1,36
 1077 66 1077 66 1099 66 c 1,37,38
 1109 53 1109 53 1108.5 27.5 c 128,-1,39
 1108 2 1108 2 1101 -8 c 1,40,41
 1032 1 1032 1 823 6 c 1,42,43
 686 6 686 6 569 -8 c 1,44,45
 562 -0 562 -0 562 28.5 c 128,-1,46
 562 57 562 57 569 66 c 1,47,48
 597 66 597 66 631 77 c 128,-1,49
 665 88 665 88 665 110 c 0,50,51
 665 113 665 113 645 138 c 2,52,-1
 503 312 l 1,53,54
 489 297 489 297 454 261 c 128,-1,55
 419 225 419 225 392.5 197 c 128,-1,56
 366 169 366 169 352 150 c 0,57,58
 337 130 337 130 337 120 c 0,59,60
 337 103 337 103 356 91 c 128,-1,61
 375 79 375 79 403 74 c 128,-1,62
 431 69 431 69 449 67.5 c 128,-1,63
 467 66 467 66 479 66 c 1,64,65
 486 59 486 59 486.5 30.5 c 128,-1,66
 487 2 487 2 481 -8 c 1,67,68
 376 6 376 6 271 6 c 0,69,70
 122 6 122 6 17 -8 c 1,71,72
 11 -0 11 -0 10.5 27.5 c 128,-1,73
 10 55 10 55 17 66 c 1,74,75
 50 66 50 66 101 84.5 c 128,-1,76
 152 103 152 103 185 134 c 0,77,78
 242 189 242 189 328.5 282 c 128,-1,79
 415 375 415 375 437 398 c 1,80,81
 401 447 401 447 352.5 512.5 c 128,-1,82
 304 578 304 578 263.5 632.5 c 128,-1,83
 223 687 223 687 175 748 c 0,84,85
 149 781 149 781 105 796.5 c 128,-1,86
 61 812 61 812 37 812 c 1,87,88
 27 825 27 825 27.5 850.5 c 128,-1,89
 28 876 28 876 35 886 c 1,90,91
 105 877 105 877 311 872 c 1,0,1
EndSplineSet
Substitution2: "'smcp' Lowercase to Small Capitals in Latin lookup 0 subtable" x.sc
EndChar
StartChar: y
Encoding: 121 121 89
Width: 1068
Flags: HW
LayerCount: 2
Fore
SplineSet
270 872 m 0
 360 872 444 876.666666667 522 886 c 1
 527.333333333 880.666666667 530 868.5 530 849.5 c 128
 530 830.5 527.333333333 818 522 812 c 1
 504 812 479.833333333 806.666666667 449.5 796 c 128
 419.166666667 785.333333333 404 772.666666667 404 758 c 0
 404 744.666666667 405.333333333 734.666666667 408 728 c 1
 614 334 l 1
 675.333333333 468.666666667 728 585.333333333 772 684 c 1
 786.666666667 713.333333333 794 738 794 758 c 0
 794 769.333333333 787.666666667 779 775 787 c 128
 762.333333333 795 746.666666667 800.666666667 728 804 c 128
 709.333333333 807.333333333 694 809.5 682 810.5 c 128
 670 811.5 660 812 652 812 c 1
 647.333333333 816.666666667 644.833333333 828.5 644.5 847.5 c 128
 644.166666667 866.5 646 879.333333333 650 886 c 1
 720 876.666666667 790 872 860 872 c 0
 928.666666667 872 998 876.666666667 1068 886 c 1
 1072 880.666666667 1074.16666667 868.833333333 1074.5 850.5 c 128
 1074.83333333 832.166666667 1072.66666667 819.333333333 1068 812 c 1
 1054.66666667 812 1038.83333333 810.833333333 1020.5 808.5 c 128
 1002.16666667 806.166666667 980.666666667 799.5 956 788.5 c 128
 931.333333333 777.5 914.666666667 763.333333333 906 746 c 0
 770 457.333333333 660 225.333333333 576 50 c 0
 568.666666667 34 555.333333333 5.33333333333 536 -36 c 128
 516.666666667 -77.3333333333 502.833333333 -106.166666667 494.5 -122.5 c 128
 486.166666667 -138.833333333 473.333333333 -161.166666667 456 -189.5 c 128
 438.666666667 -217.833333333 420 -244.333333333 400 -269 c 0
 310.666666667 -380.333333333 226 -436 146 -436 c 0
 106 -436 73.6666666667 -425.5 49 -404.5 c 128
 24.3333333333 -383.5 12 -358.666666667 12 -330 c 0
 12 -288.666666667 27.3333333333 -257.333333333 58 -236 c 1
 144 -236 210.833333333 -226 258.5 -206 c 128
 306.166666667 -186 349.333333333 -144 388 -80 c 0
 408 -46 431.333333333 1.33333333333 458 62 c 1
 126 736 l 1
 114.666666667 762 94.8333333333 781.166666667 66.5 793.5 c 128
 38.1666666667 805.833333333 16 812 0 812 c 1
 -5.33333333333 820.666666667 -7.83333333333 833.5 -7.5 850.5 c 128
 -7.16666666667 867.5 -4.66666666667 879.333333333 0 886 c 1
 80.6666666667 876.666666667 170.666666667 872 270 872 c 0
EndSplineSet
Substitution2: "'smcp' Lowercase to Small Capitals in Latin lookup 0 subtable" y.sc
EndChar
StartChar: z
Encoding: 122 122 90
Width: 449
Flags: HW
LayerCount: 2
Fore
SplineSet
146 418 m 2
 281 418 l 2
 322 418 364 421 407 426 c 1
 409 423 410 414 410 402 c 1
 173 45 l 1
 284 45 l 2
 311 45 334 56 352 77 c 128
 370 98 382 121 387 144 c 0
 388 149 392 150 399 150 c 0
 402 150 406 150 410 148 c 128
 414 146 417 145 419 144 c 128
 421 143 423 142 424 141 c 1
 420 130 415 111 408 88 c 128
 401 65 397 45 392 27 c 2
 385 0 l 1
 38 0 l 1
 31 5 28 11 28 17 c 128
 28 23 29 28 32 33 c 1
 251 372 l 1
 204 373 170 373 149 373 c 0
 140 373 131 371 123 366 c 128
 115 361 108 357 103 351 c 128
 98 345 93 338 88 328 c 128
 83 318 80 310 78 304 c 128
 76 298 73 290 70 281 c 0
 69 276 62 274 48 274 c 0
 40 274 36 275 36 278 c 1
 45 326 51 375 54 424 c 1
 92 420 123 418 146 418 c 2
EndSplineSet
Substitution2: "'smcp' Lowercase to Small Capitals in Latin lookup 0 subtable" z.sc
EndChar
StartChar: braceleft
Encoding: 123 123 91
Width: 596
Flags: HW
LayerCount: 2
Fore
SplineSet
214 848 m 0
 214 862 212.666666667 877 210 893 c 128
 207.333333333 909 205 921.166666667 203 929.5 c 128
 201 937.833333333 197 951.833333333 191 971.5 c 128
 185 991.166666667 181.333333333 1003.33333333 180 1008 c 0
 166.666666667 1051.33333333 160 1092.66666667 160 1132 c 128
 160 1171.33333333 169.666666667 1211 189 1251 c 128
 208.333333333 1291 232.666666667 1326.16666667 262 1356.5 c 128
 291.333333333 1386.83333333 323 1414.33333333 357 1439 c 128
 391 1463.66666667 423.333333333 1483 454 1497 c 128
 484.666666667 1511 510 1518.66666667 530 1520 c 0
 534 1520 538.666666667 1513.16666667 544 1499.5 c 128
 549.333333333 1485.83333333 549.333333333 1475.33333333 544 1468 c 1
 506.666666667 1448 471.333333333 1415.83333333 438 1371.5 c 128
 404.666666667 1327.16666667 388 1276 388 1218 c 0
 388 1207.33333333 388.166666667 1197.16666667 388.5 1187.5 c 128
 388.833333333 1177.83333333 389.833333333 1168.5 391.5 1159.5 c 128
 393.166666667 1150.5 394.333333333 1143.5 395 1138.5 c 128
 395.666666667 1133.5 397.5 1126.66666667 400.5 1118 c 128
 403.5 1109.33333333 405.333333333 1104 406 1102 c 128
 406.666666667 1100 409 1094 413 1084 c 128
 417 1074 419 1068.66666667 419 1068 c 0
 435.666666667 1024.66666667 444 974.666666667 444 918 c 0
 444 877.333333333 434.5 837.333333333 415.5 798 c 128
 396.5 758.666666667 373.666666667 726.333333333 347 701 c 128
 320.333333333 675.666666667 293.166666667 655.166666667 265.5 639.5 c 128
 237.833333333 623.833333333 214.666666667 616 196 616 c 1
 214.666666667 616 237.833333333 608.166666667 265.5 592.5 c 128
 293.166666667 576.833333333 320.333333333 556.333333333 347 531 c 128
 373.666666667 505.666666667 396.5 473.333333333 415.5 434 c 128
 434.5 394.666666667 444 354.666666667 444 314 c 0
 444 257.333333333 435.666666667 207.333333333 419 164 c 0
 418.333333333 162 416.5 157.333333333 413.5 150 c 128
 410.5 142.666666667 408.5 137.666666667 407.5 135 c 128
 406.5 132.333333333 404.833333333 127.5 402.5 120.5 c 128
 400.166666667 113.5 398.5 108 397.5 104 c 128
 396.5 100 395.333333333 94.1666666667 394 86.5 c 128
 392.666666667 78.8333333333 391.666666667 71.6666666667 391 65 c 128
 390.333333333 58.3333333333 389.666666667 50.5 389 41.5 c 128
 388.333333333 32.5 388 23.3333333333 388 14 c 0
 388 -44 404.666666667 -95.1666666667 438 -139.5 c 128
 471.333333333 -183.833333333 506.666666667 -216 544 -236 c 1
 549.333333333 -243.333333333 549.333333333 -253.833333333 544 -267.5 c 128
 538.666666667 -281.166666667 534 -288 530 -288 c 0
 510 -286.666666667 484.666666667 -279 454 -265 c 128
 423.333333333 -251 391 -231.666666667 357 -207 c 128
 323 -182.333333333 291.333333333 -154.833333333 262 -124.5 c 128
 232.666666667 -94.1666666667 208.333333333 -59 189 -19 c 128
 169.666666667 21 160 60.6666666667 160 100 c 0
 160 141.333333333 169.333333333 192 188 252 c 0
 205.333333333 308 214 352 214 384 c 0
 214 433.333333333 196.333333333 477 161 515 c 128
 125.666666667 553 84.6666666667 579.333333333 38 594 c 1
 34 598 32 605.333333333 32 616 c 128
 32 626.666666667 34 634 38 638 c 1
 84.6666666667 652.666666667 125.666666667 679 161 717 c 128
 196.333333333 755 214 798.666666667 214 848 c 0
EndSplineSet
Substitution2: "'smcp' Lowercase to Small Capitals in Latin lookup 0 subtable" braceleft.sc
EndChar
StartChar: bar
Encoding: 124 124 92
Width: 197
Flags: W
VStem: 73 52<-115 747>
LayerCount: 2
Fore
SplineSet
124 -105 m 2
 124 -113 79 -120 77 -120 c 0
 70 -120 73 -116 73 -112 c 2
 73 739 l 1
 73 739 71 745 77 747 c 0
 94 752 112 752 115 752 c 0
 124 752 123 746 123 746 c 1
 124 -105 l 2
EndSplineSet
Substitution2: "'smcp' Lowercase to Small Capitals in Latin lookup 0 subtable" bar.sc
EndChar
StartChar: braceright
Encoding: 125 125 93
Width: 291
Flags: HW
LayerCount: 2
Fore
SplineSet
33 742 m 0
 43 741 55 738 70 731 c 128
 85 724 101 715 118 703 c 128
 135 691 150 677 164 662 c 128
 178 647 191 631 200 611 c 128
 209 591 214 572 214 553 c 0
 214 535 210 512 202 486 c 1
 192 455 188 432 188 414 c 0
 188 390 196 369 213 350 c 128
 230 331 250 319 273 312 c 1
 275 310 276 306 276 301 c 128
 276 296 275 292 273 290 c 1
 250 283 230 270 213 251 c 128
 196 232 188 212 188 188 c 0
 188 173 192 150 201 121 c 1
 210 94 214 70 214 49 c 0
 214 30 209 11 200 -9 c 128
 191 -29 178 -46 164 -61 c 128
 150 -76 135 -89 118 -101 c 128
 101 -113 85 -122 70 -129 c 128
 55 -136 43 -140 33 -141 c 0
 31 -141 29 -138 26 -131 c 128
 23 -124 23 -119 26 -115 c 1
 44 -105 62 -90 78 -68 c 128
 94 -46 103 -21 103 7 c 0
 103 18 102 29 100 39 c 128
 98 49 96 55 95 59 c 128
 94 63 92 69 88 78 c 0
 80 101 75 126 75 153 c 0
 75 173 80 193 89 212 c 128
 98 231 110 247 123 259 c 128
 136 271 148 281 162 289 c 128
 176 297 187 301 196 301 c 1
 187 301 176 304 162 312 c 128
 148 320 136 330 123 342 c 128
 110 354 98 371 89 390 c 128
 80 409 75 428 75 448 c 0
 75 453 75 459 75 463 c 128
 75 467 76 472 76 476 c 128
 76 480 78 484 78 487 c 128
 78 490 79 493 80 497 c 128
 81 501 82 503 82 505 c 128
 82 507 83 509 84 513 c 128
 85 517 86 519 86 520 c 128
 86 521 88 523 89 527 c 128
 90 531 92 532 92 533 c 0
 99 552 103 573 103 595 c 0
 103 623 94 648 78 670 c 128
 62 692 44 707 26 717 c 1
 23 721 23 725 26 732 c 128
 29 739 31 742 33 742 c 0
EndSplineSet
Substitution2: "'smcp' Lowercase to Small Capitals in Latin lookup 0 subtable" braceright.sc
EndChar
StartChar: asciitilde
Encoding: 126 126 94
Width: 537
Flags: W
HStem: 233 59<314 441> 299 59<102 228>
LayerCount: 2
Fore
SplineSet
255 267 m 0
 221 281 182 299 138 299 c 0
 100 299 66 269 54 253 c 1
 51 254 48 257 47 261 c 1
 47 300 109 357 167 357 c 0
 213 357 254 339 288 324 c 0
 321 310 361 292 405 292 c 0
 443 292 477 322 489 338 c 1
 492 337 495 334 496 330 c 1
 496 291 434 233 376 233 c 0
 330 233 289 253 255 267 c 0
EndSplineSet
EndChar
StartChar: exclamdown
Encoding: 161 161 96
Width: 241
Flags: W
HStem: 286 146<70 173>
VStem: 48 146<309 410> 57 125<-190 60>
LayerCount: 2
Fore
SplineSet
48 360 m 0xc0
 48 399 80 433 120 433 c 27
 161 433 194 399 194 357 c 0
 194 318 161 286 121 286 c 27
 80 286 48 321 48 360 c 0xc0
117 -205 m 0
 87 -205 57 -181 57 -139 c 0
 57 -112 85 120 98 206 c 1
 102 219 105 227 117 231 c 1
 122 231 134 225 140 215 c 1
 151 150 182 -90 182 -140 c 0xa0
 182 -181 152 -205 117 -205 c 0
EndSplineSet
Substitution2: "'smcp' Lowercase to Small Capitals in Latin lookup 0 subtable" exclamdown.sc
EndChar
StartChar: cent
Encoding: 162 162 97
Width: 470
Flags: W
HStem: -9 82<234 338> 387 51<200 325>
VStem: 43 123<148 284> 274 34<427 467>
LayerCount: 2
Fore
SplineSet
274 470 m 17
 282 470 309 469 309 462 c 1
 228 -37 l 1
 219 -37 196 -34 193 -28 c 9
 274 470 l 17
EndSplineSet
Refer: 67 99 N 1 0 0 1 13 0 2
EndChar
StartChar: sterling
Encoding: 163 163 98
Width: 956
UnlinkRmOvrlpSave: 1
Flags: HW
LayerCount: 2
Fore
SplineSet
633 1272 m 0
 664.333333333 1272 689.833333333 1268.33333333 709.5 1261 c 128
 729.166666667 1253.66666667 751 1242.66666667 775 1228 c 1
 779 1224 783 1214.83333333 787 1200.5 c 128
 791 1186.16666667 793 1174 793 1164 c 0
 793 1128.66666667 783.666666667 1100.16666667 765 1078.5 c 128
 746.333333333 1056.83333333 723 1046 695 1046 c 0
 669.666666667 1046 649.666666667 1050.33333333 635 1059 c 128
 620.333333333 1067.66666667 606.333333333 1080.66666667 593 1098 c 0
 582.333333333 1111.33333333 573.833333333 1121.5 567.5 1128.5 c 128
 561.166666667 1135.5 552.333333333 1142.5 541 1149.5 c 128
 529.666666667 1156.5 518.333333333 1160 507 1160 c 0
 487.666666667 1160 471.333333333 1154.16666667 458 1142.5 c 128
 444.666666667 1130.83333333 434.5 1113.5 427.5 1090.5 c 128
 420.5 1067.5 415.666666667 1042.33333333 413 1015 c 128
 410.333333333 987.666666667 409 955.333333333 409 918 c 0
 409 866 422.333333333 803 449 729 c 128
 475.666666667 655 489 600.666666667 489 566 c 0
 489 499.333333333 473.666666667 436.666666667 443 378 c 128
 412.333333333 319.333333333 380.333333333 274.666666667 347 244 c 1
 383 264 426.333333333 274 477 274 c 0
 500.333333333 274 538 259.666666667 590 231 c 128
 642 202.333333333 686.333333333 188 723 188 c 0
 741 188 757 191 771 197 c 128
 785 203 797.166666667 212.5 807.5 225.5 c 128
 817.833333333 238.5 824.833333333 247.833333333 828.5 253.5 c 128
 832.166666667 259.166666667 837.666666667 268.666666667 845 282 c 1
 849 284 854.333333333 283.5 861 280.5 c 128
 867.666666667 277.5 873 273.333333333 877 268 c 0
 883.666666667 260 887 247.333333333 887 230 c 1
 880.333333333 210 870.166666667 187.833333333 856.5 163.5 c 128
 842.833333333 139.166666667 825 112.666666667 803 84 c 128
 781 55.3333333333 753.666666667 31.5 721 12.5 c 128
 688.333333333 -6.5 653.666666667 -16 617 -16 c 0
 587 -16 557.166666667 -9.83333333333 527.5 2.5 c 128
 497.833333333 14.8333333333 472.833333333 28.3333333333 452.5 43 c 128
 432.166666667 57.6666666667 406.333333333 71.1666666667 375 83.5 c 128
 343.666666667 95.8333333333 311.666666667 102 279 102 c 0
 267 102 252.833333333 97.1666666667 236.5 87.5 c 128
 220.166666667 77.8333333333 206.666666667 68.1666666667 196 58.5 c 128
 185.333333333 48.8333333333 171.666666667 35.3333333333 155 18 c 128
 138.333333333 0.666666666667 128.333333333 -9.33333333333 125 -12 c 1
 117 -12 109.666666667 -7 103 3 c 128
 96.3333333333 13 93 22.6666666667 93 32 c 0
 93 42.6666666667 95.3333333333 54.1666666667 100 66.5 c 128
 104.666666667 78.8333333333 111.5 91.1666666667 120.5 103.5 c 128
 129.5 115.833333333 137.666666667 126.333333333 145 135 c 128
 152.333333333 143.666666667 161.5 154 172.5 166 c 128
 183.5 178 190.333333333 185.333333333 193 188 c 0
 216.333333333 214 233.5 252.666666667 244.5 304 c 128
 255.5 355.333333333 261 408.666666667 261 464 c 0
 261 501.333333333 250.666666667 557.666666667 230 633 c 128
 209.333333333 708.333333333 199 753.333333333 199 768 c 0
 199 833.333333333 212.833333333 897.666666667 240.5 961 c 128
 268.166666667 1024.33333333 303.166666667 1078.33333333 345.5 1123 c 128
 387.833333333 1167.66666667 434.666666667 1203.66666667 486 1231 c 128
 537.333333333 1258.33333333 586.333333333 1272 633 1272 c 0
135 698 m 2
 767 698 l 1
 776.333333333 690 779.666666667 680 777 668 c 128
 774.333333333 656 769.833333333 644.833333333 763.5 634.5 c 128
 757.166666667 624.166666667 751.666666667 617.333333333 747 614 c 1
 95 614 l 1
 89 620 92 635.5 104 660.5 c 128
 116 685.5 126.333333333 698 135 698 c 2
EndSplineSet
EndChar
StartChar: currency
Encoding: 164 164 99
Width: 1126
Flags: W
LayerCount: 2
Fore
SplineSet
576 320 m 0,0,1
 649 320 649 320 693.5 396.5 c 128,-1,2
 738 473 738 473 738 588 c 0,3,4
 738 725 738 725 682.5 818.5 c 128,-1,5
 627 912 627 912 548 912 c 0,6,7
 474 912 474 912 427 832.5 c 128,-1,8
 380 753 380 753 380 638 c 0,9,10
 380 503 380 503 438 411.5 c 128,-1,11
 496 320 496 320 576 320 c 0,0,1
786 910 m 1,12,-1
 904 1020 l 2,13,14
 912 1028 912 1028 929 1015.5 c 128,-1,15
 946 1003 946 1003 962.5 979 c 128,-1,16
 979 955 979 955 986 932 c 1,17,-1
 866 820 l 1,18,19
 924 723 924 723 924 614 c 0,20,21
 924 495 924 495 858 398 c 1,22,-1
 966 282 l 2,23,24
 974 274 974 274 961.5 257 c 128,-1,25
 949 240 949 240 925 223.5 c 128,-1,26
 901 207 901 207 878 200 c 1,27,-1
 774 310 l 1,28,29
 679 240 679 240 562 240 c 0,30,31
 433 240 433 240 334 320 c 1,32,-1
 228 220 l 2,33,34
 220 212 220 212 203 224.5 c 128,-1,35
 186 237 186 237 169.5 261 c 128,-1,36
 153 285 153 285 146 308 c 1,37,-1
 254 410 l 1,38,39
 194 505 194 505 194 614 c 0,40,41
 194 745 194 745 270 846 c 1,42,-1
 166 958 l 2,43,44
 158 966 158 966 170.5 983 c 128,-1,45
 183 1000 183 1000 207 1016.5 c 128,-1,46
 231 1033 231 1033 254 1040 c 1,47,-1
 358 930 l 1,48,49
 448 992 448 992 562 992 c 0,50,51
 688 992 688 992 786 910 c 1,12,-1
EndSplineSet
EndChar
StartChar: yen
Encoding: 165 165 100
Width: 1384
UnlinkRmOvrlpSave: 1
Flags: HW
LayerCount: 2
Fore
SplineSet
365 382 m 2
 997 382 l 1
 1006.33333333 374 1009.66666667 364 1007 352 c 128
 1004.33333333 340 999.833333333 328.833333333 993.5 318.5 c 128
 987.166666667 308.166666667 981.666666667 301.333333333 977 298 c 1
 325 298 l 1
 319 304 322 319.5 334 344.5 c 128
 346 369.5 356.333333333 382 365 382 c 2
365 542 m 2
 997 542 l 1
 1006.33333333 534 1009.66666667 524 1007 512 c 128
 1004.33333333 500 999.833333333 488.833333333 993.5 478.5 c 128
 987.166666667 468.166666667 981.666666667 461.333333333 977 458 c 1
 325 458 l 1
 319 464 322 479.5 334 504.5 c 128
 346 529.5 356.333333333 542 365 542 c 2
523 290 m 2
 523 528 l 2
 523 537.333333333 520.666666667 548 516 560 c 0
 504 588 476.666666667 641.666666667 434 721 c 128
 391.333333333 800.333333333 351.833333333 872.666666667 315.5 938 c 2
 261 1036 l 1
 239 1077.33333333 218.333333333 1114 199 1146 c 0
 186.333333333 1167.33333333 166 1183.16666667 138 1193.5 c 128
 110 1203.83333333 85 1210 63 1212 c 1
 58.3333333333 1219.33333333 56.1666666667 1232 56.5 1250 c 128
 56.8333333333 1268 59 1280 63 1286 c 1
 154.333333333 1276.66666667 249.666666667 1272 349 1272 c 0
 445.666666667 1272 539.666666667 1276.66666667 631 1286 c 1
 635 1280 637.166666667 1268 637.5 1250 c 128
 637.833333333 1232 635.666666667 1219.33333333 631 1212 c 0
 630.333333333 1212 626.666666667 1211.83333333 620 1211.5 c 128
 613.333333333 1211.16666667 608.333333333 1210.83333333 605 1210.5 c 128
 601.666666667 1210.16666667 596 1209.5 588 1208.5 c 128
 580 1207.5 573.666666667 1206.33333333 569 1205 c 128
 564.333333333 1203.66666667 558.5 1202.16666667 551.5 1200.5 c 128
 544.5 1198.83333333 538.833333333 1196.66666667 534.5 1194 c 128
 530.166666667 1191.33333333 525.833333333 1188.33333333 521.5 1185 c 128
 517.166666667 1181.66666667 514 1177.66666667 512 1173 c 128
 510 1168.33333333 509 1163.33333333 509 1158 c 128
 509 1152.66666667 513.666666667 1142 523 1126 c 2
 763 684 l 1
 767.666666667 679.333333333 796.166666667 723.166666667 848.5 815.5 c 128
 900.833333333 907.833333333 956.333333333 1008.66666667 1015 1118 c 0
 1021.66666667 1131.33333333 1025 1146.66666667 1025 1164 c 0
 1025 1188.66666667 975.666666667 1204.66666667 877 1212 c 1
 872.333333333 1219.33333333 870.166666667 1232 870.5 1250 c 128
 870.833333333 1268 873 1280 877 1286 c 1
 987 1276.66666667 1062.33333333 1272 1103 1272 c 0
 1137 1272 1178.5 1274.16666667 1227.5 1278.5 c 128
 1276.5 1282.83333333 1309.66666667 1285.33333333 1327 1286 c 1
 1331 1280 1333.16666667 1268 1333.5 1250 c 128
 1333.83333333 1232 1331.66666667 1219.33333333 1327 1212 c 1
 1314.5 1211 l 2
 1306.16666667 1210.33333333 1300.16666667 1209.83333333 1296.5 1209.5 c 128
 1292.83333333 1209.16666667 1286.33333333 1208.5 1277 1207.5 c 128
 1267.66666667 1206.5 1260 1205.16666667 1254 1203.5 c 128
 1248 1201.83333333 1240.83333333 1199.83333333 1232.5 1197.5 c 128
 1224.16666667 1195.16666667 1217 1192.33333333 1211 1189 c 128
 1205 1185.66666667 1199 1181.66666667 1193 1177 c 128
 1187 1172.33333333 1182.33333333 1167.33333333 1179 1162 c 0
 1149 1118 1086.66666667 1018.66666667 992 864 c 128
 897.333333333 709.333333333 838 606.666666667 814 556 c 0
 808 542.666666667 805 530 805 518 c 2
 803 290 l 2
 801.666666667 194 807 131.333333333 819 102 c 0
 825.666666667 84 868.333333333 72 947 66 c 1
 951.666666667 58.6666666667 953.833333333 46 953.5 28 c 128
 953.166666667 10 951 -2 947 -8 c 1
 855.666666667 1.33333333333 760.333333333 6 661 6 c 0
 564.333333333 6 470.333333333 1.33333333333 379 -8 c 1
 375 -2 372.833333333 10 372.5 28 c 128
 372.166666667 46 374.333333333 58.6666666667 379 66 c 1
 457.666666667 72 500.333333333 84 507 102 c 0
 509 106.666666667 510.666666667 111.333333333 512 116 c 128
 513.333333333 120.666666667 514.5 126.166666667 515.5 132.5 c 128
 516.5 138.833333333 517.333333333 144.333333333 518 149 c 128
 518.666666667 153.666666667 519.333333333 160.333333333 520 169 c 128
 520.666666667 177.666666667 521.166666667 184.333333333 521.5 189 c 128
 521.833333333 193.666666667 522 201.5 522 212.5 c 128
 522 223.5 522.166666667 231.333333333 522.5 236 c 128
 522.833333333 240.666666667 523 249.666666667 523 263 c 128
 523 283 523 283 523 290 c 2
EndSplineSet
EndChar
StartChar: brokenbar
Encoding: 166 166 101
Width: 205
Flags: W
VStem: 77 52<-115 251 381 747>
LayerCount: 2
Fore
SplineSet
129 391 m 2
 129 383 84 376 82 376 c 0
 75 376 77 380 77 384 c 2
 77 739 l 1
 77 739 76 745 82 747 c 0
 99 752 118 752 121 752 c 0
 130 752 129 746 129 746 c 1
 129 391 l 2
77 -112 m 2
 77 243 l 1
 77 243 76 249 82 251 c 0
 99 256 118 256 121 256 c 0
 130 256 129 250 129 250 c 1
 129 -105 l 2
 129 -113 84 -120 82 -120 c 0
 75 -120 77 -116 77 -112 c 2
EndSplineSet
EndChar
StartChar: section
Encoding: 167 167 102
Width: 456
UnlinkRmOvrlpSave: 1
Flags: W
HStem: -90 49<136 233> 589 49<224 320>
VStem: 35 69<340 440> 122 57<441 555> 277 57<-7 106> 352 69<108 208>
LayerCount: 2
Fore
SplineSet
313 638 m 0
 204 638 122 553 122 475 c 0
 122 409 194 355 241 312 c 0
 294 263 352 208 352 127 c 0
 352 84 336 64 313 36 c 0
 313 36 293 15 286 -3 c 24
 281 -14 285 -21 284 -33 c 17
 321 -8 421 103 421 180 c 0
 421 270 366 317 304 375 c 0
 258 417 179 491 179 536 c 0
 179 573 223 589 253 589 c 0
 268 589 282 584 291 576 c 0
 300 568 312 557 331 557 c 0
 359 557 369 575 369 596 c 0
 369 602 367 615 362 625 c 1
 348 631 327 638 313 638 c 0
143 -90 m 0
 252 -90 334 -5 334 73 c 0
 334 139 262 192 215 235 c 0
 162 284 104 340 104 421 c 0
 104 464 118 481 143 511 c 0
 143 511 163 533 170 551 c 24
 175 562 171 569 172 581 c 17
 135 556 35 445 35 368 c 0
 35 278 90 231 152 173 c 0
 198 131 277 57 277 12 c 0
 277 -25 233 -41 203 -41 c 0
 188 -41 176 -38 168 -30 c 0
 159 -21 145 -9 126 -9 c 0
 98 -9 87 -30 87 -51 c 0
 87 -57 90 -69 94 -76 c 1
 106 -82 129 -90 143 -90 c 0
EndSplineSet
EndChar
StartChar: copyright
Encoding: 169 169 104
Width: 1306
Flags: HW
LayerCount: 2
Fore
SplineSet
882 504 m 1
 882 496 877.666666667 473.5 869 436.5 c 128
 860.333333333 399.5 853.333333333 380 848 378 c 0
 840 375.333333333 826.666666667 370.333333333 808 363 c 128
 789.333333333 355.666666667 773.666666667 349.666666667 761 345 c 128
 748.333333333 340.333333333 732.5 336 713.5 332 c 128
 694.5 328 676 326 658 326 c 0
 572 326 502.166666667 351.666666667 448.5 403 c 128
 394.833333333 454.333333333 368 523.333333333 368 610 c 128
 368 696.666666667 397.5 768.333333333 456.5 825 c 128
 515.5 881.666666667 585.333333333 910 666 910 c 0
 682 910 700 908.333333333 720 905 c 128
 740 901.666666667 763.333333333 896.666666667 790 890 c 128
 816.666666667 883.333333333 833.333333333 879.333333333 840 878 c 1
 840.666666667 876 843.333333333 865 848 845 c 128
 852.666666667 825 857.166666667 805.5 861.5 786.5 c 128
 865.833333333 767.5 868 756.666666667 868 754 c 0
 868 752 864.333333333 749.5 857 746.5 c 128
 849.666666667 743.5 843.333333333 742 838 742 c 0
 831.333333333 742 827.333333333 742.666666667 826 744 c 1
 823.333333333 754.666666667 819.5 765.333333333 814.5 776 c 128
 809.5 786.666666667 801.5 798.833333333 790.5 812.5 c 128
 779.5 826.166666667 763.833333333 837.166666667 743.5 845.5 c 128
 723.166666667 853.833333333 699.333333333 858 672 858 c 0
 635.333333333 858 604.5 845.833333333 579.5 821.5 c 128
 554.5 797.166666667 537 767.833333333 527 733.5 c 128
 517 699.166666667 512 661.333333333 512 620 c 0
 512 551.333333333 526.666666667 493.5 556 446.5 c 128
 585.333333333 399.5 627.333333333 376 682 376 c 0
 726.666666667 376 761.333333333 387.333333333 786 410 c 0
 809.333333333 432 828.666666667 466 844 512 c 1
 864 512 876.666666667 509.333333333 882 504 c 1
196 620 m 128
 196 494 240.5 386.5 329.5 297.5 c 128
 418.5 208.5 526 164 652 164 c 128
 778 164 885.5 208.5 974.5 297.5 c 128
 1063.5 386.5 1108 494 1108 620 c 128
 1108 746 1063.5 853.5 974.5 942.5 c 128
 885.5 1031.5 778 1076 652 1076 c 128
 526 1076 418.5 1031.5 329.5 942.5 c 128
 240.5 853.5 196 746 196 620 c 128
106 622 m 128
 106 772.666666667 159.333333333 901.333333333 266 1008 c 128
 372.666666667 1114.66666667 501.333333333 1168 652 1168 c 0
 751.333333333 1168 843 1143.66666667 927 1095 c 128
 1011 1046.33333333 1077.5 980 1126.5 896 c 128
 1175.5 812 1200 720.666666667 1200 622 c 128
 1200 523.333333333 1175.5 432 1126.5 348 c 128
 1077.5 264 1011 197.666666667 927 149 c 128
 843 100.333333333 751.333333333 76 652 76 c 0
 501.333333333 76 372.666666667 129.333333333 266 236 c 128
 159.333333333 342.666666667 106 471.333333333 106 622 c 128
EndSplineSet
EndChar
StartChar: ordfeminine
Encoding: 170 170 105
Width: 377
Flags: HW
LayerCount: 2
Fore
SplineSet
182 289 m 0
 189 289 195 291 201 295 c 128
 207 299 210 302 210 304 c 2
 210 390 l 1
 185 381 169 374 162 370 c 0
 146 360 138 347 138 329 c 1
 138 316 143 306 152 299 c 128
 161 292 171 289 182 289 c 0
196 544 m 0
 226 544 251 535 272 515 c 128
 293 495 303 470 303 441 c 2
 303 319 l 2
 303 311 305 305 308 301 c 128
 311 297 315 295 320 295 c 0
 323 295 327 296 330 297 c 128
 333 298 335 299 338 301 c 128
 341 303 343 304 343 304 c 0
 344 304 345 301 347 298 c 128
 349 295 350 292 350 290 c 0
 350 286 349 282 346 278 c 1
 338 271 326 263 311 255 c 128
 296 247 283 243 270 243 c 0
 259 243 247 246 236 252 c 128
 225 258 219 265 215 273 c 1
 208 268 196 262 178 254 c 128
 160 246 147 242 136 242 c 0
 110 242 87 250 69 267 c 128
 51 284 42 302 42 322 c 0
 42 334 45 346 53 356 c 128
 61 366 70 373 79 377 c 0
 145 401 189 418 210 425 c 1
 210 435 l 1
 210 452 l 2
 210 469 206 484 198 496 c 128
 190 508 181 515 169 515 c 0
 157 515 147 511 142 502 c 128
 137 493 132 480 128 462 c 1
 123 443 110 434 88 434 c 0
 78 434 69 436 62 442 c 128
 55 448 51 456 51 465 c 128
 51 474 54 483 61 493 c 1
 69 501 86 512 114 525 c 128
 142 538 169 544 196 544 c 0
EndSplineSet
EndChar
StartChar: guillemotleft
Encoding: 171 171 106
Width: 490
Flags: HW
LayerCount: 2
Fore
SplineSet
208 242 m 128
 208 247 210 252 215 257 c 1
 233 267 249 278 266 289 c 128
 283 300 298 311 311 321 c 128
 324 331 335 340 347 349 c 128
 359 358 369 368 377 375 c 128
 385 382 393 389 399 394 c 128
 405 399 410 403 414 407 c 128
 418 411 420 413 420 413 c 1
 424 412 429 410 435 406 c 128
 441 402 444 399 446 395 c 1
 444 392 436 381 420 361 c 128
 404 341 385 320 364 295 c 128
 343 270 326 252 315 242 c 1
 326 232 343 214 364 189 c 128
 385 164 404 143 420 123 c 128
 436 103 444 93 446 90 c 1
 444 86 441 82 435 78 c 128
 429 74 424 72 420 71 c 1
 420 71 418 73 414 77 c 128
 410 81 405 86 399 91 c 128
 393 96 385 103 377 110 c 128
 369 117 359 126 347 135 c 128
 335 144 324 154 311 164 c 128
 298 174 283 184 266 195 c 128
 249 206 233 218 215 228 c 1
 210 233 208 237 208 242 c 128
25 242 m 128
 25 247 27 252 32 257 c 1
 50 267 66 278 83 289 c 128
 100 300 115 311 128 321 c 128
 141 331 153 340 165 349 c 128
 177 358 187 368 195 375 c 128
 203 382 211 389 217 394 c 128
 223 399 227 403 231 407 c 128
 235 411 237 413 237 413 c 1
 241 412 246 410 252 406 c 128
 258 402 262 399 264 395 c 1
 262 392 253 381 237 361 c 128
 221 341 202 320 181 295 c 128
 160 270 144 252 133 242 c 1
 144 232 160 214 181 189 c 128
 202 164 221 143 237 123 c 128
 253 103 262 93 264 90 c 1
 262 86 258 82 252 78 c 128
 246 74 241 72 237 71 c 1
 237 71 235 73 231 77 c 128
 227 81 223 86 217 91 c 128
 211 96 203 103 195 110 c 128
 187 117 177 126 165 135 c 128
 153 144 141 154 128 164 c 128
 115 174 100 184 83 195 c 128
 66 206 50 218 32 228 c 1
 27 233 25 237 25 242 c 128
EndSplineSet
EndChar
StartChar: logicalnot
Encoding: 172 172 107
Width: 1178
Flags: W
LayerCount: 2
Fore
SplineSet
1040 840 m 17,0,-1
 1040 338 l 1,1,2
 1039 337 1039 337 1019.5 332.5 c 128,-1,3
 1000 328 1000 328 971 324 c 128,-1,4
 942 320 942 320 922 320 c 0,5,6
 913 320 913 320 906.5 323.5 c 128,-1,7
 900 327 900 327 898 330.5 c 2,8,-1
 896 334 l 1,9,-1
 896 724 l 1,10,-1
 104 724 l 2,11,12
 92 724 92 724 92 744 c 1,13,14
 102 840 102 840 122 840 c 2,15,-1
 1040 840 l 17,0,-1
EndSplineSet
EndChar
StartChar: registered
Encoding: 174 174 108
Width: 1306
Flags: W
LayerCount: 2
Fore
SplineSet
650 1002 m 0,0,1
 729 1002 729 1002 781.5 962.5 c 128,-1,2
 834 923 834 923 834 854 c 0,3,4
 834 810 834 810 791.5 772 c 128,-1,5
 749 734 749 734 712 724 c 1,6,7
 738 689 738 689 769 652 c 128,-1,8
 800 615 800 615 818 595.5 c 2,9,-1
 836 576 l 1,10,11
 862 546 862 546 890 528 c 128,-1,12
 918 510 918 510 931 506 c 128,-1,13
 944 502 944 502 950 502 c 1,14,15
 951 500 951 500 951.5 494.5 c 128,-1,16
 952 489 952 489 951.5 483.5 c 128,-1,17
 951 478 951 478 950.5 473 c 2,18,-1
 950 468 l 1,19,20
 902 464 902 464 860 464 c 0,21,22
 816 464 816 464 786.5 481.5 c 128,-1,23
 757 499 757 499 728 536 c 1,24,-1
 608 698 l 2,25,26
 600 710 600 710 594 710 c 2,27,-1
 582 710 l 1,28,-1
 582 590 l 2,29,30
 582 532 582 532 588 516 c 0,31,32
 591 509 591 509 610 504.5 c 128,-1,33
 629 500 629 500 640 500 c 1,34,35
 643 496 643 496 643 483.5 c 128,-1,36
 643 471 643 471 640 468 c 1,37,38
 592 474 592 474 524 474 c 0,39,40
 454 474 454 474 406 468 c 1,41,42
 403 471 403 471 403 483.5 c 128,-1,43
 403 496 403 496 406 500 c 1,44,45
 417 500 417 500 436 504.5 c 128,-1,46
 455 509 455 509 458 516 c 0,47,48
 464 532 464 532 464 590 c 2,49,-1
 464 882 l 2,50,51
 464 940 464 940 458 956 c 0,52,53
 453 968 453 968 406 968 c 1,54,55
 403 972 403 972 403 985.5 c 128,-1,56
 403 999 403 999 406 1002 c 1,57,58
 442 1000 442 1000 526 1000 c 0,59,60
 541 1000 541 1000 582.5 1001 c 128,-1,61
 624 1002 624 1002 650 1002 c 0,0,1
710 848 m 0,62,63
 710 898 710 898 687.5 931 c 128,-1,64
 665 964 665 964 626 964 c 0,65,66
 590 964 590 964 586 956 c 0,67,68
 582 946 582 946 582 906 c 2,69,-1
 582 748 l 1,70,-1
 614 748 l 2,71,72
 654 748 654 748 682 775.5 c 128,-1,73
 710 803 710 803 710 848 c 0,62,63
196 722 m 128,-1,75
 196 533 196 533 329.5 399.5 c 128,-1,76
 463 266 463 266 652 266 c 128,-1,77
 841 266 841 266 974.5 399.5 c 128,-1,78
 1108 533 1108 533 1108 722 c 128,-1,79
 1108 911 1108 911 974.5 1044.5 c 128,-1,80
 841 1178 841 1178 652 1178 c 128,-1,81
 463 1178 463 1178 329.5 1044.5 c 128,-1,74
 196 911 196 911 196 722 c 128,-1,75
106 724 m 128,-1,83
 106 950 106 950 266 1110 c 128,-1,84
 426 1270 426 1270 652 1270 c 0,85,86
 801 1270 801 1270 927 1197 c 128,-1,87
 1053 1124 1053 1124 1126.5 998 c 128,-1,88
 1200 872 1200 872 1200 724 c 128,-1,89
 1200 576 1200 576 1126.5 450 c 128,-1,90
 1053 324 1053 324 927 251 c 128,-1,91
 801 178 801 178 652 178 c 0,92,93
 426 178 426 178 266 338 c 128,-1,82
 106 498 106 498 106 724 c 128,-1,83
EndSplineSet
EndChar
StartChar: macron
Encoding: 175 175 109
Width: 938
Flags: HW
LayerCount: 2
Fore
SplineSet
1124 1112 m 0
 1124 1115.33333333 1124.33333333 1120.33333333 1125 1127 c 128
 1125.66666667 1133.66666667 1126.66666667 1142.66666667 1128 1154 c 128
 1129.33333333 1165.33333333 1131.66666667 1174.83333333 1135 1182.5 c 128
 1138.33333333 1190.16666667 1142.66666667 1194 1148 1194 c 2
 1578 1194 l 2
 1584.66666667 1194 1588 1189.33333333 1588 1180 c 0
 1588 1160.66666667 1584 1136.66666667 1576 1108 c 0
 1574.66666667 1104.66666667 1572.83333333 1101.83333333 1570.5 1099.5 c 128
 1568.16666667 1097.16666667 1566.16666667 1095.66666667 1564.5 1095 c 2
 1562 1094 l 1
 1136 1094 l 2
 1135 1094 1135 1094 1133 1094 c 128
 1131.66666667 1094 1129.83333333 1095.5 1127.5 1098.5 c 128
 1125.16666667 1101.5 1124 1106 1124 1112 c 0
EndSplineSet
EndChar
StartChar: degree
Encoding: 176 176 110
Width: 283
Flags: W
HStem: 415 45<95 189> 588 44<94 189>
VStem: 33 46<477 572> 205 45<477 572>
LayerCount: 2
Fore
SplineSet
79 524 m 0
 79 489 107 460 142 460 c 0
 177 460 205 489 205 524 c 0
 205 559 177 588 142 588 c 0
 107 588 79 559 79 524 c 0
33 524 m 0
 33 584 82 632 142 632 c 0
 202 632 250 584 250 524 c 0
 250 464 202 415 142 415 c 0
 82 415 33 464 33 524 c 0
EndSplineSet
EndChar
StartChar: plusminus
Encoding: 177 177 111
Width: 1164
Flags: W
LayerCount: 2
Fore
SplineSet
122 134 m 1,0,-1
 1044 134 l 2,1,2
 1052 134 1052 134 1057 125 c 128,-1,3
 1062 116 1062 116 1062 106 c 0,4,5
 1062 56 1062 56 1032 18 c 1,6,-1
 112 18 l 2,7,8
 100 18 100 18 100 50 c 0,9,10
 100 62 100 62 106 90.5 c 128,-1,11
 112 119 112 119 122 134 c 1,0,-1
122 728 m 1,12,-1
 520 728 l 1,13,-1
 520 1126 l 1,14,15
 534 1137 534 1137 562 1142.5 c 128,-1,16
 590 1148 590 1148 604 1148 c 0,17,18
 636 1148 636 1148 636 1130 c 2,19,-1
 636 728 l 1,20,-1
 1044 728 l 2,21,22
 1052 728 1052 728 1057 719 c 128,-1,23
 1062 710 1062 710 1062 700 c 0,24,25
 1062 650 1062 650 1032 612 c 1,26,-1
 636 612 l 1,27,-1
 636 216 l 1,28,29
 603 194 603 194 542 194 c 0,30,31
 533 194 533 194 526.5 199 c 128,-1,32
 520 204 520 204 520 210 c 2,33,-1
 520 612 l 1,34,-1
 112 612 l 2,35,36
 100 612 100 612 100 644 c 0,37,38
 100 656 100 656 106 684.5 c 128,-1,39
 112 713 112 713 122 728 c 1,12,-1
EndSplineSet
EndChar
StartChar: uni00B2
Encoding: 178 178 112
Width: 704
Flags: W
LayerCount: 2
Fore
SplineSet
620 764 m 1,0,1
 611 725 611 725 581.5 627 c 128,-1,2
 552 529 552 529 544 508 c 1,3,-1
 90 508 l 1,4,5
 83 515 83 515 76 536 c 1,6,7
 212 686 212 686 314 818 c 0,8,9
 365 884 365 884 386.5 938 c 128,-1,10
 408 992 408 992 408 1050 c 128,-1,11
 408 1108 408 1108 370.5 1143 c 128,-1,12
 333 1178 333 1178 280 1178 c 0,13,14
 250 1178 250 1178 222 1163.5 c 128,-1,15
 194 1149 194 1149 180 1133.5 c 128,-1,16
 166 1118 166 1118 152 1099 c 2,17,-1
 138 1080 l 1,18,19
 133 1080 133 1080 126.5 1081.5 c 128,-1,20
 120 1083 120 1083 113 1090 c 128,-1,21
 106 1097 106 1097 106 1108 c 1,22,23
 116 1129 116 1129 137 1155.5 c 128,-1,24
 158 1182 158 1182 191 1212.5 c 128,-1,25
 224 1243 224 1243 270.5 1263.5 c 128,-1,26
 317 1284 317 1284 366 1284 c 0,27,28
 474 1284 474 1284 536 1230.5 c 128,-1,29
 598 1177 598 1177 598 1076 c 0,30,31
 598 1003 598 1003 553.5 938 c 128,-1,32
 509 873 509 873 436 806 c 0,33,34
 334 714 334 714 246 650 c 1,35,-1
 470 650 l 2,36,37
 484 650 484 650 497 656 c 128,-1,38
 510 662 510 662 518 668 c 128,-1,39
 526 674 526 674 535.5 689 c 128,-1,40
 545 704 545 704 548.5 711 c 128,-1,41
 552 718 552 718 560.5 737.5 c 128,-1,42
 569 757 569 757 570 760 c 0,43,44
 573 770 573 770 592 770 c 128,-1,45
 611 770 611 770 620 764 c 1,0,1
EndSplineSet
EndChar
StartChar: uni00B3
Encoding: 179 179 113
Width: 330
Flags: W
HStem: 239 26<116 185> 582 45<102 179>
VStem: 190 78<490 571> 209 88<304 407>
LayerCount: 2
Fore
SplineSet
175 627 m 0xe0
 210 627 269 605 269 545 c 0xe0
 269 485 218 470 197 466 c 1
 217 465 297 441 297 368 c 0
 297 281 201 239 125 239 c 0
 86 239 56 250 44 260 c 1
 40 266 35 277 35 286 c 0
 35 301 45 320 66 320 c 0
 83 320 94 307 105 290 c 0
 115 274 133 266 149 266 c 0
 186 266 209 292 209 346 c 0xd0
 209 391 179 433 139 433 c 0
 135 433 117 433 107 430 c 1
 105 433 102 439 102 444 c 0
 102 446 103 454 104 456 c 1
 134 460 190 476 190 525 c 0
 190 557 168 582 132 582 c 0
 100 582 73 555 69 550 c 1
 65 551 54 556 56 566 c 1
 78 595 128 627 175 627 c 0xe0
EndSplineSet
EndChar
StartChar: mu
Encoding: 181 181 115
Width: 1022
Flags: HW
LayerCount: 2
Fore
SplineSet
460 440 m 1
 463.333333333 416.666666667 468.5 393.833333333 475.5 371.5 c 128
 482.5 349.166666667 492 326.666666667 504 304 c 128
 516 281.333333333 531.666666667 263 551 249 c 128
 570.333333333 235 592 228 616 228 c 0
 674.666666667 228 727.333333333 249.333333333 774 292 c 128
 820.666666667 334.666666667 844 382 844 434 c 1
 834.666666667 508.666666667 830 583.333333333 830 658 c 0
 830 680.666666667 828.666666667 742.666666667 826 844 c 1
 846 876 866 892 886 892 c 0
 899.333333333 892 930 881.5 978 860.5 c 128
 1026 839.5 1050 823.333333333 1050 812 c 0
 1050 797.333333333 1048.16666667 778.833333333 1044.5 756.5 c 128
 1040.83333333 734.166666667 1037 715 1033 699 c 128
 1029 683 1022.83333333 659.5 1014.5 628.5 c 128
 1006.16666667 597.5 1000.66666667 576 998 564 c 0
 992.666666667 542.666666667 984.833333333 513.666666667 974.5 477 c 128
 964.166666667 440.333333333 956 411.333333333 950 390 c 1
 949.333333333 351.333333333 952.5 319 959.5 293 c 128
 966.5 267 976 248.333333333 988 237 c 128
 1000 225.666666667 1011.16666667 218 1021.5 214 c 128
 1031.83333333 210 1042.66666667 208 1054 208 c 0
 1072 208 1088.66666667 211.5 1104 218.5 c 128
 1119.33333333 225.5 1133 235.833333333 1145 249.5 c 128
 1157 263.166666667 1165.83333333 274 1171.5 282 c 128
 1177.16666667 290 1184 300.666666667 1192 314 c 1
 1197.33333333 314 1204 307 1212 293 c 128
 1220 279 1225.33333333 267.333333333 1228 258 c 0
 1230.66666667 247.333333333 1229.33333333 234 1224 218 c 0
 1174 67.3333333333 1120 -8 1062 -8 c 1
 1031.33333333 -7.33333333333 1003.66666667 5.33333333333 979 30 c 128
 954.333333333 54.6666666667 934.833333333 85.3333333333 920.5 122 c 128
 906.166666667 158.666666667 896 199.333333333 890 244 c 1
 868.666666667 168 837.833333333 105.666666667 797.5 57 c 128
 757.166666667 8.33333333333 710.666666667 -16 658 -16 c 0
 610.666666667 -16 565 15.8333333333 521 79.5 c 128
 477 143.166666667 450.666666667 208 442 274 c 1
 442.666666667 269.333333333 444.333333333 238.166666667 447 180.5 c 128
 449.666666667 122.833333333 452.666666667 63.6666666667 456 3 c 128
 459.333333333 -57.6666666667 465 -127.5 473 -206.5 c 128
 481 -285.5 490 -352 500 -406 c 1
 494 -416 482.5 -426.5 465.5 -437.5 c 128
 448.5 -448.5 432 -454 416 -454 c 0
 398 -454 373.166666667 -440 341.5 -412 c 128
 309.833333333 -384 294 -363.333333333 294 -350 c 0
 294 -317.333333333 299.666666667 -201.166666667 311 -1.5 c 128
 322.333333333 198.166666667 333.333333333 342.666666667 344 432 c 1
 344 448 338.666666667 502.833333333 328 596.5 c 128
 317.333333333 690.166666667 312 744.666666667 312 760 c 0
 312 802.666666667 314 832 318 848 c 1
 328.666666667 877.333333333 345.333333333 892 368 892 c 0
 381.333333333 892 411 881.5 457 860.5 c 128
 503 839.5 526 823.333333333 526 812 c 0
 526 768.666666667 516.666666667 703.333333333 498 616 c 0
 492 585.333333333 484.5 550 475.5 510 c 128
 466.5 470 461.333333333 446.666666667 460 440 c 1
EndSplineSet
EndChar
StartChar: paragraph
Encoding: 182 182 116
Width: 516
Flags: HW
LayerCount: 2
Fore
SplineSet
347 330 m 1
 347 584 l 1
 344 587 334 589 318 589 c 0
 304 589 295 587 291 583 c 1
 291 325 l 1
 297 325 307 326 322 327 c 128
 337 328 345 329 347 330 c 1
346 285 m 1
 343 285 338 284 330 284 c 128
 322 284 315 282 308 282 c 128
 298 281 298 281 291 281 c 1
 291 115 l 2
 291 81 293 60 296 51 c 0
 297 48 304 46 318 46 c 0
 331 46 339 47 340 50 c 0
 344 58 346 78 346 109 c 2
 346 285 l 1
395 292 m 1
 395 114 l 2
 395 86 396 68 399 59 c 0
 402 51 413 45 431 40 c 128
 449 35 462 33 471 33 c 1
 474 29 475 22 475 14 c 128
 475 6 474 0 473 -4 c 1
 391 1 340 3 320 3 c 0
 302 3 285 3 267 2 c 128
 249 1 229 0 209 -1 c 128
 189 -2 175 -4 168 -4 c 1
 166 -1 165 3 165 9 c 128
 165 15 165 20 166 25 c 128
 167 30 167 32 168 32 c 0
 177 32 191 34 207 39 c 128
 223 44 233 51 236 58 c 0
 240 66 242 84 242 113 c 2
 242 280 l 1
 178 280 127 295 89 326 c 128
 51 357 32 401 32 458 c 0
 32 484 36 508 44 529 c 128
 52 550 63 567 76 580 c 128
 89 593 104 604 121 613 c 128
 138 622 154 627 171 631 c 128
 188 635 205 637 222 637 c 0
 241 637 258 636 274 635 c 128
 290 634 308 633 327 633 c 0
 347 633 366 633 386 634 c 128
 406 635 420 635 430 636 c 2
 444 638 l 1
 446 635 448 629 448 619 c 128
 448 609 446 604 443 602 c 1
 435 602 427 600 417 596 c 128
 407 592 400 588 398 582 c 1
 396 575 396 555 396 520 c 2
 396 336 l 1
 397 336 401 337 409 339 c 128
 417 341 425 343 432 345 c 2
 443 349 l 1
 446 349 447 346 447 339 c 1
 446 334 444 327 438 318 c 128
 432 309 428 303 425 302 c 0
 413 296 403 293 395 292 c 1
EndSplineSet
EndChar
StartChar: periodcentered
Encoding: 183 183 117
Width: 482
Flags: HW
LayerCount: 2
Fore
SplineSet
94 530 m 0
 94 570 108.5 604.333333333 137.5 633 c 128
 166.5 661.666666667 201.333333333 676 242 676 c 0
 282 676 316.333333333 661.666666667 345 633 c 128
 373.666666667 604.333333333 388 570 388 530 c 0
 388 489.333333333 374.166666667 453.833333333 346.5 423.5 c 128
 318.833333333 393.166666667 285.333333333 378 246 378 c 0
 204.666666667 378 169 393.166666667 139 423.5 c 128
 109 453.833333333 94 489.333333333 94 530 c 0
EndSplineSet
EndChar
StartChar: cedilla
Encoding: 184 184 118
Width: 443
Flags: W
HStem: -152 27<159 239> -63 62<199 240>
VStem: 245 53<-122 -64>
LayerCount: 2
Fore
SplineSet
228 -24 m 1
 236 -23 240 -22 249 -22 c 27
 275 -22 298 -45 298 -70 c 0
 298 -116 263 -152 203 -152 c 0
 182 -152 163 -144 156 -137 c 1
 154 -134 152 -121 152 -117 c 0
 152 -111 153 -110 155 -110 c 1
 159 -112 181 -125 202 -125 c 0
 235 -125 245 -110 245 -96 c 0
 245 -82 241 -63 220 -63 c 0
 214 -63 204 -66 194 -70 c 1
 191 -70 182 -62 182 -56 c 1
 191 -41 203 -17 209 -2 c 1
 240 -2 l 1
 240 -2 233 -15 228 -24 c 1
EndSplineSet
EndChar
StartChar: uni00B9
Encoding: 185 185 119
Width: 284
Flags: HW
LayerCount: 2
Fore
SplineSet
111 499 m 2
 111 512 109 523 106 532 c 128
 103 541 99 545 93 545 c 0
 86 545 72 539 49 529 c 1
 47 529 44 532 42 536 c 128
 40 540 38 545 38 549 c 128
 38 553 38 555 39 556 c 1
 59 564 82 574 107 586 c 128
 132 598 153 608 168 615 c 128
 183 622 191 626 191 626 c 2
 192 626 l 2
 194 626 197 624 201 618 c 128
 205 612 207 608 208 606 c 1
 200 577 196 550 196 523 c 2
 196 338 l 2
 196 309 199 291 206 284 c 1
 209 280 217 277 228 275 c 128
 239 273 247 271 252 271 c 0
 253 271 253 267 253 259 c 128
 253 251 253 247 252 246 c 1
 190 249 157 250 154 250 c 0
 150 250 117 249 55 246 c 1
 54 247 53 252 53 260 c 128
 53 268 54 271 55 271 c 0
 60 271 68 273 80 276 c 128
 92 279 99 281 102 285 c 0
 104 288 106 296 108 309 c 128
 110 322 111 332 111 339 c 2
 111 499 l 2
EndSplineSet
EndChar
StartChar: ordmasculine
Encoding: 186 186 120
Width: 396
Flags: W
HStem: 245 30<171 240> 511 29<155 224>
VStem: 34 100<317 465> 263 100<321 469>
LayerCount: 2
Fore
SplineSet
189 511 m 3
 137 511 134 450 134 403 c 27
 134 346 154 275 206 275 c 3
 258 275 263 335 263 381 c 27
 263 438 241 511 189 511 c 3
197 540 m 0
 294 540 362 478 362 396 c 0
 362 314 291 245 198 245 c 0
 101 245 34 309 34 391 c 0
 34 473 105 540 197 540 c 0
EndSplineSet
EndChar
StartChar: guillemotright
Encoding: 187 187 121
Width: 1004
Flags: W
LayerCount: 2
Fore
SplineSet
578 496 m 128,-1,1
 578 480 578 480 564 466 c 1,2,3
 510 434 510 434 459 399.5 c 128,-1,4
 408 365 408 365 368 335 c 128,-1,5
 328 305 328 305 292.5 276.5 c 128,-1,6
 257 248 257 248 231 225 c 128,-1,7
 205 202 205 202 186.5 185.5 c 128,-1,8
 168 169 168 169 156.5 158 c 128,-1,9
 145 147 145 147 144 146 c 1,10,11
 132 148 132 148 113.5 159.5 c 128,-1,12
 95 171 95 171 90 184 c 1,13,14
 95 192 95 192 144.5 252 c 128,-1,15
 194 312 194 312 259.5 388 c 128,-1,16
 325 464 325 464 358 496 c 1,17,18
 325 528 325 528 259.5 604 c 128,-1,19
 194 680 194 680 144.5 740 c 128,-1,20
 95 800 95 800 90 808 c 1,21,22
 95 821 95 821 113.5 832.5 c 128,-1,23
 132 844 132 844 144 846 c 1,24,25
 145 845 145 845 156.5 834 c 128,-1,26
 168 823 168 823 186.5 806.5 c 128,-1,27
 205 790 205 790 231 767 c 128,-1,28
 257 744 257 744 292.5 715.5 c 128,-1,29
 328 687 328 687 368 657 c 128,-1,30
 408 627 408 627 459 592.5 c 128,-1,31
 510 558 510 558 564 526 c 1,32,0
 578 512 578 512 578 496 c 128,-1,1
952 496 m 128,-1,34
 952 480 952 480 938 466 c 1,35,36
 884 434 884 434 833 399.5 c 128,-1,37
 782 365 782 365 742 335 c 128,-1,38
 702 305 702 305 666.5 276.5 c 128,-1,39
 631 248 631 248 605 225 c 128,-1,40
 579 202 579 202 560.5 185.5 c 128,-1,41
 542 169 542 169 530.5 158 c 128,-1,42
 519 147 519 147 518 146 c 1,43,44
 506 148 506 148 487.5 159.5 c 128,-1,45
 469 171 469 171 464 184 c 1,46,47
 469 192 469 192 518.5 252 c 128,-1,48
 568 312 568 312 633.5 388 c 128,-1,49
 699 464 699 464 732 496 c 1,50,51
 699 528 699 528 633.5 604 c 128,-1,52
 568 680 568 680 518.5 740 c 128,-1,53
 469 800 469 800 464 808 c 1,54,55
 469 821 469 821 487.5 832.5 c 128,-1,56
 506 844 506 844 518 846 c 1,57,58
 519 845 519 845 530.5 834 c 128,-1,59
 542 823 542 823 560.5 806.5 c 128,-1,60
 579 790 579 790 605 767 c 128,-1,61
 631 744 631 744 666.5 715.5 c 128,-1,62
 702 687 702 687 742 657 c 128,-1,63
 782 627 782 627 833 592.5 c 128,-1,64
 884 558 884 558 938 526 c 1,65,33
 952 512 952 512 952 496 c 128,-1,34
EndSplineSet
EndChar
StartChar: onequarter
Encoding: 188 188 122
Width: 719
Flags: W
HStem: -3 21G<592 616> 90 45<464 564 649 679> 246 25<46 94 200 246> 606 20G<185 201>
VStem: 105 85<285 544> 564 85<-2 90 135 256>
LayerCount: 2
Fore
SplineSet
629 377 m 0
 633 377 649 368 649 358 c 10
 649 135 l 25
 673 135 l 17
 686 123 689 108 683 90 c 1
 649 90 l 25
 649 2 l 17
 649 2 629 -3 603 -3 c 0
 582 -3 564 0 564 5 c 2
 564 90 l 25
 414 90 l 17
 409 92 402 98 402 106 c 1
 475 194 553 291 616 369 c 0
 620 374 624 377 629 377 c 0
564 135 m 1
 564 256 l 17
 542 230 476 149 464 135 c 1
 459 135 533 135 564 135 c 1
190 523 m 2
 190 338 l 2
 190 320 192 291 199 284 c 0
 207 275 240 271 245 271 c 1
 247 271 246 247 245 246 c 1
 222 247 171 250 148 250 c 0
 125 250 71 247 48 246 c 1
 45 249 45 271 48 271 c 1
 56 271 88 277 95 285 c 0
 100 291 105 328 105 339 c 2
 105 499 l 2
 105 525 98 545 86 545 c 0
 77 545 53 534 42 529 c 1
 37 530 31 555 32 556 c 1
 101 585 184 626 186 626 c 9
 186 626 200 609 201 606 c 1
 198 595 190 561 190 523 c 2
214 -33 m 0
 199 -36 197 -24 197 -24 c 1
 534 647 l 1
 540 656 552 664 569 668 c 0
 578 670 586 666 587 661 c 1
 250 -11 l 2
 247 -18 231 -29 214 -33 c 0
EndSplineSet
EndChar
StartChar: onehalf
Encoding: 189 189 123
Width: 730
Flags: W
HStem: -2 69<515 658> 246 25<47 95 201 247> 325 52<506 580> 606 20G<186 190>
VStem: 106 85<285 544> 594 93<209 310>
LayerCount: 2
Fore
SplineSet
574 377 m 0
 642 377 687 342 687 275 c 0
 687 222 645 178 608 144 c 0
 579 118 551 93 515 67 c 1
 624 67 l 2
 653 67 663 100 673 121 c 0
 674 124 680 126 684 126 c 0
 688 126 695 125 698 123 c 1
 691 95 664 9 660 -2 c 9
 439 -2 l 1
 436 1 433 9 432 12 c 1
 479 64 501 88 548 149 c 0
 582 193 594 226 594 263 c 0
 594 302 565 325 532 325 c 0
 489 325 467 282 462 277 c 1
 459 277 447 279 447 291 c 1
 458 313 506 377 574 377 c 0
191 523 m 2
 191 338 l 2
 191 320 194 291 201 284 c 0
 209 275 241 271 246 271 c 1
 248 271 247 247 246 246 c 1
 223 247 172 250 149 250 c 0
 126 250 72 247 49 246 c 1
 46 249 46 271 49 271 c 1
 57 271 89 277 96 285 c 0
 101 291 106 328 106 339 c 2
 106 499 l 2
 106 525 99 545 87 545 c 0
 78 545 54 534 43 529 c 1
 38 530 32 549 34 556 c 1
 103 585 185 626 187 626 c 1
 193 620 201 609 202 606 c 1
 199 595 191 561 191 523 c 2
567 661 m 1
 230 -11 l 2
 227 -18 211 -29 194 -33 c 0
 179 -36 177 -24 177 -24 c 1
 514 647 l 1
 520 656 532 664 549 668 c 0
 558 670 566 666 567 661 c 1
EndSplineSet
EndChar
StartChar: threequarters
Encoding: 190 190 124
Width: 722
Flags: W
HStem: -3 21G<595 619> 90 45<467 566 651 682> 239 26<114 183> 582 45<100 177>
VStem: 188 78<490 571> 207 88<304 407> 566 85<-2 90 135 256>
LayerCount: 2
Fore
SplineSet
632 377 m 0xf2
 636 377 651 368 651 358 c 10
 651 135 l 25
 676 135 l 17
 689 123 692 108 686 90 c 1
 651 90 l 25
 651 2 l 17
 651 2 631 -3 605 -3 c 0
 584 -3 566 0 566 5 c 2
 566 90 l 25
 417 90 l 17
 412 92 405 98 405 106 c 1
 478 194 556 291 619 369 c 0
 623 374 627 377 632 377 c 0xf2
566 135 m 1
 566 256 l 17
 544 230 479 149 467 135 c 1
 462 135 535 135 566 135 c 1
173 627 m 0
 208 627 267 605 267 545 c 0xfa
 267 485 216 470 195 466 c 1
 215 465 295 441 295 368 c 0
 295 281 199 239 123 239 c 0
 84 239 54 250 42 260 c 1
 38 266 33 277 33 286 c 0
 33 301 43 320 64 320 c 0
 81 320 93 307 104 290 c 0
 114 274 131 266 147 266 c 0
 184 266 207 292 207 346 c 0xf6
 207 391 177 433 137 433 c 0
 133 433 115 433 105 430 c 1
 103 433 100 439 100 444 c 0
 100 446 101 454 102 456 c 1
 132 460 188 476 188 525 c 0xfa
 188 557 166 582 130 582 c 0
 98 582 71 555 67 550 c 1
 63 551 52 556 54 566 c 1
 76 595 126 627 173 627 c 0
600 661 m 1
 263 -11 l 2
 260 -18 244 -29 227 -33 c 0
 212 -36 210 -24 210 -24 c 1
 547 647 l 1
 553 656 565 664 582 668 c 0
 591 670 599 666 600 661 c 1
EndSplineSet
EndChar
StartChar: questiondown
Encoding: 191 191 125
Width: 776
Flags: HW
LayerCount: 2
Fore
SplineSet
660 734 m 0
 660 692.666666667 645.666666667 658 617 630 c 128
 588.333333333 602 554.666666667 588 516 588 c 0
 474 588 438.5 602.166666667 409.5 630.5 c 128
 380.5 658.833333333 366 693.333333333 366 734 c 0
 366 775.333333333 379.833333333 811.333333333 407.5 842 c 128
 435.166666667 872.666666667 468.666666667 888 508 888 c 0
 546.666666667 888 581.666666667 873.166666667 613 843.5 c 128
 644.333333333 813.833333333 660 777.333333333 660 734 c 0
566 450 m 1
 575.333333333 429.333333333 584.333333333 399.833333333 593 361.5 c 128
 601.666666667 323.166666667 606 286 606 250 c 0
 606 222.666666667 601.5 197.166666667 592.5 173.5 c 128
 583.5 149.833333333 570 128.5 552 109.5 c 128
 534 90.5 517.5 75 502.5 63 c 128
 487.5 51 468.666666667 37.3333333333 446 22 c 0
 304.666666667 -71.3333333333 234 -144.666666667 234 -198 c 0
 234 -222 243.666666667 -244 263 -264 c 128
 282.333333333 -284 308.666666667 -294 342 -294 c 0
 358 -294 375.666666667 -287.5 395 -274.5 c 128
 414.333333333 -261.5 431.833333333 -247.333333333 447.5 -232 c 128
 463.166666667 -216.666666667 481.5 -202.5 502.5 -189.5 c 128
 523.5 -176.5 543.333333333 -170 562 -170 c 0
 598.666666667 -170 628.5 -183.333333333 651.5 -210 c 128
 674.5 -236.666666667 686 -267.333333333 686 -302 c 0
 686 -318.666666667 682.833333333 -336.666666667 676.5 -356 c 128
 670.166666667 -375.333333333 663.333333333 -388 656 -394 c 1
 616 -416.666666667 556 -428 476 -428 c 0
 454.666666667 -428 428.666666667 -424.833333333 398 -418.5 c 128
 367.333333333 -412.166666667 332.166666667 -400.5 292.5 -383.5 c 128
 252.833333333 -366.5 216.333333333 -345.5 183 -320.5 c 128
 149.666666667 -295.5 121.5 -261.666666667 98.5 -219 c 128
 75.5 -176.333333333 64 -128.666666667 64 -76 c 0
 64 -54.6666666667 66.3333333333 -34.1666666667 71 -14.5 c 128
 75.6666666667 5.16666666667 81.1666666667 22.3333333333 87.5 37 c 128
 93.8333333333 51.6666666667 103.5 66.8333333333 116.5 82.5 c 128
 129.5 98.1666666667 140.5 110.666666667 149.5 120 c 128
 158.5 129.333333333 172.166666667 140.666666667 190.5 154 c 128
 208.833333333 167.333333333 222.333333333 176.666666667 231 182 c 128
 239.666666667 187.333333333 254.5 196.333333333 275.5 209 c 128
 296.5 221.666666667 310 230 316 234 c 0
 323.333333333 238.666666667 337.333333333 247.166666667 358 259.5 c 128
 378.666666667 271.833333333 394.833333333 281.666666667 406.5 289 c 128
 418.166666667 296.333333333 431.333333333 306.166666667 446 318.5 c 128
 460.666666667 330.833333333 472 342.666666667 480 354 c 0
 482.666666667 358 484.833333333 362.666666667 486.5 368 c 128
 488.166666667 373.333333333 489.166666667 379.5 489.5 386.5 c 128
 489.833333333 393.5 490.166666667 399.666666667 490.5 405 c 128
 490.833333333 410.333333333 490.833333333 416.666666667 490.5 424 c 128
 490.166666667 431.333333333 490 436 490 438 c 0
 492 444.666666667 496.333333333 452.333333333 503 461 c 128
 509.666666667 469.666666667 515.333333333 474 520 474 c 0
 534.666666667 474 550 466 566 450 c 1
EndSplineSet
Substitution2: "'smcp' Lowercase to Small Capitals in Latin lookup 0 subtable" questiondown.sc
EndChar
StartChar: AE
Encoding: 198 198 132
Width: 1802
Flags: HW
LayerCount: 2
Fore
SplineSet
818 550 m 1
 818 1040 l 1
 516 560 l 1
 514.666666667 554.666666667 515.333333333 552 518 552 c 0
 558 548 608.666666667 546 670 546 c 0
 732.666666667 546 782 547.333333333 818 550 c 1
960 1314 m 0
 992 1314 1102.16666667 1316.16666667 1290.5 1320.5 c 128
 1478.83333333 1324.83333333 1585.33333333 1327.33333333 1610 1328 c 1
 1614 1298 1619.33333333 1266.33333333 1626 1233 c 128
 1632.66666667 1199.66666667 1640.5 1162.16666667 1649.5 1120.5 c 128
 1658.5 1078.83333333 1664.66666667 1049.33333333 1668 1032 c 1
 1661.33333333 1025.33333333 1646 1022 1622 1022 c 0
 1604.66666667 1022 1594 1027.33333333 1590 1038 c 0
 1578 1069.33333333 1566.33333333 1095.66666667 1555 1117 c 128
 1543.66666667 1138.33333333 1529.5 1159.16666667 1512.5 1179.5 c 128
 1495.5 1199.83333333 1475.5 1215 1452.5 1225 c 128
 1429.5 1235 1403.33333333 1240 1374 1240 c 2
 1208 1240 l 2
 1148.66666667 1240 1115.33333333 1232 1108 1216 c 0
 1101.33333333 1200 1098 1159.33333333 1098 1094 c 2
 1098 736 l 2
 1098 730 1106.66666667 724.833333333 1124 720.5 c 128
 1141.33333333 716.166666667 1161.33333333 714 1184 714 c 2
 1290 714 l 2
 1348.66666667 714 1388.66666667 722.666666667 1410 740 c 128
 1431.33333333 757.333333333 1450 795.333333333 1466 854 c 1
 1468 864.666666667 1476 870 1490 870 c 0
 1508.66666667 870 1521.33333333 866.666666667 1528 860 c 1
 1528 476 l 1
 1522.66666667 470.666666667 1510.66666667 468 1492 468 c 0
 1475.33333333 468 1466 473.333333333 1464 484 c 1
 1446.66666667 552 1423.33333333 592.666666667 1394 606 c 1
 1371.33333333 615.333333333 1320.66666667 620 1242 620 c 0
 1146 620 1098 610.666666667 1098 592 c 2
 1098 282 l 2
 1098 203.333333333 1103.33333333 150.666666667 1114 124 c 0
 1119.33333333 111.333333333 1135 101.5 1161 94.5 c 128
 1187 87.5 1214.66666667 84 1244 84 c 2
 1376 84 l 2
 1456 84 1518 106 1562 150 c 0
 1600.66666667 188.666666667 1636.66666667 252 1670 340 c 1
 1672 348 1681.33333333 352 1698 352 c 0
 1708.66666667 352 1720.66666667 350.666666667 1734 348 c 128
 1747.33333333 345.333333333 1755.33333333 342.666666667 1758 340 c 1
 1755.33333333 332 1747.5 310 1734.5 274 c 128
 1721.5 238 1712.16666667 211.666666667 1706.5 195 c 128
 1700.83333333 178.333333333 1693.33333333 155.666666667 1684 127 c 128
 1674.66666667 98.3333333333 1667.33333333 73.5 1662 52.5 c 128
 1656.66666667 31.5 1652.66666667 12.6666666667 1650 -4 c 1
 1375.33333333 -4 1148.66666667 -4.33333333333 970 -5 c 0
 791.333333333 -5 692.666666667 -5.33333333333 674 -6 c 1
 670 0 667.833333333 12 667.5 30 c 128
 667.166666667 48 669.333333333 60.6666666667 674 68 c 1
 752.666666667 74 795.333333333 85.3333333333 802 102 c 0
 812.666666667 128.666666667 818 191.333333333 818 290 c 2
 818 450 l 1
 660 450 l 2
 576 450 510.666666667 449.333333333 464 448 c 0
 456.666666667 448 451.333333333 444.666666667 448 438 c 1
 396 359.333333333 359.333333333 301.333333333 338 264 c 1
 295.333333333 192 272.666666667 148 270 132 c 0
 268 120 272.5 109.333333333 283.5 100 c 128
 294.5 90.6666666667 308.333333333 83.8333333333 325 79.5 c 128
 341.666666667 75.1666666667 356.5 71.8333333333 369.5 69.5 c 128
 382.5 67.1666666667 392 66 398 66 c 1
 402.666666667 59.3333333333 405.166666667 46.3333333333 405.5 27 c 128
 405.833333333 7.66666666667 404 -4 400 -8 c 1
 309.333333333 2.66666666667 235.333333333 8 178 8 c 0
 128.666666667 8 56 2.66666666667 -40 -8 c 1
 -43.3333333333 -3.33333333333 -45.1666666667 6.83333333333 -45.5 22.5 c 128
 -45.8333333333 38.1666666667 -43.3333333333 52 -38 64 c 1
 -22.6666666667 64 4.16666666667 71 42.5 85 c 128
 80.8333333333 99 106 113.333333333 118 128 c 0
 151.333333333 168.666666667 184 215.333333333 216 268 c 1
 804 1208 l 1
 804 1210.66666667 803.333333333 1212.66666667 802 1214 c 0
 800 1218 796.666666667 1221.5 792 1224.5 c 128
 787.333333333 1227.5 781.5 1230 774.5 1232 c 128
 767.5 1234 760.666666667 1235.83333333 754 1237.5 c 128
 747.333333333 1239.16666667 739.5 1240.5 730.5 1241.5 c 128
 721.5 1242.5 714.166666667 1243.16666667 708.5 1243.5 c 128
 702.833333333 1243.83333333 696 1244.33333333 688 1245 c 128
 680 1245.66666667 675.333333333 1246 674 1246 c 1
 669.333333333 1253.33333333 667.166666667 1266 667.5 1284 c 128
 667.833333333 1302 670 1314 674 1320 c 1
 734 1316 829.333333333 1314 960 1314 c 0
EndSplineSet
EndChar
StartChar: Eth
Encoding: 208 208 142
Width: 747
Flags: HW
LayerCount: 2
Fore
SplineSet
374 301 m 1
 32 301 l 2
 31 301 30 304 29 309 c 0
 28 314 28 319 29 326 c 0
 30 333 31 337 33 340 c 1
 374 340 l 2
 376 340 377 335 377 324 c 0
 377 313 376 306 374 301 c 1
EndSplineSet
Refer: 36 68 N 1 0 0 1 4 0 2
EndChar
StartChar: multiply
Encoding: 215 215 149
Width: 454
Flags: HW
LayerCount: 2
Fore
SplineSet
191 242 m 1
 53 381 l 1
 53 395 71 421 80 421 c 0
 83 421 85 421 87 419 c 2
 87 419 228 282 230 280 c 9
 370 419 l 2
 371 420 373 421 376 421 c 0
 385 421 401 388 401 378 c 1
 401 378 270 247 267 244 c 1
 268 243 401 104 401 104 c 1
 401 89 387 62 376 62 c 0
 374 62 371 62 369 64 c 2
 369 64 229 205 228 206 c 1
 84 62 l 2
 82 60 80 61 78 61 c 0
 69 61 53 94 53 104 c 1
 53 104 187 238 191 242 c 1
EndSplineSet
Substitution2: "'smcp' Lowercase to Small Capitals in Latin lookup 0 subtable" multiply.sc
EndChar
StartChar: Oslash
Encoding: 216 216 150
Width: 741
Flags: HW
LayerCount: 2
Fore
SplineSet
528 660 m 18
 528 660 530 660 532 659 c 0
 534 658 536 657 537 657 c 0
 538 657 540 656 542 655 c 0
 544 654 546 654 548 653 c 0
 550 652 550 651 553 650 c 0
 555 649 557 648 558 647 c 0
 559 646 561 646 562 645 c 0
 563 644 565 643 565 642 c 0
 565 641 565 641 565 640 c 2
 197 -18 l 1
 171 -8 159 -1 160 4 c 1
 528 660 l 18
EndSplineSet
Refer: 47 79 N 1 0 0 1 0 0 2
EndChar
StartChar: Thorn
Encoding: 222 222 156
Width: 569
Flags: HW
LayerCount: 2
Fore
SplineSet
177 640 m 0
 224 640 270 641 315 646 c 1
 317 643 318 638 318 629 c 128
 318 620 317 614 315 610 c 1
 277 607 255 602 252 593 c 1
 247 581 245 558 245 526 c 2
 245 505 l 1
 279 506 307 507 328 507 c 0
 369 507 406 500 439 487 c 128
 472 474 498 454 518 427 c 128
 538 400 548 369 548 333 c 0
 548 295 539 261 521 232 c 128
 503 203 478 180 449 165 c 128
 420 150 389 143 356 143 c 0
 340 143 326 145 314 150 c 128
 302 155 294 160 289 165 c 128
 284 170 281 178 281 189 c 0
 281 194 283 196 285 196 c 1
 294 193 307 192 325 192 c 0
 349 192 369 204 385 228 c 128
 401 252 410 282 410 319 c 0
 410 359 399 393 378 423 c 128
 357 453 330 468 298 468 c 0
 269 468 254 464 250 456 c 0
 249 452 247 446 246 436 c 128
 245 426 245 417 245 409 c 2
 245 396 l 1
 245 142 l 2
 245 94 247 63 252 50 c 0
 255 41 277 35 315 32 c 1
 317 28 318 23 318 14 c 128
 318 5 317 -1 315 -4 c 1
 270 1 224 3 175 3 c 0
 128 3 83 1 38 -4 c 1
 36 -1 34 5 34 14 c 128
 34 23 36 28 38 32 c 1
 76 35 97 41 100 50 c 0
 105 63 108 94 108 142 c 2
 108 501 l 2
 108 549 105 580 100 593 c 0
 97 602 76 607 38 610 c 1
 36 614 34 620 34 629 c 128
 34 638 36 643 38 646 c 1
 83 641 128 640 177 640 c 0
EndSplineSet
EndChar
StartChar: germandbls
Encoding: 223 223 157
Width: 576
Flags: HW
LayerCount: 2
Fore
SplineSet
321 682 m 0
 365 682 404 669 439 644 c 128
 474 619 492 587 492 550 c 0
 492 535 489 522 483 509 c 128
 477 496 472 487 466 481 c 128
 460 475 452 468 442 459 c 0
 440 457 435 453 428 447 c 128
 421 441 415 436 411 433 c 128
 407 430 403 425 398 420 c 128
 393 415 390 411 388 406 c 128
 386 401 384 397 384 393 c 0
 384 385 388 374 396 363 c 128
 404 352 412 342 420 334 c 128
 428 326 439 316 453 303 c 128
 467 290 475 282 479 279 c 0
 494 264 506 253 514 243 c 128
 522 233 530 220 538 203 c 128
 546 186 549 168 549 149 c 0
 549 125 544 104 534 83 c 128
 524 62 510 45 494 32 c 128
 478 19 460 8 441 1 c 128
 422 -6 402 -10 383 -10 c 0
 365 -10 348 -7 331 -2 c 128
 314 3 301 9 294 17 c 1
 288 29 286 41 286 53 c 0
 286 70 290 84 299 98 c 128
 308 112 319 119 333 119 c 0
 337 119 341 118 345 117 c 128
 349 116 352 115 355 114 c 128
 358 113 361 110 364 107 c 128
 367 104 369 102 371 100 c 128
 373 98 375 96 377 92 c 128
 379 88 381 85 382 84 c 128
 383 83 384 79 386 75 c 128
 388 71 389 68 389 68 c 0
 401 45 414 33 428 33 c 0
 449 33 459 49 459 80 c 0
 459 85 459 90 458 95 c 128
 457 100 455 106 453 111 c 128
 451 116 449 121 447 125 c 128
 445 129 442 133 438 139 c 128
 434 145 430 149 428 152 c 128
 426 155 422 160 416 166 c 128
 410 172 406 177 404 179 c 128
 402 181 397 185 390 192 c 128
 383 199 379 203 377 205 c 0
 372 210 365 217 353 228 c 128
 341 239 332 248 326 254 c 128
 320 260 314 269 306 279 c 128
 298 289 292 299 289 309 c 128
 286 319 284 329 284 340 c 0
 284 346 284 351 286 356 c 128
 288 361 291 366 295 372 c 128
 299 378 303 382 306 386 c 128
 309 390 314 395 320 402 c 128
 326 409 330 414 333 417 c 0
 348 433 358 448 365 462 c 128
 372 476 375 492 375 513 c 0
 375 533 373 551 368 569 c 128
 363 587 354 603 342 616 c 128
 330 629 314 636 296 636 c 0
 275 636 257 620 242 590 c 128
 227 560 219 522 219 475 c 2
 219 142 l 2
 219 94 222 63 227 50 c 0
 231 40 245 34 269 32 c 1
 271 28 272 23 272 14 c 128
 272 5 271 -1 269 -4 c 1
 224 1 187 3 156 3 c 0
 111 3 67 1 22 -4 c 1
 20 -1 19 5 19 14 c 128
 19 23 20 28 22 32 c 1
 60 35 81 41 84 50 c 0
 89 63 92 94 92 142 c 2
 92 372 l 1
 35 372 l 1
 32 373 30 378 30 385 c 1
 38 397 49 408 61 418 c 1
 92 418 l 1
 92 433 l 2
 92 465 100 497 114 528 c 128
 128 559 146 585 168 607 c 128
 190 629 215 647 242 661 c 128
 269 675 296 682 321 682 c 0
EndSplineSet
Substitution2: "'smcp' Lowercase to Small Capitals in Latin lookup 0 subtable" germandbls.sc
EndChar
StartChar: ae
Encoding: 230 230 164
Width: 1392
Flags: W
LayerCount: 2
Fore
SplineSet
404 382 m 0,0,1
 328 333 328 333 332 248 c 1,2,3
 333 189 333 189 371 156.5 c 128,-1,4
 409 124 409 124 454 124 c 0,5,6
 493 124 493 124 542.5 151.5 c 128,-1,7
 592 179 592 179 592 204 c 1,8,9
 562 298 562 298 562 388 c 0,10,11
 562 416 562 416 564 446 c 1,12,13
 560 445 560 445 519 431 c 128,-1,14
 478 417 478 417 450 405.5 c 128,-1,15
 422 394 422 394 404 382 c 0,0,1
960 812 m 3,16,17
 919 812 919 812 885.5 783.5 c 128,-1,18
 852 755 852 755 834 713 c 128,-1,19
 816 671 816 671 807 632 c 128,-1,20
 798 593 798 593 798 564 c 1,21,22
 811 563 811 563 915.5 569 c 128,-1,23
 1020 575 1020 575 1056 580 c 1,24,25
 1082 582 1082 582 1082 612 c 0,26,27
 1082 692 1082 692 1052 752 c 128,-1,28
 1022 812 1022 812 960 812 c 3,16,17
980 894 m 0,29,30
 1055 894 1055 894 1116.5 873.5 c 128,-1,31
 1178 853 1178 853 1216.5 821 c 128,-1,32
 1255 789 1255 789 1281.5 748 c 128,-1,33
 1308 707 1308 707 1319 668 c 128,-1,34
 1330 629 1330 629 1330 592 c 0,35,36
 1330 559 1330 559 1314 534 c 128,-1,37
 1298 509 1298 509 1276 508 c 0,38,39
 1096 492 1096 492 796 484 c 1,40,41
 796 404 796 404 817 342 c 128,-1,42
 838 280 838 280 868.5 245 c 128,-1,43
 899 210 899 210 939 187.5 c 128,-1,44
 979 165 979 165 1012 157.5 c 128,-1,45
 1045 150 1045 150 1076 150 c 0,46,47
 1209 150 1209 150 1300 250 c 1,48,49
 1310 247 1310 247 1317 235.5 c 128,-1,50
 1324 224 1324 224 1324 214 c 0,51,52
 1324 185 1324 185 1318 176 c 0,53,54
 1302 151 1302 151 1272 121.5 c 128,-1,55
 1242 92 1242 92 1196 59 c 128,-1,56
 1150 26 1150 26 1086.5 4 c 128,-1,57
 1023 -18 1023 -18 956 -18 c 0,58,59
 854 -18 854 -18 771 19.5 c 128,-1,60
 688 57 688 57 636 128 c 1,61,62
 561 68 561 68 468.5 26 c 128,-1,63
 376 -16 376 -16 324 -16 c 0,64,65
 214 -16 214 -16 138 59.5 c 128,-1,66
 62 135 62 135 62 228 c 0,67,68
 62 284 62 284 93.5 329.5 c 128,-1,69
 125 375 125 375 166 388 c 0,70,71
 290 427 290 427 570 526 c 1,72,73
 576 530 576 530 581 544.5 c 128,-1,74
 586 559 586 559 586 570 c 0,75,76
 586 614 586 614 582 636 c 0,77,78
 567 719 567 719 519.5 770.5 c 128,-1,79
 472 822 472 822 418 822 c 0,80,81
 396 822 396 822 378.5 812.5 c 128,-1,82
 361 803 361 803 350 789.5 c 128,-1,83
 339 776 339 776 329.5 751 c 128,-1,84
 320 726 320 726 314.5 706.5 c 128,-1,85
 309 687 309 687 302 654 c 0,86,87
 283 566 283 566 190 566 c 0,88,89
 148 566 148 566 117 593.5 c 128,-1,90
 86 621 86 621 86 662 c 0,91,92
 86 695 86 695 114 744 c 1,93,94
 152 782 152 782 267.5 840 c 128,-1,95
 383 898 383 898 496 898 c 0,96,97
 642 898 642 898 730 788 c 1,98,99
 846 894 846 894 980 894 c 0,29,30
EndSplineSet
Substitution2: "'smcp' Lowercase to Small Capitals in Latin lookup 0 subtable" ae.sc
EndChar
StartChar: eth
Encoding: 240 240 174
Width: 527
UnlinkRmOvrlpSave: 1
Flags: HW
LayerCount: 2
Fore
SplineSet
358 691 m 17
 374 671 382 661 379 658 c 1
 132 490 l 1
 115 509 108 520 112 524 c 1
 358 691 l 17
258 396 m 0
 241 396 227 391 215 380 c 128
 203 369 193 354 186 335 c 128
 179 316 175 295 172 274 c 128
 169 253 167 231 167 207 c 0
 167 155 177 113 197 82 c 128
 217 51 237 35 259 35 c 0
 275 35 288 40 299 51 c 128
 310 62 319 77 325 95 c 128
 331 113 335 132 338 153 c 128
 341 174 342 196 342 220 c 0
 342 280 332 328 313 366 c 1
 299 386 281 396 258 396 c 0
240 438 m 0
 261 438 282 435 304 430 c 1
 297 450 288 469 277 488 c 128
 266 507 252 525 236 545 c 128
 220 565 199 583 175 601 c 128
 151 619 125 634 95 647 c 1
 93 660 95 670 102 675 c 1
 141 669 186 652 239 624 c 128
 292 596 338 561 376 518 c 0
 444 442 478 354 478 253 c 0
 478 178 457 117 415 68 c 128
 373 19 321 -6 257 -6 c 0
 236 -6 215 -3 194 2 c 128
 173 7 153 15 133 27 c 128
 113 39 96 53 81 69 c 128
 66 85 55 106 46 131 c 128
 37 156 32 183 32 213 c 0
 32 249 38 282 51 311 c 128
 64 340 81 364 101 382 c 128
 121 400 143 414 167 423 c 128
 191 432 216 438 240 438 c 0
EndSplineSet
Substitution2: "'smcp' Lowercase to Small Capitals in Latin lookup 0 subtable" eth.sc
EndChar
StartChar: divide
Encoding: 247 247 181
Width: 578
Flags: W
HStem: 2 121<242 334> 218 57<58 522> 361 121<242 334>
VStem: 228 121<17 108 376 468>
LayerCount: 2
Fore
SplineSet
228 422 m 0
 228 455 255 482 288 482 c 0
 321 482 349 455 349 422 c 0
 349 389 321 361 288 361 c 0
 255 361 228 389 228 422 c 0
228 62 m 0
 228 95 255 123 288 123 c 0
 321 123 349 95 349 62 c 0
 349 29 321 2 288 2 c 0
 255 2 228 29 228 62 c 0
62 218 m 1
 57 218 56 223 56 233 c 0
 56 237 57 262 66 274 c 1
 516 274 l 2
 522 274 524 267 524 261 c 0
 524 240 519 228 511 218 c 1
 62 218 l 1
EndSplineSet
Substitution2: "'smcp' Lowercase to Small Capitals in Latin lookup 0 subtable" divide.sc
EndChar
StartChar: oslash
Encoding: 248 248 182
Width: 519
Flags: HW
LayerCount: 2
Fore
SplineSet
364 444 m 17
 386 436 397 430 396 426 c 1
 148 -16 l 1
 126 -8 116 -1 117 4 c 1
 364 444 l 17
EndSplineSet
Refer: 79 111 N 1 0 0 1 0 0 2
Substitution2: "'smcp' Lowercase to Small Capitals in Latin lookup 0 subtable" oslash.sc
EndChar
StartChar: thorn
Encoding: 254 254 188
Width: 522
Flags: W
HStem: -213 36<-7 58 201 265> -8 43<207 301> 366 71<241 307> 609 31<-2 54> 659 20G<187 192>
VStem: 66 127<-169 1 49 359 379 601> 351 141<132 316>
LayerCount: 2
Fore
SplineSet
300 438 m 0
 418 438 492 337 492 229 c 0
 492 80 359 -8 252 -8 c 0
 225 -8 200 1 196 1 c 1
 193 1 193 -3 193 -15 c 2
 193 -67 l 2
 193 -109 193 -139 201 -159 c 0
 206 -172 250 -176 263 -177 c 1
 268 -184 267 -207 263 -213 c 1
 225 -209 170 -206 129 -206 c 0
 88 -206 33 -209 -5 -213 c 1
 -9 -207 -10 -184 -5 -177 c 1
 8 -176 53 -172 58 -159 c 0
 66 -139 66 -109 66 -67 c 2
 66 545 l 2
 66 562 66 575 59 592 c 0
 54 604 12 609 0 609 c 1
 -4 609 -5 637 0 641 c 1
 109 651 186 679 189 679 c 1
 195 678 203 667 204 662 c 1
 204 662 193 601 193 562 c 0
 193 398 193 401 193 385 c 0
 193 383 193 382 193 381 c 0
 194 378 196 378 197 379 c 0
 226 410 270 438 300 438 c 0
246 366 m 0
 210 366 193 344 193 339 c 2
 193 94 l 2
 193 55 225 35 259 35 c 0
 291 35 351 81 351 194 c 0
 351 295 325 366 246 366 c 0
EndSplineSet
Substitution2: "'smcp' Lowercase to Small Capitals in Latin lookup 0 subtable" thorn.sc
EndChar
StartChar: Aogonek
Encoding: 260 260 380
Width: 1342
Flags: HW
LayerCount: 2
Fore
SplineSet
598 450 m 0
 506 450 436.666666667 449.333333333 390 448 c 0
 384 448 379.333333333 444.666666667 376 438 c 0
 342.666666667 363.333333333 318.666666667 307.333333333 304 270 c 0
 274.666666667 196.666666667 260 152.666666667 260 138 c 0
 260 116 280.5 98.5 321.5 85.5 c 128
 362.5 72.5 393.333333333 66 414 66 c 1
 419.333333333 58 421.833333333 44.8333333333 421.5 26.5 c 128
 421.166666667 8.16666666667 419.333333333 -3.33333333333 416 -8 c 1
 322.666666667 2.66666666667 250.666666667 8 200 8 c 0
 148 8 75.3333333333 2.66666666667 -18 -8 c 1
 -22 -4 -24.6666666667 6.16666666667 -26 22.5 c 128
 -27.3333333333 38.8333333333 -26 52.6666666667 -22 64 c 1
 -7.33333333333 64 17.3333333333 71 52 85 c 128
 86.6666666667 99 108.666666667 113.333333333 118 128 c 0
 140.666666667 165.333333333 164 212 188 268 c 2
 614 1248 l 2
 620.666666667 1262.66666667 632.166666667 1279 648.5 1297 c 128
 664.833333333 1315 678 1324 688 1324 c 0
 704.666666667 1324 716 1319.33333333 722 1310 c 1
 1132 296 l 2
 1141.33333333 274 1151.66666667 247.833333333 1163 217.5 c 128
 1174.33333333 187.166666667 1182.66666667 165.333333333 1188 152 c 0
 1196 133.333333333 1208 117.5 1224 104.5 c 128
 1240 91.5 1257 82.6666666667 1275 78 c 128
 1293 73.3333333333 1307.33333333 70.1666666667 1318 68.5 c 128
 1328.66666667 66.8333333333 1338 66 1346 66 c 1
 1350.66666667 57.3333333333 1353.5 43.8333333333 1354.5 25.5 c 128
 1355.5 7.16666666667 1354 -4 1350 -8 c 1
 1330 -7.33333333333 1300.16666667 -5.33333333333 1260.5 -2 c 128
 1220.83333333 1.33333333333 1196 3.33333333333 1186 4 c 1
 1153.33333333 -15.3333333333 1129.5 -29.8333333333 1114.5 -39.5 c 128
 1099.5 -49.1666666667 1079.33333333 -63.8333333333 1054 -83.5 c 128
 1028.66666667 -103.166666667 1010.33333333 -122.666666667 999 -142 c 128
 987.666666667 -161.333333333 982 -181.333333333 982 -202 c 0
 982 -226.666666667 989.833333333 -248.5 1005.5 -267.5 c 128
 1021.16666667 -286.5 1046 -296 1080 -296 c 0
 1114.66666667 -296 1164.66666667 -270 1230 -218 c 1
 1238 -218 1242 -225.333333333 1242 -240 c 0
 1242 -245.333333333 1240.33333333 -254 1237 -266 c 128
 1233.66666667 -278 1230.66666667 -286 1228 -290 c 0
 1218.66666667 -302 1206.66666667 -315.166666667 1192 -329.5 c 128
 1177.33333333 -343.833333333 1159 -359.5 1137 -376.5 c 128
 1115 -393.5 1090.16666667 -407.666666667 1062.5 -419 c 128
 1034.83333333 -430.333333333 1008 -436 982 -436 c 0
 944.666666667 -436 910.666666667 -422 880 -394 c 128
 849.333333333 -366 834 -328 834 -280 c 0
 834 -226 862.666666667 -169.166666667 920 -109.5 c 128
 977.333333333 -49.8333333333 1037.33333333 -10.6666666667 1100 8 c 1
 1090 8 l 2
 1062.66666667 8 1030.33333333 7 993 5 c 128
 955.666666667 3 915.333333333 0.5 872 -2.5 c 128
 828.666666667 -5.5 800.666666667 -7.33333333333 788 -8 c 1
 782.666666667 -2.66666666667 780 11 780 33 c 128
 780 55 782.666666667 66 788 66 c 0
 807.333333333 66 828.5 69.1666666667 851.5 75.5 c 128
 874.5 81.8333333333 892.666666667 90.6666666667 906 102 c 0
 918 112 924 123.333333333 924 136 c 0
 924 141.333333333 914 169.333333333 894 220 c 128
 874 270.666666667 854 320 834 368 c 2
 804 440 l 1
 798.666666667 445.333333333 794 448 790 448 c 0
 764.666666667 449.333333333 700.666666667 450 598 450 c 0
590 546 m 0
 655.333333333 546 708.666666667 547.333333333 750 550 c 0
 751.333333333 550 752.5 550.833333333 753.5 552.5 c 128
 754.5 554.166666667 755.166666667 555.833333333 755.5 557.5 c 2
 756 560 l 1
 590 952 l 1
 420 560 l 1
 420 554.666666667 421.333333333 552 424 552 c 0
 464 548 519.333333333 546 590 546 c 0
EndSplineSet
EndChar
StartChar: aogonek
Encoding: 261 261 381
Width: 460
Flags: HW
LayerCount: 2
Fore
SplineSet
443 45 m 1
 425 30 409 19 396 11 c 0
 394 10 391 7 384 3 c 128
 377 -1 371 -5 367 -7 c 128
 363 -9 358 -12 351 -17 c 128
 344 -22 338 -25 333 -29 c 128
 328 -33 323 -37 316 -42 c 128
 309 -47 304 -52 300 -56 c 128
 296 -60 293 -65 289 -70 c 128
 285 -75 282 -79 280 -84 c 128
 278 -89 277 -94 277 -99 c 0
 277 -111 281 -122 289 -131 c 128
 297 -140 308 -145 325 -145 c 0
 342 -145 366 -131 398 -106 c 1
 402 -106 404 -110 404 -117 c 0
 404 -120 404 -124 402 -130 c 128
 400 -136 398 -140 397 -142 c 0
 392 -148 387 -154 380 -161 c 128
 373 -168 364 -176 353 -184 c 128
 342 -192 331 -199 317 -205 c 128
 303 -211 290 -213 277 -213 c 0
 259 -213 243 -206 228 -192 c 128
 213 -178 205 -160 205 -137 c 0
 205 -120 212 -102 225 -83 c 128
 238 -64 253 -47 269 -34 c 128
 285 -21 301 -9 318 0 c 1
 309 2 300 8 289 17 c 128
 278 26 272 35 269 43 c 1
 261 36 244 25 219 12 c 128
 194 -1 173 -8 158 -8 c 0
 122 -8 92 4 67 29 c 128
 42 54 30 81 30 111 c 0
 30 129 36 146 46 161 c 128
 56 176 68 185 81 189 c 0
 92 193 108 199 130 207 c 128
 152 215 177 225 204 235 c 128
 231 245 250 253 262 258 c 1
 262 278 l 1
 262 304 l 2
 262 329 256 352 245 372 c 128
 234 392 221 401 204 401 c 0
 197 401 191 400 185 397 c 128
 179 394 175 389 171 385 c 128
 167 381 164 375 161 367 c 128
 158 359 156 351 154 345 c 128
 152 339 149 330 147 319 c 0
 141 290 123 276 93 276 c 0
 79 276 67 281 57 290 c 128
 47 299 42 310 42 323 c 0
 42 334 47 347 56 363 c 1
 68 375 93 391 131 410 c 128
 169 429 205 438 242 438 c 0
 283 438 318 424 346 396 c 128
 374 368 389 332 389 289 c 2
 389 106 l 2
 389 93 391 84 395 77 c 128
 399 70 405 66 412 66 c 0
 415 66 419 67 422 68 c 128
 425 69 428 70 430 71 c 128
 432 72 434 73 437 74 c 2
 440 76 l 1
 445 74 447 69 447 60 c 0
 447 54 446 49 443 45 c 1
222 61 m 0
 233 61 242 63 250 68 c 128
 258 73 262 77 262 81 c 2
 262 218 l 1
 260 217 251 212 234 205 c 128
 217 198 205 192 197 187 c 0
 172 171 161 149 162 121 c 1
 162 102 169 87 181 76 c 128
 193 65 207 61 222 61 c 0
EndSplineSet
Substitution2: "'smcp' Lowercase to Small Capitals in Latin lookup 0 subtable" aogonek.sc
EndChar
StartChar: dcroat
Encoding: 273 273 382
Width: 1088
Flags: HW
LayerCount: 2
Fore
SplineSet
1048 1054 m 1
 390 1054 l 2
 387.333333333 1054 385.333333333 1058.83333333 384 1068.5 c 0
 382.666666667 1078.16666667 382.666666667 1089.16666667 384 1101.5 c 0
 385.333333333 1113.83333333 388 1122.66666667 392 1128 c 1
 1048 1128 l 2
 1052 1128 1054 1118 1054 1098 c 0
 1054 1078 1052 1063.33333333 1048 1054 c 1
EndSplineSet
Refer: 68 100 N 1 0 0 1 0 0 2
Substitution2: "'smcp' Lowercase to Small Capitals in Latin lookup 0 subtable" dcroat.sc
EndChar
StartChar: Eogonek
Encoding: 280 280 383
Width: 587
Flags: HW
LayerCount: 2
Fore
SplineSet
177 642 m 0
 193 642 247 643 339 645 c 128
 431 647 483 648 495 648 c 1
 497 633 499 618 502 602 c 128
 505 586 510 567 514 547 c 128
 518 527 521 512 523 504 c 1
 520 501 512 499 500 499 c 0
 492 499 487 502 485 507 c 0
 479 522 474 535 468 545 c 128
 462 555 455 566 447 576 c 128
 439 586 429 593 418 598 c 128
 407 603 393 605 379 605 c 2
 298 605 l 2
 269 605 254 602 250 594 c 0
 247 586 245 566 245 534 c 2
 245 359 l 2
 245 356 249 354 258 352 c 128
 267 350 276 349 287 349 c 2
 338 349 l 2
 367 349 387 353 397 361 c 128
 407 369 416 388 424 417 c 1
 425 422 429 425 436 425 c 0
 445 425 452 423 455 420 c 1
 455 232 l 1
 452 229 446 229 437 229 c 0
 429 229 424 231 423 236 c 1
 415 269 403 289 389 296 c 1
 378 301 353 303 315 303 c 0
 268 303 245 298 245 289 c 2
 245 138 l 2
 245 100 247 74 252 61 c 0
 255 55 262 49 275 46 c 128
 288 43 302 41 316 41 c 2
 380 41 l 2
 419 41 450 52 471 73 c 0
 490 92 508 123 524 166 c 1
 525 170 530 172 538 172 c 0
 543 172 548 171 555 170 c 128
 562 169 566 167 567 166 c 1
 566 162 561 152 555 134 c 128
 549 116 545 103 542 95 c 128
 539 87 536 76 531 62 c 128
 526 48 523 36 520 26 c 128
 517 16 515 6 514 -2 c 1
 486 -9 459 -22 433 -41 c 128
 407 -60 394 -79 394 -99 c 0
 394 -111 398 -122 406 -131 c 128
 414 -140 425 -145 442 -145 c 0
 459 -145 483 -131 515 -106 c 1
 519 -106 521 -110 521 -117 c 0
 521 -120 521 -124 519 -130 c 128
 517 -136 515 -140 514 -142 c 0
 509 -148 504 -154 497 -161 c 128
 490 -168 481 -176 470 -184 c 128
 459 -192 447 -199 433 -205 c 128
 419 -211 407 -213 394 -213 c 0
 376 -213 359 -206 344 -192 c 128
 329 -178 322 -160 322 -137 c 0
 322 -112 335 -86 361 -59 c 128
 387 -32 415 -13 446 -2 c 1
 163 -2 l 2
 96 -2 54 -2 38 -3 c 1
 36 0 34 6 34 15 c 128
 34 24 36 29 38 33 c 1
 76 36 97 42 100 50 c 0
 105 63 108 94 108 142 c 2
 108 501 l 2
 108 549 105 580 100 593 c 0
 97 600 77 605 38 608 c 1
 36 612 34 618 34 627 c 128
 34 636 36 642 38 645 c 1
 67 643 113 642 177 642 c 0
EndSplineSet
EndChar
